<svg width="148" height="148" viewBox="0 0 148 148" fill="none" xmlns="http://www.w3.org/2000/svg">
<rect width="147.368" height="147.368" fill="#022128"/>
<rect opacity="0.4" x="37.7172" y="31.3515" width="78.2991" height="78.2991" rx="18.9382" fill="#7CDDAE" stroke="url(#paint0_linear_1_1495)" stroke-width="0.318289"/>
<g filter="url(#filter0_b_1_1495)">
<rect x="37.5581" y="31.1923" width="78.6173" height="78.6173" rx="19.0973" fill="#022128" fill-opacity="0.8"/>
<rect x="37.7172" y="31.3515" width="78.2991" height="78.2991" rx="18.9382" stroke="url(#paint1_linear_1_1495)" stroke-width="0.318289"/>
<path d="M85.8536 63.463C90.9976 63.463 95.1681 67.5415 95.1681 72.572V83.3442C95.1681 88.3747 90.9976 92.4533 85.8536 92.4533H67.3887C62.2448 92.4533 58.0742 88.3747 58.0742 83.3442V72.572C58.0742 67.5415 62.2448 63.463 67.3887 63.463H85.8536ZM76.6101 73.654C75.5458 73.654 74.6811 74.4997 74.6811 75.5405V80.3541C74.6811 81.4166 75.5458 82.2622 76.6101 82.2622C77.6965 82.2622 78.5612 81.4166 78.5612 80.3541V75.5405C78.5612 74.4997 77.6965 73.654 76.6101 73.654Z" fill="#7CDDAE"/>
<path opacity="0.4" d="M88.6719 60.5874V63.7965C87.8959 63.5797 87.0755 63.4713 86.233 63.4713H84.7918V60.5874C84.7918 56.1857 81.1334 52.608 76.6325 52.608C72.1315 52.608 68.4732 56.1641 68.451 60.5441V63.4713H67.032C66.1673 63.4713 65.3469 63.5797 64.5709 63.8182V60.5874C64.593 54.0825 69.9809 48.8135 76.5881 48.8135C83.2841 48.8135 88.6719 54.0825 88.6719 60.5874Z" fill="#7CDDAE"/>
</g>
<defs>
<filter id="filter0_b_1_1495" x="32.7838" y="26.418" width="88.166" height="88.166" filterUnits="userSpaceOnUse" color-interpolation-filters="sRGB">
<feFlood flood-opacity="0" result="BackgroundImageFix"/>
<feGaussianBlur in="BackgroundImageFix" stdDeviation="2.38717"/>
<feComposite in2="SourceAlpha" operator="in" result="effect1_backgroundBlur_1_1495"/>
<feBlend mode="normal" in="SourceGraphic" in2="effect1_backgroundBlur_1_1495" result="shape"/>
</filter>
<linearGradient id="paint0_linear_1_1495" x1="76.8668" y1="31.1923" x2="76.8668" y2="109.81" gradientUnits="userSpaceOnUse">
<stop stop-color="#7CDDAE"/>
<stop offset="1" stop-color="#6FE0EF"/>
</linearGradient>
<linearGradient id="paint1_linear_1_1495" x1="76.8668" y1="31.1923" x2="76.8668" y2="109.81" gradientUnits="userSpaceOnUse">
<stop stop-color="#7CDDAE"/>
<stop offset="1" stop-color="#6FE0EF"/>
</linearGradient>
</defs>
</svg>
