<svg width="255" height="39" viewBox="0 0 255 39" fill="none" xmlns="http://www.w3.org/2000/svg">
<path d="M123.087 19.007C123.087 17.5618 123.941 16.6422 125.682 16.1495C124.006 15.1641 123.087 13.5876 123.087 11.4526C123.087 7.93822 125.419 5.7376 129.097 5.7376C131.561 5.7376 133.039 6.7558 133.499 8.79219L133.597 9.21918H134.385L135.896 6.06605C136.553 5.86898 137.473 5.7376 138.196 5.7376C138.655 5.7376 139.181 5.77045 139.641 5.83613V9.87608H137.966C137.571 9.87608 137.374 10.0403 137.374 10.4344V11.4526C137.374 15.0328 134.681 17.1677 130.247 17.1677C129.459 17.1677 128.703 17.102 128.014 16.9706C127.455 17.102 127.192 17.3976 127.192 17.9231C127.192 18.6129 127.685 18.9413 128.67 18.9413H132.448C136.783 18.9413 139.017 20.7478 139.017 24.2294C139.017 27.8423 136.258 29.5174 130.28 29.5174H130.116C124.86 29.5174 122.101 27.908 122.101 24.8863C122.101 23.3426 122.923 22.3244 124.631 21.7331C123.612 21.1091 123.087 20.1894 123.087 19.007ZM127.192 11.4526C127.192 12.8978 128.309 13.6861 130.247 13.6861C132.185 13.6861 133.269 12.8978 133.269 11.4526C133.269 10.0075 132.185 9.21918 130.247 9.21918C128.309 9.21918 127.192 10.0075 127.192 11.4526ZM129.426 25.8716H131.298C133.729 25.8716 134.747 25.3789 134.747 24.2294C134.747 23.1455 133.827 22.5871 132.119 22.5871H128.605C126.995 22.5871 126.043 23.2112 126.043 24.2294C126.043 25.3789 127.028 25.8716 129.426 25.8716Z" fill="white"/>
<path d="M156.751 17.956C156.751 18.3501 156.948 18.5143 157.342 18.5143H158.229V22.62H156.094C153.598 22.62 152.481 21.6018 152.317 19.1384H151.397L149.722 22.62C148.77 22.8499 147.949 22.9484 146.931 22.9484C143.318 22.9484 141.281 21.2076 141.281 18.153C141.281 15.1641 142.792 13.6861 146.241 13.3248L151.397 12.7993C151.824 12.7664 151.989 12.6022 151.989 12.2409C151.989 10.5987 150.773 9.67901 148.671 9.67901C146.569 9.67901 145.452 10.4673 145.223 12.6022H140.624C140.986 8.23382 143.745 5.7376 148.836 5.7376C153.959 5.7376 156.751 8.43089 156.751 13.3248V17.956ZM145.879 17.2991C145.879 18.3173 146.799 18.9742 148.211 18.9742C150.773 18.9742 151.89 17.7917 151.989 14.8685L148.211 15.394C146.569 15.624 145.879 16.1823 145.879 17.2991Z" fill="white"/>
<path d="M166.778 15.8867C166.778 17.6275 167.665 18.4815 169.406 18.4815H171.837V22.62H168.913C164.479 22.62 162.016 20.485 162.016 16.0509V10.2045H159.06V6.06605H162.016V1.46774H166.778V6.06605H171.837V10.2045H166.778V15.8867Z" fill="white"/>
<path d="M188.976 15.0656H178.104C178.301 17.5618 179.681 18.9742 181.947 18.9742C183.885 18.9742 184.903 18.153 185.265 16.2152H189.896C189.567 20.485 186.644 22.9484 181.947 22.9484C176.626 22.9484 173.637 19.8281 173.637 14.343C173.637 8.89073 176.626 5.7376 181.783 5.7376C186.677 5.7376 189.567 8.92357 189.567 14.343C189.567 14.8357 189.37 15.0656 188.976 15.0656ZM181.783 9.71185C179.911 9.71185 178.63 10.8943 178.203 12.865L184.213 12.7664C184.608 12.7664 184.805 12.6022 184.805 12.2081C184.805 10.6972 183.622 9.71185 181.783 9.71185Z" fill="white"/>
<path d="M207.618 6.06605L209.884 14.1131L210.377 17.5947H211.362L211.855 14.1131L213.793 6.06605H218.851L213.858 22.62H208.275L206.008 14.5729L205.516 11.0913H204.53L204.038 14.5729L201.771 22.62H196.188L191.195 6.06605H196.319L198.257 14.1131L198.75 17.5947H199.735L200.228 14.1131L202.494 6.06605H207.618Z" fill="white"/>
<path d="M236.137 17.956C236.137 18.3501 236.334 18.5143 236.729 18.5143H237.615V22.62H235.481C232.984 22.62 231.868 21.6018 231.703 19.1384H230.784L229.109 22.62C228.156 22.8499 227.335 22.9484 226.317 22.9484C222.704 22.9484 220.667 21.2076 220.667 18.153C220.667 15.1641 222.178 13.6861 225.627 13.3248L230.784 12.7993C231.211 12.7664 231.375 12.6022 231.375 12.2409C231.375 10.5987 230.16 9.67901 228.058 9.67901C225.955 9.67901 224.839 10.4673 224.609 12.6022H220.01C220.372 8.23382 223.131 5.7376 228.222 5.7376C233.346 5.7376 236.137 8.43089 236.137 13.3248V17.956ZM225.266 17.2991C225.266 18.3173 226.185 18.9742 227.598 18.9742C230.16 18.9742 231.276 17.7917 231.375 14.8685L227.598 15.394C225.955 15.624 225.266 16.1823 225.266 17.2991Z" fill="white"/>
<path d="M238.939 29.189V25.0505H240.647C242.782 25.0505 243.57 24.5907 244.063 22.9484L244.128 22.7185L238.118 6.06605H243.176L245.606 14.1131L246.099 17.5947H247.084L247.577 14.1131L250.008 6.06605H255L249.252 21.9631C247.117 27.8752 245.541 29.189 240.647 29.189H238.939Z" fill="white"/>
<path d="M9.00372 6.27644H8.96531C7.10618 6.27644 5.51209 6.97169 4.35974 8.17782V6.57221H0V27.303H4.35974V20.6463C5.48904 21.8332 7.04088 22.5285 8.87696 22.5246H8.90385H8.91537C11.1317 22.5246 13.0062 21.7026 14.2892 20.2506C15.576 18.7987 16.2559 16.7667 16.252 14.4044C16.252 12.0382 15.5798 10.0062 14.3122 8.55426C13.0485 7.10229 11.1932 6.2726 9.00372 6.27644ZM10.9474 17.4927C10.375 18.0919 9.47619 18.4338 8.06263 18.4376C6.63371 18.4376 5.7272 18.0919 5.15102 17.4927C4.57484 16.8935 4.23682 15.9101 4.23682 14.4005C4.23682 12.891 4.57484 11.9076 5.15102 11.3084C5.7272 10.7092 6.63371 10.3673 8.06263 10.3635C9.47619 10.3635 10.375 10.7053 10.9474 11.3084C11.5197 11.9076 11.8616 12.891 11.8616 14.4005C11.8616 15.9101 11.5235 16.8935 10.9474 17.4927Z" fill="white"/>
<path d="M46.7665 16.0408V16.0485L46.3286 17.4198L45.9215 16.0792L42.6603 6.57233H37.8588L44.312 23.2738H39.088V27.3032H42.8216C44.2006 27.3032 45.2915 27.0765 46.1635 26.485C47.0354 25.8935 47.6039 24.9908 48.0572 23.8461L54.8637 6.57233H50.0584L46.7665 16.0408Z" fill="white"/>
<path d="M89.8025 8.5544C88.5388 7.10243 86.6835 6.27274 84.494 6.27658H84.4556C82.5965 6.27658 81.0024 6.97183 79.85 8.17796V9.15527e-05H75.4903V22.2251H79.85V20.6464C80.9793 21.8333 82.5312 22.5286 84.3673 22.5248H84.3941H84.4057C86.622 22.5248 88.4965 21.7027 89.7795 20.2508C91.0624 18.7988 91.7423 16.7707 91.7423 14.4083V14.4007C91.7423 12.0383 91.0701 10.0064 89.8025 8.5544ZM86.4415 17.4928C85.8692 18.092 84.9703 18.4339 83.5568 18.4339C82.1279 18.4339 81.2213 18.0882 80.6452 17.489C80.069 16.8898 79.731 15.9064 79.731 14.3968C79.731 12.8872 80.069 11.9039 80.6452 11.3047C81.2213 10.7055 82.1279 10.3636 83.5568 10.3597C84.9703 10.3597 85.8692 10.7016 86.4415 11.3047C87.0138 11.9039 87.3557 12.8872 87.3557 14.3968C87.3557 15.9064 87.0138 16.8898 86.4415 17.489V17.4928Z" fill="white"/>
<path d="M98.657 17.8693V9.15527e-05H94.2972V18.5223C94.2972 20.5658 95.9566 22.2251 98.0001 22.2251H101.284V17.8654H98.657V17.8693Z" fill="white"/>
<path d="M33.4568 6.57221C32.1008 6.57221 30.9408 7.37502 30.4069 8.52737C29.2353 7.09461 27.5106 6.2726 25.4709 6.27644H25.4402H25.4287C23.2546 6.27644 21.407 7.1023 20.1471 8.55426C18.8833 10.0062 18.2111 12.0382 18.2111 14.4005C18.2111 16.7667 18.891 18.7987 20.1778 20.2506C21.4608 21.7026 23.3353 22.5285 25.5516 22.5246H25.5631H25.59C27.4031 22.5246 28.9472 21.8486 30.0765 20.6809V22.225H34.4363V10.9319H36.038V6.57221H33.4606H33.4568ZM29.3083 17.4888C28.7321 18.0881 27.8256 18.4299 26.3967 18.4338C24.9678 18.4338 24.0689 18.0919 23.5043 17.4927C22.9358 16.8973 22.6016 15.9101 22.6016 14.4005C22.6016 12.8871 22.9358 11.9038 23.5043 11.3084H23.5081C24.0766 10.7092 24.9716 10.3711 26.4005 10.3673C27.8294 10.3673 28.7359 10.713 29.3121 11.3122C29.8883 11.9115 30.2263 12.8948 30.2263 14.4044C30.2263 15.914 29.8883 16.8973 29.3121 17.4965L29.3083 17.4888Z" fill="white"/>
<path d="M70.2248 6.57221C68.8689 6.57221 67.7088 7.37502 67.1749 8.52737C66.0034 7.09461 64.2787 6.2726 62.239 6.27644H62.2083H62.1968C60.0227 6.27644 58.175 7.1023 56.9151 8.55426C55.6514 10.0062 54.9792 12.0344 54.9792 14.3967V14.4044C54.9792 16.7667 55.6591 18.7987 56.9459 20.2506C58.2288 21.7026 60.1033 22.5285 62.3197 22.5246H62.3312H62.3581C64.1711 22.5246 65.7153 21.8486 66.8446 20.6809V22.225H71.2043V10.9319H72.8061V6.57221H70.2287H70.2248ZM66.0763 17.4888C65.5002 18.0881 64.5937 18.4299 63.1647 18.4338C61.7358 18.4338 60.837 18.0919 60.2723 17.4927C59.7038 16.8973 59.3697 15.9101 59.3697 14.4005C59.3697 12.8871 59.7038 11.9038 60.2723 11.3084C60.8408 10.7092 61.7358 10.3711 63.1647 10.3673C64.5937 10.3673 65.5002 10.713 66.0763 11.3122C66.6525 11.9115 66.9905 12.8948 66.9905 14.4044C66.9905 15.914 66.6525 16.8973 66.0763 17.4965V17.4888Z" fill="white"/>
<path d="M115.558 17.8652H107.672C106.554 17.8652 105.502 18.6258 105.344 19.7282C105.156 21.0726 106.193 22.2249 107.503 22.2249H115.389C116.507 22.2249 117.559 21.4644 117.717 20.362C117.905 19.0176 116.868 17.8652 115.558 17.8652Z" fill="url(#paint0_linear_1_1502)"/>
<defs>
<linearGradient id="paint0_linear_1_1502" x1="119.51" y1="20.047" x2="107.518" y2="20.047" gradientUnits="userSpaceOnUse">
<stop stop-color="#7CDDAE" stop-opacity="0"/>
<stop offset="0.41" stop-color="#7CDDAE" stop-opacity="0.44"/>
<stop offset="0.82" stop-color="#7CDDAE" stop-opacity="0.84"/>
<stop offset="1" stop-color="#7CDDAE"/>
</linearGradient>
</defs>
</svg>
