<svg width="147" height="147" viewBox="0 0 147 147" fill="none" xmlns="http://www.w3.org/2000/svg">
<rect width="146.368" height="146.368" fill="#022128"/>
<rect opacity="0.4" x="33.9581" y="33.9581" width="77.7677" height="77.7677" rx="18.8097" fill="#7CDDAE" stroke="url(#paint0_linear_1_1499)" stroke-width="0.316129"/>
<g filter="url(#filter0_b_1_1499)">
<rect x="33.8" y="33.8" width="78.0839" height="78.0839" rx="18.9677" fill="#022128" fill-opacity="0.8"/>
<rect x="33.9581" y="33.9581" width="77.7677" height="77.7677" rx="18.8097" stroke="url(#paint1_linear_1_1499)" stroke-width="0.316129"/>
</g>
<path d="M93.5944 80.8785C93.5944 86.6584 88.9539 91.3404 83.1739 91.3611H83.1532H62.6231C56.8639 91.3611 52.1613 86.6999 52.1613 80.92V80.8992C52.1613 80.8992 52.1737 71.7301 52.1903 67.1186C52.1924 66.2527 53.1868 65.7679 53.8642 66.3065C58.7864 70.2116 67.5889 77.3319 67.6987 77.4251C69.1696 78.6039 71.0341 79.2689 72.94 79.2689C74.8459 79.2689 76.7104 78.6039 78.1813 77.4023C78.2911 77.3298 86.8967 70.4229 91.8935 66.4536C92.573 65.9129 93.5716 66.3977 93.5736 67.2615C93.5944 71.8378 93.5944 80.8785 93.5944 80.8785Z" fill="#7CDDAE"/>
<path d="M91.4521 60.8811C89.7593 57.6816 86.4284 55.6387 82.7612 55.6387H63.2526C59.5854 55.6387 56.2545 57.6816 54.5617 60.8811C54.1824 61.5967 54.3623 62.4887 54.9937 62.9945L69.5079 74.6378C70.5243 75.4612 71.7558 75.871 72.9873 75.871C72.9952 75.871 73.001 75.871 73.0069 75.871C73.0128 75.871 73.0206 75.871 73.0264 75.871C74.258 75.871 75.4895 75.4612 76.5059 74.6378L91.0201 62.9945C91.6515 62.4887 91.8314 61.5967 91.4521 60.8811Z" fill="#7CDDAE"/>
<defs>
<filter id="filter0_b_1_1499" x="29.0581" y="29.0581" width="87.5677" height="87.5677" filterUnits="userSpaceOnUse" color-interpolation-filters="sRGB">
<feFlood flood-opacity="0" result="BackgroundImageFix"/>
<feGaussianBlur in="BackgroundImageFix" stdDeviation="2.37097"/>
<feComposite in2="SourceAlpha" operator="in" result="effect1_backgroundBlur_1_1499"/>
<feBlend mode="normal" in="SourceGraphic" in2="effect1_backgroundBlur_1_1499" result="shape"/>
</filter>
<linearGradient id="paint0_linear_1_1499" x1="72.8419" y1="33.8" x2="72.8419" y2="111.884" gradientUnits="userSpaceOnUse">
<stop stop-color="#7CDDAE"/>
<stop offset="1" stop-color="#6FE0EF"/>
</linearGradient>
<linearGradient id="paint1_linear_1_1499" x1="72.8419" y1="33.8" x2="72.8419" y2="111.884" gradientUnits="userSpaceOnUse">
<stop stop-color="#7CDDAE"/>
<stop offset="1" stop-color="#6FE0EF"/>
</linearGradient>
</defs>
</svg>
