<svg width="147" height="147" viewBox="0 0 147 147" fill="none" xmlns="http://www.w3.org/2000/svg">
<rect width="146.368" height="146.368" fill="#022128"/>
<rect opacity="0.4" x="34.3" y="33.9581" width="77.7677" height="77.7677" rx="18.8097" fill="#7CDDAE" stroke="url(#paint0_linear_1_1497)" stroke-width="0.316129"/>
<g filter="url(#filter0_b_1_1497)">
<rect x="33.8" y="33.8" width="78.0839" height="78.0839" rx="18.9677" fill="#022128" fill-opacity="0.8"/>
<rect x="33.9581" y="33.9581" width="77.7677" height="77.7677" rx="18.8097" stroke="url(#paint1_linear_1_1497)" stroke-width="0.316129"/>
</g>
<g opacity="0.8">
<mask id="path-4-inside-1_1_1497" fill="white">
<path fill-rule="evenodd" clip-rule="evenodd" d="M91.2 76.5765C91.9736 76.9874 92.5705 77.6363 92.9905 78.2852C93.8083 79.6263 93.742 81.2701 92.9463 82.7193L91.3989 85.3149C90.581 86.6992 89.0558 87.5644 87.4864 87.5644C86.7127 87.5644 85.8506 87.3481 85.1433 86.9155C84.5685 86.5478 83.9054 86.418 83.198 86.418C81.0097 86.418 79.175 88.2133 79.1086 90.3547C79.1086 92.8421 77.075 94.7888 74.5329 94.7888H71.5267C68.9625 94.7888 66.9289 92.8421 66.9289 90.3547C66.8847 88.2133 65.05 86.418 62.8616 86.418C62.1321 86.418 61.469 86.5478 60.9164 86.9155C60.209 87.3481 59.3248 87.5644 58.5733 87.5644C56.9817 87.5644 55.4565 86.6992 54.6386 85.3149L53.1134 82.7193C52.2955 81.3134 52.2513 79.6263 53.0692 78.2852C53.4228 77.6363 54.086 76.9874 54.8376 76.5765C55.4565 76.2736 55.8544 75.7761 56.2302 75.1921C57.3354 73.332 56.6723 70.8878 54.7933 69.7847C52.605 68.5518 51.8976 65.8048 53.1576 63.6634L54.6386 61.1111C55.9207 58.9697 58.6617 58.2127 60.8722 59.4672C62.7953 60.5055 65.2931 59.8133 66.4205 57.9748C66.7742 57.3691 66.9731 56.7202 66.9289 56.0713C66.8847 55.2278 67.1278 54.4275 67.5478 53.7786C68.3657 52.4375 69.8467 51.5723 71.4604 51.5291H74.5772C76.2129 51.5291 77.6939 52.4375 78.5118 53.7786C78.9097 54.4275 79.175 55.2278 79.1086 56.0713C79.0644 56.7202 79.2634 57.3691 79.6171 57.9748C80.7444 59.8133 83.2422 60.5055 85.1875 59.4672C87.3758 58.2127 90.1389 58.9697 91.3989 61.1111L92.8799 63.6634C94.162 65.8048 93.4547 68.5518 91.2442 69.7847C89.3653 70.8878 88.7021 73.332 89.8295 75.1921C90.1832 75.7761 90.581 76.2736 91.2 76.5765ZM66.7735 73.18C66.7735 76.5759 69.5808 79.2796 73.0513 79.2796C76.5217 79.2796 79.2627 76.5759 79.2627 73.18C79.2627 69.7841 76.5217 67.0587 73.0513 67.0587C69.5808 67.0587 66.7735 69.7841 66.7735 73.18Z"/>
</mask>
<path d="M92.9905 78.2852L93.2605 78.1206L93.2559 78.1134L92.9905 78.2852ZM91.2 76.5765L91.3484 76.2971L91.3389 76.2925L91.2 76.5765ZM92.9463 82.7193L93.218 82.8813L93.2234 82.8715L92.9463 82.7193ZM91.3989 85.3149L91.1274 85.153L91.1267 85.1541L91.3989 85.3149ZM85.1433 86.9155L84.9729 87.1819L84.9783 87.1852L85.1433 86.9155ZM79.1086 90.3547L78.7925 90.3449V90.3547H79.1086ZM66.9289 90.3547H67.2451L67.245 90.3482L66.9289 90.3547ZM60.9164 86.9155L61.0814 87.1854L61.0915 87.1787L60.9164 86.9155ZM54.6386 85.3149L54.3661 85.4751L54.3664 85.4757L54.6386 85.3149ZM53.1134 82.7193L52.8401 82.8783L52.8408 82.8795L53.1134 82.7193ZM53.0692 78.2852L53.3391 78.4498L53.3431 78.4433L53.3467 78.4365L53.0692 78.2852ZM54.8376 76.5765L54.6986 76.2925L54.6922 76.2956L54.6859 76.2991L54.8376 76.5765ZM56.2302 75.1921L56.4962 75.3633L56.5019 75.3536L56.2302 75.1921ZM54.7933 69.7847L54.9534 69.512L54.9485 69.5092L54.7933 69.7847ZM53.1576 63.6634L53.4301 63.8237L53.431 63.8221L53.1576 63.6634ZM54.6386 61.1111L54.3674 60.9487L54.3652 60.9524L54.6386 61.1111ZM60.8722 59.4672L60.7161 59.7422L60.722 59.7454L60.8722 59.4672ZM66.4205 57.9748L66.69 58.14L66.6935 58.1342L66.4205 57.9748ZM66.9289 56.0713L66.6132 56.0879L66.6135 56.0928L66.9289 56.0713ZM67.5478 53.7786L67.8133 53.9504L67.8177 53.9432L67.5478 53.7786ZM71.4604 51.5291V51.2128L71.4519 51.213L71.4604 51.5291ZM78.5118 53.7786L78.2419 53.9432L78.2423 53.9438L78.5118 53.7786ZM79.1086 56.0713L78.7935 56.0466L78.7932 56.0498L79.1086 56.0713ZM79.6171 57.9748L79.344 58.1342L79.3476 58.14L79.6171 57.9748ZM85.1875 59.4672L85.3364 59.7462L85.3447 59.7415L85.1875 59.4672ZM91.3989 61.1111L91.6724 60.9524L91.6714 60.9508L91.3989 61.1111ZM92.8799 63.6634L92.6065 63.8221L92.6087 63.8258L92.8799 63.6634ZM91.2442 69.7847L91.0902 69.5085L91.0841 69.5121L91.2442 69.7847ZM89.8295 75.1921L90.0999 75.0284L90.0998 75.0283L89.8295 75.1921ZM93.2559 78.1134C92.8159 77.4338 92.1826 76.7405 91.3483 76.2973L91.0517 76.8556C91.7647 77.2344 92.325 77.8389 92.7251 78.457L93.2559 78.1134ZM93.2234 82.8715C94.0637 81.3411 94.1472 79.5748 93.2604 78.1206L92.7206 78.4498C93.4695 79.6778 93.4204 81.1992 92.6692 82.5672L93.2234 82.8715ZM91.6705 85.4768L93.2178 82.8812L92.6747 82.5575L91.1274 85.1531L91.6705 85.4768ZM87.4864 87.8806C89.1684 87.8806 90.7967 86.9556 91.6711 85.4757L91.1267 85.1541C90.3653 86.4428 88.9432 87.2483 87.4864 87.2483V87.8806ZM84.9783 87.1852C85.7393 87.6506 86.6593 87.8806 87.4864 87.8806V87.2483C86.7661 87.2483 85.9619 87.0457 85.3082 86.6458L84.9783 87.1852ZM83.198 86.7342C83.8681 86.7342 84.4655 86.8572 84.9729 87.1818L85.3136 86.6492C84.6716 86.2385 83.9427 86.1019 83.198 86.1019V86.7342ZM79.4246 90.3645C79.4856 88.3944 81.1799 86.7342 83.198 86.7342V86.1019C80.8395 86.1019 78.8643 88.0323 78.7927 90.3449L79.4246 90.3645ZM74.5329 95.1049C77.239 95.1049 79.4248 93.0271 79.4248 90.3547H78.7925C78.7925 92.6571 76.911 94.4727 74.5329 94.4727V95.1049ZM71.5267 95.1049H74.5329V94.4727H71.5267V95.1049ZM66.6128 90.3547C66.6128 93.0281 68.7995 95.1049 71.5267 95.1049V94.4727C69.1255 94.4727 67.245 92.6562 67.245 90.3547H66.6128ZM62.8616 86.7342C64.8805 86.7342 66.5722 88.3944 66.6128 90.3612L67.245 90.3482C67.1971 88.0323 65.2195 86.1019 62.8616 86.1019V86.7342ZM61.0915 87.1787C61.5732 86.8582 62.1667 86.7342 62.8616 86.7342V86.1019C62.0976 86.1019 61.3648 86.2374 60.7413 86.6523L61.0915 87.1787ZM58.5733 87.8806C59.3774 87.8806 60.3197 87.651 61.0813 87.1852L60.7514 86.6458C60.0983 87.0453 59.2722 87.2483 58.5733 87.2483V87.8806ZM54.3664 85.4757C55.2412 86.9564 56.87 87.8806 58.5733 87.8806V87.2483C57.0935 87.2483 55.6718 86.4421 54.9108 85.1541L54.3664 85.4757ZM52.8408 82.8795L54.3661 85.4751L54.9112 85.1548L53.3859 82.5592L52.8408 82.8795ZM52.7993 78.1206C51.9148 79.5709 51.9702 81.3828 52.8401 82.8783L53.3866 82.5604C52.6208 81.244 52.5878 79.6816 53.3391 78.4498L52.7993 78.1206ZM54.6859 76.2991C53.8875 76.7356 53.1776 77.4258 52.7916 78.1339L53.3467 78.4365C53.6681 77.8469 54.2845 77.2392 54.9892 76.8538L54.6859 76.2991ZM55.9643 75.0211C55.5971 75.5917 55.2379 76.0286 54.6986 76.2925L54.9765 76.8604C55.675 76.5186 56.1116 75.9606 56.496 75.3632L55.9643 75.0211ZM54.6333 70.0573C56.366 71.0746 56.9712 73.326 55.9584 75.0307L56.5019 75.3536C57.6996 73.338 56.9785 70.701 54.9534 69.5121L54.6333 70.0573ZM52.8851 63.5031C51.5368 65.7945 52.2932 68.739 54.6382 70.0601L54.9485 69.5092C52.9167 68.3645 52.2584 65.815 53.4301 63.8237L52.8851 63.5031ZM54.3652 60.9524L52.8842 63.5048L53.431 63.8221L54.912 61.2698L54.3652 60.9524ZM61.0282 59.1923C58.6664 57.8519 55.7365 58.662 54.3674 60.9487L54.9098 61.2735C56.1049 59.2775 58.657 58.5735 60.7161 59.7422L61.0282 59.1923ZM66.151 57.8095C65.1107 59.5061 62.7966 60.1469 61.0223 59.189L60.722 59.7454C62.794 60.864 65.4756 60.1205 66.69 58.14L66.151 57.8095ZM66.6135 56.0928C66.6523 56.662 66.4787 57.2481 66.1475 57.8153L66.6935 58.1342C67.0696 57.4901 67.2939 56.7784 67.2443 56.0498L66.6135 56.0928ZM67.2824 53.6068C66.8289 54.3075 66.5653 55.1731 66.6132 56.0879L67.2446 56.0548C67.2041 55.2824 67.4268 54.5474 67.8132 53.9503L67.2824 53.6068ZM71.4519 51.213C69.7317 51.2592 68.152 52.1808 67.2779 53.614L67.8177 53.9432C68.5795 52.6942 69.9618 51.8855 71.4688 51.8451L71.4519 51.213ZM74.5772 51.2129H71.4604V51.8452H74.5772V51.2129ZM78.7817 53.614C77.9106 52.1856 76.3309 51.2129 74.5772 51.2129V51.8452C76.0949 51.8452 77.4773 52.6894 78.2419 53.9432L78.7817 53.614ZM79.4238 56.0961C79.4965 55.1709 79.2053 54.3048 78.7813 53.6133L78.2423 53.9438C78.6141 54.5501 78.8534 55.2846 78.7935 56.0466L79.4238 56.0961ZM79.89 57.8153C79.5588 57.2481 79.3853 56.662 79.424 56.0928L78.7932 56.0498C78.7436 56.7784 78.9679 57.4901 79.3441 58.1342L79.89 57.8153ZM85.0386 59.1883C83.2405 60.148 80.9262 59.5051 79.8866 57.8095L79.3476 58.14C80.5626 60.1215 83.244 60.8629 85.3363 59.7461L85.0386 59.1883ZM91.6714 60.9508C90.3242 58.6613 87.37 57.8516 85.0302 59.193L85.3447 59.7415C87.3817 58.5737 89.9537 59.2782 91.1265 61.2714L91.6714 60.9508ZM93.1534 63.5048L91.6724 60.9524L91.1255 61.2698L92.6065 63.8221L93.1534 63.5048ZM91.3982 70.0608C93.766 68.7401 94.524 65.7939 93.1512 63.501L92.6087 63.8258C93.8001 65.8156 93.1433 68.3634 91.0902 69.5086L91.3982 70.0608ZM90.0998 75.0283C89.0673 73.3246 89.6716 71.0746 91.4042 70.0573L91.0841 69.5121C89.059 70.701 88.3369 73.3393 89.5591 75.356L90.0998 75.0283ZM91.3389 76.2925C90.8004 76.029 90.4416 75.5927 90.0999 75.0284L89.5591 75.3559C89.9247 75.9596 90.3616 76.5182 91.061 76.8604L91.3389 76.2925ZM73.0513 78.9635C69.7459 78.9635 67.0896 76.392 67.0896 73.18H66.4574C66.4574 76.7598 69.4157 79.5957 73.0513 79.5957V78.9635ZM78.9466 73.18C78.9466 76.3963 76.3522 78.9635 73.0513 78.9635V79.5957C76.6913 79.5957 79.5788 76.7554 79.5788 73.18H78.9466ZM73.0513 67.3748C76.3507 67.3748 78.9466 69.9622 78.9466 73.18H79.5788C79.5788 69.606 76.6928 66.7426 73.0513 66.7426V67.3748ZM67.0896 73.18C67.0896 69.9665 69.7474 67.3748 73.0513 67.3748V66.7426C69.4142 66.7426 66.4574 69.6016 66.4574 73.18H67.0896Z" fill="url(#paint2_linear_1_1497)" mask="url(#path-4-inside-1_1_1497)"/>
</g>
<g opacity="0.6">
<mask id="path-6-inside-2_1_1497" fill="white">
<path fill-rule="evenodd" clip-rule="evenodd" d="M91.2 76.5765C91.9736 76.9874 92.5705 77.6363 92.9905 78.2852C93.8083 79.6263 93.742 81.2701 92.9463 82.7193L91.3989 85.3149C90.581 86.6992 89.0558 87.5644 87.4864 87.5644C86.7127 87.5644 85.8506 87.3481 85.1433 86.9155C84.5685 86.5478 83.9054 86.418 83.198 86.418C81.0097 86.418 79.175 88.2133 79.1086 90.3547C79.1086 92.8421 77.075 94.7888 74.5329 94.7888H71.5267C68.9625 94.7888 66.9289 92.8421 66.9289 90.3547C66.8847 88.2133 65.05 86.418 62.8616 86.418C62.1321 86.418 61.469 86.5478 60.9164 86.9155C60.209 87.3481 59.3248 87.5644 58.5733 87.5644C56.9817 87.5644 55.4565 86.6992 54.6386 85.3149L53.1134 82.7193C52.2955 81.3134 52.2513 79.6263 53.0692 78.2852C53.4228 77.6363 54.086 76.9874 54.8376 76.5765C55.4565 76.2736 55.8544 75.7761 56.2302 75.1921C57.3354 73.332 56.6723 70.8878 54.7933 69.7847C52.605 68.5518 51.8976 65.8048 53.1576 63.6634L54.6386 61.1111C55.9207 58.9697 58.6617 58.2127 60.8722 59.4672C62.7953 60.5055 65.2931 59.8133 66.4205 57.9748C66.7742 57.3691 66.9731 56.7202 66.9289 56.0713C66.8847 55.2278 67.1278 54.4275 67.5478 53.7786C68.3657 52.4375 69.8467 51.5723 71.4604 51.5291H74.5772C76.2129 51.5291 77.6939 52.4375 78.5118 53.7786C78.9097 54.4275 79.175 55.2278 79.1086 56.0713C79.0644 56.7202 79.2634 57.3691 79.6171 57.9748C80.7444 59.8133 83.2422 60.5055 85.1875 59.4672C87.3758 58.2127 90.1389 58.9697 91.3989 61.1111L92.8799 63.6634C94.162 65.8048 93.4547 68.5518 91.2442 69.7847C89.3653 70.8878 88.7021 73.332 89.8295 75.1921C90.1832 75.7761 90.581 76.2736 91.2 76.5765ZM66.7735 73.18C66.7735 76.5759 69.5808 79.2796 73.0513 79.2796C76.5217 79.2796 79.2627 76.5759 79.2627 73.18C79.2627 69.7841 76.5217 67.0587 73.0513 67.0587C69.5808 67.0587 66.7735 69.7841 66.7735 73.18Z"/>
</mask>
<path d="M92.9905 78.2852L93.1255 78.2029L93.1232 78.1993L92.9905 78.2852ZM91.2 76.5765L91.2742 76.4368L91.2694 76.4345L91.2 76.5765ZM92.9463 82.7193L93.0821 82.8003L93.0848 82.7954L92.9463 82.7193ZM91.3989 85.3149L91.2632 85.234L91.2628 85.2345L91.3989 85.3149ZM85.1433 86.9155L85.0581 87.0487L85.0608 87.0504L85.1433 86.9155ZM79.1086 90.3547L78.9506 90.3498V90.3547H79.1086ZM66.9289 90.3547H67.087L67.0869 90.3514L66.9289 90.3547ZM60.9164 86.9155L60.9989 87.0505L61.0039 87.0471L60.9164 86.9155ZM54.6386 85.3149L54.5023 85.395L54.5025 85.3953L54.6386 85.3149ZM53.1134 82.7193L52.9767 82.7988L52.9771 82.7994L53.1134 82.7193ZM53.0692 78.2852L53.2043 78.3676L53.208 78.3609L53.0692 78.2852ZM54.8376 76.5765L54.768 76.4343L54.7617 76.4378L54.8376 76.5765ZM56.2302 75.1921L56.3632 75.2777L56.366 75.2729L56.2302 75.1921ZM54.7933 69.7847L54.8734 69.6483L54.8709 69.647L54.7933 69.7847ZM53.1576 63.6634L53.2938 63.7436L53.2943 63.7427L53.1576 63.6634ZM54.6386 61.1111L54.503 61.0299L54.5019 61.0318L54.6386 61.1111ZM60.8722 59.4672L60.7941 59.6047L60.7971 59.6063L60.8722 59.4672ZM66.4205 57.9748L66.5553 58.0574L66.557 58.0545L66.4205 57.9748ZM66.9289 56.0713L66.771 56.0796L66.7712 56.0821L66.9289 56.0713ZM67.5478 53.7786L67.6806 53.8645L67.6828 53.8609L67.5478 53.7786ZM71.4604 51.5291V51.3709L71.4561 51.371L71.4604 51.5291ZM78.5118 53.7786L78.3769 53.8609L78.3771 53.8612L78.5118 53.7786ZM79.1086 56.0713L78.9511 56.0589L78.9509 56.0606L79.1086 56.0713ZM79.6171 57.9748L79.4805 58.0545L79.4823 58.0574L79.6171 57.9748ZM85.1875 59.4672L85.2619 59.6067L85.2661 59.6043L85.1875 59.4672ZM91.3989 61.1111L91.5356 61.0318L91.5352 61.0309L91.3989 61.1111ZM92.8799 63.6634L92.7432 63.7428L92.7443 63.7446L92.8799 63.6634ZM91.2442 69.7847L91.1672 69.6466L91.1642 69.6484L91.2442 69.7847ZM89.8295 75.1921L89.9647 75.1103L89.9647 75.1102L89.8295 75.1921ZM93.1232 78.1993C92.6932 77.535 92.0781 76.8639 91.2741 76.4369L91.1258 76.716C91.8692 77.1109 92.4477 77.7376 92.8578 78.3711L93.1232 78.1993ZM93.0848 82.7954C93.9029 81.3056 93.9778 79.6005 93.1254 78.2029L92.8555 78.3675C93.6389 79.652 93.5812 81.2346 92.8077 82.6433L93.0848 82.7954ZM91.5347 85.3959L93.082 82.8003L92.8105 82.6384L91.2632 85.234L91.5347 85.3959ZM87.4864 87.7225C89.1121 87.7225 90.6889 86.8274 91.535 85.3953L91.2628 85.2345C90.4732 86.571 88.9995 87.4064 87.4864 87.4064V87.7225ZM85.0608 87.0504C85.795 87.4994 86.686 87.7225 87.4864 87.7225V87.4064C86.7394 87.4064 85.9063 87.1969 85.2257 86.7807L85.0608 87.0504ZM83.198 86.5761C83.8867 86.5761 84.517 86.7025 85.0581 87.0487L85.2284 86.7824C84.6201 86.3931 83.924 86.26 83.198 86.26V86.5761ZM79.2666 90.3596C79.3303 88.3039 81.0948 86.5761 83.198 86.5761V86.26C80.9246 86.26 79.0196 88.1228 78.9507 90.3498L79.2666 90.3596ZM74.5329 94.9469C77.157 94.9469 79.2667 92.9346 79.2667 90.3547H78.9506C78.9506 92.7496 76.993 94.6308 74.5329 94.6308V94.9469ZM71.5267 94.9469H74.5329V94.6308H71.5267V94.9469ZM66.7708 90.3547C66.7708 92.9351 68.881 94.9469 71.5267 94.9469V94.6308C69.044 94.6308 67.087 92.7491 67.087 90.3547H66.7708ZM62.8616 86.5761C64.9652 86.5761 66.7285 88.3039 66.7709 90.3579L67.0869 90.3514C67.0409 88.1228 65.1347 86.26 62.8616 86.26V86.5761ZM61.0039 87.0471C61.5211 86.703 62.1494 86.5761 62.8616 86.5761V86.26C62.1149 86.26 61.4169 86.3926 60.8288 86.7839L61.0039 87.0471ZM58.5733 87.7225C59.3511 87.7225 60.2644 87.4996 60.9988 87.0504L60.8339 86.7807C60.1537 87.1967 59.2985 87.4064 58.5733 87.4064V87.7225ZM54.5025 85.3953C55.3489 86.8278 56.9259 87.7225 58.5733 87.7225V87.4064C57.0376 87.4064 55.5641 86.5707 54.7747 85.2345L54.5025 85.3953ZM52.9771 82.7994L54.5023 85.395L54.7749 85.2348L53.2497 82.6393L52.9771 82.7994ZM52.9342 78.2029C52.083 79.5986 52.1328 81.3481 52.9768 82.7988L53.25 82.6399C52.4582 81.2787 52.4196 79.6539 53.2041 78.3675L52.9342 78.2029ZM54.7617 76.4378C53.9867 76.8615 53.3002 77.531 52.9304 78.2096L53.208 78.3609C53.5455 77.7416 54.1852 77.1133 54.9134 76.7151L54.7617 76.4378ZM56.0972 75.1066C55.7257 75.6839 55.3472 76.1511 54.7681 76.4345L54.907 76.7184C55.5658 76.3961 55.983 75.8684 56.3631 75.2777L56.0972 75.1066ZM54.7133 69.921C56.5191 70.9812 57.1533 73.329 56.0943 75.1114L56.366 75.2729C57.5175 73.335 56.8254 70.7944 54.8734 69.6484L54.7133 69.921ZM53.0214 63.5833C51.7172 65.7997 52.4491 68.6454 54.7158 69.9224L54.8709 69.647C52.7608 68.4582 52.078 65.8099 53.2938 63.7436L53.0214 63.5833ZM54.5019 61.0318L53.0209 63.5841L53.2943 63.7427L54.7753 61.1904L54.5019 61.0318ZM60.9502 59.3298C58.664 58.0323 55.8286 58.8158 54.503 61.0299L54.7742 61.1923C56.0128 59.1236 58.6593 58.3931 60.7942 59.6047L60.9502 59.3298ZM66.2857 57.8921C65.2019 59.6597 62.796 60.3262 60.9473 59.3281L60.7971 59.6063C62.7946 60.6847 65.3844 59.9669 66.5552 58.0574L66.2857 57.8921ZM66.7712 56.0821C66.8127 56.6911 66.6264 57.3086 66.284 57.895L66.557 58.0545C66.9219 57.4296 67.1335 56.7493 67.0866 56.0606L66.7712 56.0821ZM67.4151 53.6927C66.9784 54.3675 66.725 55.2004 66.771 56.0796L67.0867 56.0631C67.0444 55.2551 67.2773 54.4874 67.6805 53.8644L67.4151 53.6927ZM71.4561 51.371C69.7892 51.4157 68.2588 52.3092 67.4129 53.6963L67.6828 53.8609C68.4726 52.5658 69.9042 51.7289 71.4646 51.6871L71.4561 51.371ZM74.5772 51.371H71.4604V51.6871H74.5772V51.371ZM78.6468 53.6963C77.8023 52.3116 76.2719 51.371 74.5772 51.371V51.6871C76.1539 51.6871 77.5856 52.5634 78.3769 53.8609L78.6468 53.6963ZM79.2662 56.0837C79.3357 55.1993 79.0575 54.3661 78.6466 53.6959L78.3771 53.8612C78.7619 54.4888 79.0142 55.2562 78.9511 56.0589L79.2662 56.0837ZM79.7536 57.895C79.4111 57.3086 79.2248 56.6911 79.2663 56.0821L78.9509 56.0606C78.904 56.7493 79.1157 57.4296 79.4806 58.0545L79.7536 57.895ZM85.113 59.3278C83.2414 60.3267 80.8353 59.6592 79.7518 57.8921L79.4823 58.0574C80.6535 59.9674 83.2431 60.6842 85.2619 59.6067L85.113 59.3278ZM91.5352 61.0309C90.2316 58.8155 87.3729 58.0322 85.1089 59.3301L85.2661 59.6043C87.3788 58.3932 90.0463 59.124 91.2627 61.1912L91.5352 61.0309ZM93.0167 63.5841L91.5356 61.0318L91.2622 61.1904L92.7432 63.7427L93.0167 63.5841ZM91.3212 69.9227C93.6103 68.6459 94.343 65.7993 93.0156 63.5822L92.7443 63.7446C93.9811 65.8102 93.299 68.4576 91.1672 69.6466L91.3212 69.9227ZM89.9647 75.1102C88.8847 73.3283 89.5184 70.9812 91.3242 69.921L91.1642 69.6484C89.2121 70.7944 88.5195 73.3356 89.6943 75.2741L89.9647 75.1102ZM91.2694 76.4345C90.6907 76.1513 90.3124 75.6844 89.9647 75.1103L89.6943 75.274C90.0539 75.8679 90.4713 76.3959 91.1305 76.7184L91.2694 76.4345ZM73.0513 79.1215C69.6634 79.1215 66.9316 76.4839 66.9316 73.18H66.6154C66.6154 76.6678 69.4982 79.4377 73.0513 79.4377V79.1215ZM79.1047 73.18C79.1047 76.4861 76.4369 79.1215 73.0513 79.1215V79.4377C76.6065 79.4377 79.4208 76.6657 79.4208 73.18H79.1047ZM73.0513 67.2168C76.4362 67.2168 79.1047 69.8731 79.1047 73.18H79.4208C79.4208 69.695 76.6072 66.9007 73.0513 66.9007V67.2168ZM66.9316 73.18C66.9316 69.8753 69.6641 67.2168 73.0513 67.2168V66.9007C69.4975 66.9007 66.6154 69.6928 66.6154 73.18H66.9316Z" fill="url(#paint3_linear_1_1497)" mask="url(#path-6-inside-2_1_1497)"/>
</g>
<g opacity="0.4">
<mask id="path-8-inside-3_1_1497" fill="white">
<path fill-rule="evenodd" clip-rule="evenodd" d="M91.2 76.5765C91.9736 76.9874 92.5705 77.6363 92.9905 78.2852C93.8083 79.6263 93.742 81.2701 92.9463 82.7193L91.3989 85.3149C90.581 86.6992 89.0558 87.5644 87.4864 87.5644C86.7127 87.5644 85.8506 87.3481 85.1433 86.9155C84.5685 86.5478 83.9054 86.418 83.198 86.418C81.0097 86.418 79.175 88.2133 79.1086 90.3547C79.1086 92.8421 77.075 94.7888 74.5329 94.7888H71.5267C68.9625 94.7888 66.9289 92.8421 66.9289 90.3547C66.8847 88.2133 65.05 86.418 62.8616 86.418C62.1321 86.418 61.469 86.5478 60.9164 86.9155C60.209 87.3481 59.3248 87.5644 58.5733 87.5644C56.9817 87.5644 55.4565 86.6992 54.6386 85.3149L53.1134 82.7193C52.2955 81.3134 52.2513 79.6263 53.0692 78.2852C53.4228 77.6363 54.086 76.9874 54.8376 76.5765C55.4565 76.2736 55.8544 75.7761 56.2302 75.1921C57.3354 73.332 56.6723 70.8878 54.7933 69.7847C52.605 68.5518 51.8976 65.8048 53.1576 63.6634L54.6386 61.1111C55.9207 58.9697 58.6617 58.2127 60.8722 59.4672C62.7953 60.5055 65.2931 59.8133 66.4205 57.9748C66.7742 57.3691 66.9731 56.7202 66.9289 56.0713C66.8847 55.2278 67.1278 54.4275 67.5478 53.7786C68.3657 52.4375 69.8467 51.5723 71.4604 51.5291H74.5772C76.2129 51.5291 77.6939 52.4375 78.5118 53.7786C78.9097 54.4275 79.175 55.2278 79.1086 56.0713C79.0644 56.7202 79.2634 57.3691 79.6171 57.9748C80.7444 59.8133 83.2422 60.5055 85.1875 59.4672C87.3758 58.2127 90.1389 58.9697 91.3989 61.1111L92.8799 63.6634C94.162 65.8048 93.4547 68.5518 91.2442 69.7847C89.3653 70.8878 88.7021 73.332 89.8295 75.1921C90.1832 75.7761 90.581 76.2736 91.2 76.5765ZM66.7735 73.18C66.7735 76.5759 69.5808 79.2796 73.0513 79.2796C76.5217 79.2796 79.2627 76.5759 79.2627 73.18C79.2627 69.7841 76.5217 67.0587 73.0513 67.0587C69.5808 67.0587 66.7735 69.7841 66.7735 73.18Z"/>
</mask>
<path d="M92.9905 78.2852L93.058 78.244L93.0568 78.2423L92.9905 78.2852ZM91.2 76.5765L91.2371 76.5066L91.2347 76.5055L91.2 76.5765ZM92.9463 82.7193L93.0142 82.7598L93.0155 82.7574L92.9463 82.7193ZM91.3989 85.3149L91.331 85.2745L91.3309 85.2747L91.3989 85.3149ZM85.1433 86.9155L85.1007 86.9821L85.102 86.983L85.1433 86.9155ZM79.1086 90.3547L79.0296 90.3522V90.3547H79.1086ZM66.9289 90.3547H67.0079L67.0079 90.3531L66.9289 90.3547ZM60.9164 86.9155L60.9576 86.983L60.9602 86.9813L60.9164 86.9155ZM54.6386 85.3149L54.5705 85.355L54.5706 85.3551L54.6386 85.3149ZM53.1134 82.7193L53.0451 82.7591L53.0452 82.7594L53.1134 82.7193ZM53.0692 78.2852L53.1367 78.3264L53.1386 78.323L53.0692 78.2852ZM54.8376 76.5765L54.8028 76.5054L54.7996 76.5071L54.8376 76.5765ZM56.2302 75.1921L56.2967 75.2349L56.2981 75.2325L56.2302 75.1921ZM54.7933 69.7847L54.8334 69.7165L54.8321 69.7158L54.7933 69.7847ZM53.1576 63.6634L53.2257 63.7035L53.2259 63.7031L53.1576 63.6634ZM54.6386 61.1111L54.5708 61.0705L54.5703 61.0714L54.6386 61.1111ZM60.8722 59.4672L60.8332 59.536L60.8346 59.5368L60.8722 59.4672ZM66.4205 57.9748L66.4879 58.0161L66.4887 58.0146L66.4205 57.9748ZM66.9289 56.0713L66.85 56.0755L66.85 56.0767L66.9289 56.0713ZM67.5478 53.7786L67.6142 53.8215L67.6153 53.8197L67.5478 53.7786ZM71.4604 51.5291V51.45L71.4583 51.45L71.4604 51.5291ZM78.5118 53.7786L78.4443 53.8197L78.4444 53.8199L78.5118 53.7786ZM79.1086 56.0713L79.0299 56.0651L79.0298 56.066L79.1086 56.0713ZM79.6171 57.9748L79.5488 58.0146L79.5497 58.0161L79.6171 57.9748ZM85.1875 59.4672L85.2247 59.537L85.2268 59.5358L85.1875 59.4672ZM91.3989 61.1111L91.4673 61.0714L91.467 61.071L91.3989 61.1111ZM92.8799 63.6634L92.8116 63.7031L92.8121 63.704L92.8799 63.6634ZM91.2442 69.7847L91.2057 69.7156L91.2042 69.7165L91.2442 69.7847ZM89.8295 75.1921L89.8971 75.1512L89.8971 75.1512L89.8295 75.1921ZM93.0568 78.2423C92.6318 77.5857 92.0259 76.9257 91.2371 76.5067L91.1629 76.6463C91.9214 77.0492 92.5091 77.687 92.9241 78.3282L93.0568 78.2423ZM93.0155 82.7574C93.8225 81.2879 93.8931 79.6134 93.0579 78.2441L92.923 78.3264C93.7236 79.6391 93.6616 81.2524 92.877 82.6813L93.0155 82.7574ZM91.4668 85.3554L93.0141 82.7598L92.8784 82.6789L91.331 85.2745L91.4668 85.3554ZM87.4864 87.6435C89.084 87.6435 90.635 86.7633 91.467 85.3551L91.3309 85.2747C90.5271 86.6351 89.0277 87.4854 87.4864 87.4854V87.6435ZM85.102 86.983C85.8228 87.4238 86.6994 87.6435 87.4864 87.6435V87.4854C86.726 87.4854 85.8784 87.2725 85.1845 86.8481L85.102 86.983ZM83.198 86.4971C83.8961 86.4971 84.5428 86.6252 85.1007 86.9821L85.1859 86.849C84.5943 86.4705 83.9147 86.339 83.198 86.339V86.4971ZM79.1876 90.3571C79.2526 88.2586 81.0522 86.4971 83.198 86.4971V86.339C80.9671 86.339 79.0973 88.1681 79.0297 90.3522L79.1876 90.3571ZM74.5329 94.8678C77.116 94.8678 79.1877 92.8884 79.1877 90.3547H79.0296C79.0296 92.7959 77.034 94.7098 74.5329 94.7098V94.8678ZM71.5267 94.8678H74.5329V94.7098H71.5267V94.8678ZM66.8499 90.3547C66.8499 92.8886 68.9218 94.8678 71.5267 94.8678V94.7098C69.0033 94.7098 67.0079 92.7956 67.0079 90.3547H66.8499ZM62.8616 86.4971C65.0076 86.4971 66.8066 88.2586 66.8499 90.3563L67.0079 90.3531C66.9628 88.1681 65.0924 86.339 62.8616 86.339V86.4971ZM60.9602 86.9813C61.495 86.6254 62.1408 86.4971 62.8616 86.4971V86.339C62.1235 86.339 61.443 86.4702 60.8726 86.8497L60.9602 86.9813ZM58.5733 87.6435C59.338 87.6435 60.2367 87.4239 60.9576 86.983L60.8751 86.8481C60.1813 87.2724 59.3117 87.4854 58.5733 87.4854V87.6435ZM54.5706 85.3551C55.4027 86.7635 56.9538 87.6435 58.5733 87.6435V87.4854C57.0097 87.4854 55.5103 86.635 54.7067 85.2747L54.5706 85.3551ZM53.0452 82.7594L54.5705 85.355L54.7067 85.2749L53.1815 82.6793L53.0452 82.7594ZM53.0017 78.2441C52.1672 79.6124 52.2142 81.3308 53.0451 82.7591L53.1817 82.6796C52.3768 81.296 52.3354 79.6401 53.1366 78.3264L53.0017 78.2441ZM54.7996 76.5071C54.0364 76.9245 53.3615 77.5837 52.9998 78.2474L53.1386 78.323C53.4842 77.689 54.1356 77.0504 54.8755 76.6458L54.7996 76.5071ZM56.1637 75.1494C55.7901 75.73 55.4019 76.2124 54.8028 76.5055L54.8723 76.6474C55.5111 76.3349 55.9187 75.8223 56.2966 75.2349L56.1637 75.1494ZM54.7533 69.8528C56.5957 70.9345 57.2444 73.3305 56.1622 75.1518L56.2981 75.2325C57.4264 73.3335 56.7488 70.8411 54.8334 69.7165L54.7533 69.8528ZM53.0895 63.6233C51.8074 65.8022 52.527 68.5986 54.7546 69.8535L54.8321 69.7158C52.6829 68.505 51.9878 65.8073 53.2257 63.7035L53.0895 63.6233ZM54.5703 61.0714L53.0892 63.6238L53.2259 63.7031L54.707 61.1508L54.5703 61.0714ZM60.9112 59.3985C58.6629 58.1225 55.8746 58.8928 54.5708 61.0705L54.7064 61.1517C55.9667 59.0467 58.6605 58.3029 60.8332 59.536L60.9112 59.3985ZM66.3531 57.9334C65.2475 59.7365 62.7956 60.4158 60.9097 59.3977L60.8346 59.5368C62.795 60.5951 65.3387 59.8901 66.4879 58.0161L66.3531 57.9334ZM66.85 56.0767C66.8929 56.7057 66.7003 57.3389 66.3522 57.9349L66.4887 58.0146C66.848 57.3994 67.0533 56.7348 67.0077 56.066L66.85 56.0767ZM67.4815 53.7356C67.0531 54.3975 66.8048 55.2141 66.85 56.0755L67.0078 56.0672C66.9645 55.2414 67.2026 54.4574 67.6142 53.8215L67.4815 53.7356ZM71.4583 51.45C69.818 51.494 68.3123 52.3733 67.4804 53.7374L67.6153 53.8197C68.4191 52.5017 69.8755 51.6506 71.4625 51.6081L71.4583 51.45ZM74.5772 51.45H71.4604V51.6081H74.5772V51.45ZM78.5793 53.7374C77.7481 52.3745 76.2424 51.45 74.5772 51.45V51.6081C76.1834 51.6081 77.6398 52.5005 78.4443 53.8197L78.5793 53.7374ZM79.1874 56.0775C79.2554 55.2136 78.9836 54.3968 78.5792 53.7372L78.4444 53.8199C78.8358 54.4581 79.0946 55.242 79.0299 56.0651L79.1874 56.0775ZM79.6853 57.9349C79.3372 57.3389 79.1446 56.7057 79.1875 56.0767L79.0298 56.066C78.9842 56.7348 79.1895 57.3994 79.5488 58.0146L79.6853 57.9349ZM85.1503 59.3975C83.2418 60.4161 80.7899 59.7362 79.6844 57.9334L79.5497 58.0161C80.6989 59.8904 83.2427 60.5948 85.2247 59.5369L85.1503 59.3975ZM91.467 61.071C90.1853 58.8926 87.3744 58.1224 85.1482 59.3987L85.2268 59.5358C87.3773 58.3029 90.0926 59.0468 91.3308 61.1512L91.467 61.071ZM92.9483 63.6238L91.4673 61.0714L91.3306 61.1508L92.8116 63.7031L92.9483 63.6238ZM91.2827 69.8537C93.5325 68.5988 94.2525 65.8021 92.9478 63.6228L92.8121 63.704C94.0715 65.8075 93.3768 68.5047 91.2057 69.7156L91.2827 69.8537ZM89.8971 75.1512C88.7934 73.3301 89.4419 70.9345 91.2842 69.8528L91.2042 69.7165C89.2887 70.8411 88.6108 73.3338 89.7619 75.2331L89.8971 75.1512ZM91.2347 76.5055C90.6359 76.2125 90.2478 75.7303 89.8971 75.1512L89.7619 75.2331C90.1185 75.822 90.5262 76.3348 91.1652 76.6474L91.2347 76.5055ZM73.0513 79.2006C69.6221 79.2006 66.8525 76.5299 66.8525 73.18H66.6945C66.6945 76.6218 69.5395 79.3586 73.0513 79.3586V79.2006ZM79.1837 73.18C79.1837 76.531 76.4793 79.2006 73.0513 79.2006V79.3586C76.5641 79.3586 79.3418 76.6208 79.3418 73.18H79.1837ZM73.0513 67.1377C76.479 67.1377 79.1837 69.8286 79.1837 73.18H79.3418C79.3418 69.7395 76.5645 66.9797 73.0513 66.9797V67.1377ZM66.8525 73.18C66.8525 69.8297 69.6225 67.1377 73.0513 67.1377V66.9797C69.5392 66.9797 66.6945 69.7385 66.6945 73.18H66.8525Z" fill="url(#paint4_linear_1_1497)" mask="url(#path-8-inside-3_1_1497)"/>
</g>
<path fill-rule="evenodd" clip-rule="evenodd" d="M91.2 76.5765C91.9736 76.9874 92.5705 77.6363 92.9905 78.2852C93.8083 79.6263 93.742 81.2701 92.9463 82.7193L91.3989 85.3149C90.581 86.6992 89.0558 87.5644 87.4864 87.5644C86.7127 87.5644 85.8506 87.3481 85.1433 86.9155C84.5685 86.5478 83.9054 86.418 83.198 86.418C81.0097 86.418 79.175 88.2133 79.1086 90.3547C79.1086 92.8421 77.075 94.7888 74.5329 94.7888H71.5267C68.9625 94.7888 66.9289 92.8421 66.9289 90.3547C66.8847 88.2133 65.05 86.418 62.8616 86.418C62.1321 86.418 61.469 86.5478 60.9164 86.9155C60.209 87.3481 59.3248 87.5644 58.5733 87.5644C56.9817 87.5644 55.4565 86.6992 54.6386 85.3149L53.1134 82.7193C52.2955 81.3134 52.2513 79.6263 53.0692 78.2852C53.4228 77.6363 54.086 76.9874 54.8376 76.5765C55.4565 76.2736 55.8544 75.7761 56.2302 75.1921C57.3354 73.332 56.6723 70.8878 54.7933 69.7847C52.605 68.5518 51.8976 65.8048 53.1576 63.6634L54.6386 61.1111C55.9207 58.9697 58.6617 58.2127 60.8722 59.4672C62.7953 60.5055 65.2931 59.8133 66.4205 57.9748C66.7742 57.3691 66.9731 56.7202 66.9289 56.0713C66.8847 55.2278 67.1278 54.4275 67.5478 53.7786C68.3657 52.4375 69.8467 51.5723 71.4604 51.5291H74.5772C76.2129 51.5291 77.6939 52.4375 78.5118 53.7786C78.9097 54.4275 79.175 55.2278 79.1086 56.0713C79.0644 56.7202 79.2634 57.3691 79.6171 57.9748C80.7444 59.8133 83.2422 60.5055 85.1875 59.4672C87.3758 58.2127 90.1389 58.9697 91.3989 61.1111L92.8799 63.6634C94.162 65.8048 93.4547 68.5518 91.2442 69.7847C89.3653 70.8878 88.7021 73.332 89.8295 75.1921C90.1832 75.7761 90.581 76.2736 91.2 76.5765ZM66.7735 73.18C66.7735 76.5759 69.5808 79.2796 73.0513 79.2796C76.5217 79.2796 79.2627 76.5759 79.2627 73.18C79.2627 69.7841 76.5217 67.0587 73.0513 67.0587C69.5808 67.0587 66.7735 69.7841 66.7735 73.18Z" fill="#7CDDAE"/>
<defs>
<filter id="filter0_b_1_1497" x="29.0581" y="29.0581" width="87.5677" height="87.5677" filterUnits="userSpaceOnUse" color-interpolation-filters="sRGB">
<feFlood flood-opacity="0" result="BackgroundImageFix"/>
<feGaussianBlur in="BackgroundImageFix" stdDeviation="2.37097"/>
<feComposite in2="SourceAlpha" operator="in" result="effect1_backgroundBlur_1_1497"/>
<feBlend mode="normal" in="SourceGraphic" in2="effect1_backgroundBlur_1_1497" result="shape"/>
</filter>
<linearGradient id="paint0_linear_1_1497" x1="73.1839" y1="33.8" x2="73.1839" y2="111.884" gradientUnits="userSpaceOnUse">
<stop stop-color="#7CDDAE"/>
<stop offset="1" stop-color="#6FE0EF"/>
</linearGradient>
<linearGradient id="paint1_linear_1_1497" x1="72.8419" y1="33.8" x2="72.8419" y2="111.884" gradientUnits="userSpaceOnUse">
<stop stop-color="#7CDDAE"/>
<stop offset="1" stop-color="#6FE0EF"/>
</linearGradient>
<linearGradient id="paint2_linear_1_1497" x1="73.0258" y1="51.5291" x2="73.0258" y2="94.7888" gradientUnits="userSpaceOnUse">
<stop stop-color="#7CDDAE"/>
<stop offset="1" stop-color="#6FE0EF"/>
</linearGradient>
<linearGradient id="paint3_linear_1_1497" x1="73.0258" y1="51.5291" x2="73.0258" y2="94.7888" gradientUnits="userSpaceOnUse">
<stop stop-color="#7CDDAE"/>
<stop offset="1" stop-color="#6FE0EF"/>
</linearGradient>
<linearGradient id="paint4_linear_1_1497" x1="73.0258" y1="51.5291" x2="73.0258" y2="94.7888" gradientUnits="userSpaceOnUse">
<stop stop-color="#7CDDAE"/>
<stop offset="1" stop-color="#6FE0EF"/>
</linearGradient>
</defs>
</svg>
