<svg width="247" height="247" viewBox="0 0 247 247" fill="none" xmlns="http://www.w3.org/2000/svg">
<g filter="url(#filter0_b_1353_6120)">
<rect width="247" height="247" rx="60" fill="#022128" fill-opacity="0.8"/>
<rect x="0.5" y="0.5" width="246" height="246" rx="59.5" stroke="url(#paint0_linear_1353_6120)"/>
</g>
<g opacity="0.8">
<mask id="path-3-inside-1_1353_6120" fill="white">
<path fill-rule="evenodd" clip-rule="evenodd" d="M180.49 134.232C182.937 135.532 184.825 137.584 186.154 139.637C188.741 143.879 188.531 149.079 186.014 153.663L181.119 161.874C178.532 166.253 173.707 168.989 168.743 168.989C166.295 168.989 163.568 168.305 161.331 166.937C159.513 165.774 157.415 165.363 155.177 165.363C148.255 165.363 142.451 171.042 142.242 177.816C142.242 185.684 135.809 191.842 127.767 191.842H118.258C110.147 191.842 103.714 185.684 103.714 177.816C103.574 171.042 97.7704 165.363 90.8479 165.363C88.5405 165.363 86.4428 165.774 84.6947 166.937C82.4571 168.305 79.6602 168.989 77.2828 168.989C72.2483 168.989 67.4236 166.253 64.8364 161.874L60.0117 153.663C57.4245 149.216 57.2847 143.879 59.8719 139.637C60.9906 137.584 63.0883 135.532 65.4657 134.232C67.4236 133.274 68.6822 131.7 69.8709 129.853C73.3671 123.968 71.2694 116.237 65.3259 112.747C58.4035 108.847 56.1659 100.158 60.1516 93.3842L64.8364 85.3105C68.892 78.5368 77.5625 76.1421 84.5548 80.1105C90.6382 83.3947 98.5395 81.2053 102.106 75.3895C103.224 73.4737 103.854 71.4211 103.714 69.3684C103.574 66.7 104.343 64.1684 105.672 62.1158C108.259 57.8737 112.944 55.1368 118.048 55H127.907C133.082 55 137.767 57.8737 140.354 62.1158C141.612 64.1684 142.451 66.7 142.242 69.3684C142.102 71.4211 142.731 73.4737 143.85 75.3895C147.416 81.2053 155.317 83.3947 161.471 80.1105C168.393 76.1421 177.133 78.5368 181.119 85.3105L185.804 93.3842C189.859 100.158 187.622 108.847 180.63 112.747C174.686 116.237 172.588 123.968 176.154 129.853C177.273 131.7 178.532 133.274 180.49 134.232ZM103.222 123.488C103.222 134.23 112.103 142.782 123.081 142.782C134.059 142.782 142.729 134.23 142.729 123.488C142.729 112.746 134.059 104.125 123.081 104.125C112.103 104.125 103.222 112.746 103.222 123.488Z"/>
</mask>
<path d="M186.154 139.637L187.007 139.116L187 139.105L186.993 139.093L186.154 139.637ZM180.49 134.232L180.959 133.348L180.944 133.341L180.929 133.333L180.49 134.232ZM186.014 153.663L186.873 154.175L186.882 154.16L186.89 154.144L186.014 153.663ZM181.119 161.874L180.26 161.362L180.258 161.365L181.119 161.874ZM161.331 166.937L160.792 167.779L160.8 167.785L160.809 167.79L161.331 166.937ZM142.242 177.816L141.242 177.785L141.242 177.8V177.816H142.242ZM103.714 177.816H104.714V177.805L104.714 177.795L103.714 177.816ZM84.6947 166.937L85.2164 167.79L85.2327 167.78L85.2486 167.769L84.6947 166.937ZM64.8364 161.874L63.9743 162.38L63.9755 162.382L64.8364 161.874ZM60.0117 153.663L59.1473 154.166L59.1496 154.17L60.0117 153.663ZM59.8719 139.637L60.7256 140.158L60.7383 140.137L60.7499 140.115L59.8719 139.637ZM65.4657 134.232L65.0263 133.333L65.0059 133.343L64.986 133.354L65.4657 134.232ZM69.8709 129.853L70.7119 130.394L70.7215 130.379L70.7306 130.363L69.8709 129.853ZM65.3259 112.747L65.8322 111.885L65.8245 111.88L65.8167 111.876L65.3259 112.747ZM60.1516 93.3842L61.0134 93.8913L61.0165 93.8861L60.1516 93.3842ZM64.8364 85.3105L63.9784 84.7968L63.9715 84.8086L64.8364 85.3105ZM84.5548 80.1105L84.0612 80.9802L84.0705 80.9854L84.0798 80.9905L84.5548 80.1105ZM102.106 75.3895L102.958 75.9122L102.964 75.903L102.969 75.8938L102.106 75.3895ZM103.714 69.3684L102.715 69.4208L102.716 69.4286L102.716 69.4364L103.714 69.3684ZM105.672 62.1158L106.511 62.6591L106.518 62.6479L106.525 62.6365L105.672 62.1158ZM118.048 55V54H118.035L118.021 54.0004L118.048 55ZM140.354 62.1158L139.5 62.6365L139.501 62.6385L140.354 62.1158ZM142.242 69.3684L141.245 69.29L141.244 69.3004L142.242 69.3684ZM143.85 75.3895L142.986 75.8938L142.992 75.903L142.997 75.9122L143.85 75.3895ZM161.471 80.1105L161.941 80.9927L161.955 80.9856L161.968 80.9781L161.471 80.1105ZM181.119 85.3105L181.984 84.8086L181.981 84.8034L181.119 85.3105ZM185.804 93.3842L184.939 93.8861L184.946 93.8979L185.804 93.3842ZM180.63 112.747L180.142 111.874L180.133 111.879L180.123 111.885L180.63 112.747ZM176.154 129.853L177.01 129.335L177.01 129.334L176.154 129.853ZM186.993 139.093C185.601 136.943 183.598 134.75 180.959 133.348L180.021 135.115C182.276 136.313 184.048 138.225 185.314 140.18L186.993 139.093ZM186.89 154.144C189.548 149.304 189.813 143.716 187.007 139.116L185.3 140.158C187.669 144.042 187.513 148.854 185.137 153.182L186.89 154.144ZM181.978 162.386L186.873 154.175L185.155 153.151L180.26 161.362L181.978 162.386ZM168.743 169.989C174.063 169.989 179.214 167.064 181.98 162.382L180.258 161.365C177.85 165.442 173.351 167.989 168.743 167.989V169.989ZM160.809 167.79C163.216 169.262 166.126 169.989 168.743 169.989V167.989C166.464 167.989 163.92 167.348 161.852 166.084L160.809 167.79ZM155.177 166.363C157.297 166.363 159.187 166.752 160.792 167.779L161.87 166.094C159.839 164.795 157.533 164.363 155.177 164.363V166.363ZM143.241 177.847C143.434 171.615 148.793 166.363 155.177 166.363V164.363C147.717 164.363 141.469 170.469 141.242 177.785L143.241 177.847ZM127.767 192.842C136.328 192.842 143.242 186.269 143.242 177.816H141.242C141.242 185.099 135.29 190.842 127.767 190.842V192.842ZM118.258 192.842H127.767V190.842H118.258V192.842ZM102.714 177.816C102.714 186.272 109.631 192.842 118.258 192.842V190.842C110.662 190.842 104.714 185.096 104.714 177.816H102.714ZM90.8479 166.363C97.2341 166.363 102.586 171.615 102.714 177.836L104.714 177.795C104.562 170.469 98.3066 164.363 90.8479 164.363V166.363ZM85.2486 167.769C86.7723 166.756 88.6498 166.363 90.8479 166.363V164.363C88.4311 164.363 86.1133 164.792 84.1407 166.104L85.2486 167.769ZM77.2828 169.989C79.8266 169.989 82.8073 169.263 85.2164 167.79L84.1729 166.084C82.1069 167.347 79.4938 167.989 77.2828 167.989V169.989ZM63.9755 162.382C66.7427 167.066 71.8949 169.989 77.2828 169.989V167.989C72.6018 167.989 68.1045 165.439 65.6974 161.365L63.9755 162.382ZM59.1496 154.17L63.9743 162.38L65.6986 161.367L60.8739 153.157L59.1496 154.17ZM59.0181 139.116C56.2202 143.704 56.3954 149.435 59.1473 154.166L60.8761 153.16C58.4537 148.996 58.3492 144.054 60.7256 140.158L59.0181 139.116ZM64.986 133.354C62.4605 134.735 60.2148 136.918 58.9938 139.158L60.7499 140.115C61.7665 138.25 63.7162 136.328 65.9455 135.109L64.986 133.354ZM69.03 129.312C67.8684 131.117 66.7323 132.499 65.0263 133.333L65.9052 135.13C68.1149 134.049 69.496 132.283 70.7119 130.394L69.03 129.312ZM64.8196 113.61C70.3005 116.828 72.2152 123.949 69.0112 129.342L70.7306 130.363C74.519 123.987 72.2382 115.646 65.8322 111.885L64.8196 113.61ZM59.2897 92.8771C55.0247 100.125 57.4174 109.44 64.835 113.619L65.8167 111.876C59.3896 108.255 57.3071 100.19 61.0134 93.8913L59.2897 92.8771ZM63.9715 84.8086L59.2866 92.8823L61.0165 93.8861L65.7014 85.8124L63.9715 84.8086ZM85.0484 79.2408C77.5774 75.0007 68.3094 77.5633 63.9785 84.7968L65.6944 85.8242C69.4746 79.5104 77.5476 77.2835 84.0612 80.9802L85.0484 79.2408ZM101.253 74.8667C97.9624 80.2335 90.6424 82.2606 85.0299 79.2306L84.0798 80.9905C90.6339 84.5289 99.1167 82.1771 102.958 75.9122L101.253 74.8667ZM102.716 69.4364C102.839 71.237 102.29 73.091 101.242 74.8852L102.969 75.8938C104.159 73.8564 104.869 71.6051 104.712 69.3004L102.716 69.4364ZM104.832 61.5724C103.398 63.789 102.564 66.5271 102.715 69.4208L104.712 69.3161C104.584 66.8729 105.289 64.5478 106.511 62.6591L104.832 61.5724ZM118.021 54.0004C112.58 54.1462 107.583 57.0618 104.818 61.5951L106.525 62.6365C108.935 58.6856 113.308 56.1274 118.075 55.9996L118.021 54.0004ZM127.907 54H118.048V56H127.907V54ZM141.207 61.5951C138.452 57.0769 133.455 54 127.907 54V56C132.708 56 137.081 58.6704 139.5 62.6365L141.207 61.5951ZM143.239 69.4468C143.469 66.5202 142.547 63.7804 141.206 61.5931L139.501 62.6385C140.677 64.5565 141.434 66.8798 141.245 69.29L143.239 69.4468ZM144.713 74.8852C143.666 73.091 143.117 71.237 143.239 69.4364L141.244 69.3004C141.087 71.6051 141.797 73.8564 142.986 75.8938L144.713 74.8852ZM161 79.2283C155.312 82.2641 147.991 80.2302 144.702 74.8667L142.997 75.9122C146.841 82.1803 155.323 84.5254 161.941 80.9927L161 79.2283ZM181.981 84.8034C177.72 77.5611 168.375 75 160.973 79.243L161.968 80.9781C168.411 77.2842 176.547 79.5126 180.257 85.8176L181.981 84.8034ZM186.669 92.8823L181.984 84.8086L180.254 85.8124L184.939 93.8861L186.669 92.8823ZM181.117 113.621C188.607 109.443 191.004 100.123 186.662 92.8705L184.946 93.8979C188.715 100.192 186.637 108.252 180.142 111.874L181.117 113.621ZM177.01 129.334C173.744 123.945 175.655 116.828 181.136 113.61L180.123 111.885C173.717 115.646 171.433 123.992 175.299 130.371L177.01 129.334ZM180.929 133.333C179.226 132.5 178.091 131.12 177.01 129.335L175.299 130.371C176.456 132.28 177.838 134.047 180.05 135.13L180.929 133.333ZM123.081 141.782C112.625 141.782 104.222 133.648 104.222 123.488H102.222C102.222 134.812 111.58 143.782 123.081 143.782V141.782ZM141.729 123.488C141.729 133.662 133.522 141.782 123.081 141.782V143.782C134.595 143.782 143.729 134.798 143.729 123.488H141.729ZM123.081 105.125C133.517 105.125 141.729 113.309 141.729 123.488H143.729C143.729 112.182 134.6 103.125 123.081 103.125V105.125ZM104.222 123.488C104.222 113.323 112.63 105.125 123.081 105.125V103.125C111.576 103.125 102.222 112.168 102.222 123.488H104.222Z" fill="url(#paint1_linear_1353_6120)" mask="url(#path-3-inside-1_1353_6120)"/>
</g>
<g opacity="0.6">
<mask id="path-5-inside-2_1353_6120" fill="white">
<path fill-rule="evenodd" clip-rule="evenodd" d="M180.49 134.232C182.937 135.532 184.825 137.584 186.154 139.637C188.741 143.879 188.531 149.079 186.014 153.663L181.119 161.874C178.532 166.253 173.707 168.989 168.743 168.989C166.295 168.989 163.568 168.305 161.331 166.937C159.513 165.774 157.415 165.363 155.177 165.363C148.255 165.363 142.451 171.042 142.242 177.816C142.242 185.684 135.809 191.842 127.767 191.842H118.258C110.147 191.842 103.714 185.684 103.714 177.816C103.574 171.042 97.7704 165.363 90.8479 165.363C88.5405 165.363 86.4428 165.774 84.6947 166.937C82.4571 168.305 79.6602 168.989 77.2828 168.989C72.2483 168.989 67.4236 166.253 64.8364 161.874L60.0117 153.663C57.4245 149.216 57.2847 143.879 59.8719 139.637C60.9906 137.584 63.0883 135.532 65.4657 134.232C67.4236 133.274 68.6822 131.7 69.8709 129.853C73.3671 123.968 71.2694 116.237 65.3259 112.747C58.4035 108.847 56.1659 100.158 60.1516 93.3842L64.8364 85.3105C68.892 78.5368 77.5625 76.1421 84.5548 80.1105C90.6382 83.3947 98.5395 81.2053 102.106 75.3895C103.224 73.4737 103.854 71.4211 103.714 69.3684C103.574 66.7 104.343 64.1684 105.672 62.1158C108.259 57.8737 112.944 55.1368 118.048 55H127.907C133.082 55 137.767 57.8737 140.354 62.1158C141.612 64.1684 142.451 66.7 142.242 69.3684C142.102 71.4211 142.731 73.4737 143.85 75.3895C147.416 81.2053 155.317 83.3947 161.471 80.1105C168.393 76.1421 177.133 78.5368 181.119 85.3105L185.804 93.3842C189.859 100.158 187.622 108.847 180.63 112.747C174.686 116.237 172.588 123.968 176.154 129.853C177.273 131.7 178.532 133.274 180.49 134.232ZM103.222 123.488C103.222 134.23 112.103 142.782 123.081 142.782C134.059 142.782 142.729 134.23 142.729 123.488C142.729 112.746 134.059 104.125 123.081 104.125C112.103 104.125 103.222 112.746 103.222 123.488Z"/>
</mask>
<path d="M186.154 139.637L186.581 139.376L186.573 139.365L186.154 139.637ZM180.49 134.232L180.724 133.79L180.717 133.786L180.709 133.782L180.49 134.232ZM186.014 153.663L186.443 153.919L186.448 153.912L186.452 153.904L186.014 153.663ZM181.119 161.874L180.69 161.618L180.689 161.619L181.119 161.874ZM161.331 166.937L161.061 167.358L161.07 167.363L161.331 166.937ZM142.242 177.816L141.742 177.8L141.742 177.808V177.816H142.242ZM103.714 177.816H104.214L104.214 177.805L103.714 177.816ZM84.6947 166.937L84.9555 167.363L84.9637 167.358L84.9717 167.353L84.6947 166.937ZM64.8364 161.874L64.4053 162.127L64.4059 162.128L64.8364 161.874ZM60.0117 153.663L59.5795 153.915L59.5806 153.916L60.0117 153.663ZM59.8719 139.637L60.2987 139.897L60.3051 139.887L60.3109 139.876L59.8719 139.637ZM65.4657 134.232L65.246 133.782L65.2358 133.787L65.2259 133.793L65.4657 134.232ZM69.8709 129.853L70.2914 130.123L70.2962 130.116L70.3008 130.108L69.8709 129.853ZM65.3259 112.747L65.5791 112.316L65.5713 112.312L65.3259 112.747ZM60.1516 93.3842L60.5825 93.6378L60.584 93.6352L60.1516 93.3842ZM64.8364 85.3105L64.4074 85.0537L64.404 85.0596L64.8364 85.3105ZM84.5548 80.1105L84.308 80.5455L84.3173 80.5505L84.5548 80.1105ZM102.106 75.3895L102.532 75.6509L102.537 75.6416L102.106 75.3895ZM103.714 69.3684L103.214 69.3946L103.215 69.4024L103.714 69.3684ZM105.672 62.1158L106.092 62.3876L106.099 62.3761L105.672 62.1158ZM118.048 55V54.4998L118.035 54.5002L118.048 55ZM140.354 62.1158L139.927 62.3761L139.927 62.3772L140.354 62.1158ZM142.242 69.3684L141.743 69.3292L141.743 69.3344L142.242 69.3684ZM143.85 75.3895L143.418 75.6417L143.424 75.6508L143.85 75.3895ZM161.471 80.1105L161.706 80.5516L161.713 80.5481L161.719 80.5443L161.471 80.1105ZM181.119 85.3105L181.552 85.0596L181.55 85.057L181.119 85.3105ZM185.804 93.3842L185.371 93.6352L185.375 93.6411L185.804 93.3842ZM180.63 112.747L180.386 112.311L180.376 112.316L180.63 112.747ZM176.154 129.853L176.582 129.594L176.582 129.593L176.154 129.853ZM186.573 139.365C185.213 137.264 183.268 135.141 180.724 133.79L180.255 134.673C182.606 135.922 184.437 137.905 185.734 139.909L186.573 139.365ZM186.452 153.904C189.04 149.191 189.277 143.797 186.58 139.376L185.727 139.897C188.205 143.96 188.022 148.967 185.575 153.422L186.452 153.904ZM181.549 162.13L186.443 153.919L185.584 153.407L180.69 161.618L181.549 162.13ZM168.743 169.489C173.885 169.489 178.873 166.658 181.55 162.128L180.689 161.619C178.191 165.847 173.529 168.489 168.743 168.489V169.489ZM161.07 167.363C163.392 168.784 166.211 169.489 168.743 169.489V168.489C166.38 168.489 163.744 167.827 161.592 166.51L161.07 167.363ZM155.177 165.863C157.356 165.863 159.35 166.263 161.061 167.358L161.6 166.516C159.676 165.284 157.474 164.863 155.177 164.863V165.863ZM142.741 177.831C142.943 171.328 148.524 165.863 155.177 165.863V164.863C147.986 164.863 141.96 170.756 141.742 177.8L142.741 177.831ZM127.767 192.342C136.068 192.342 142.742 185.977 142.742 177.816H141.742C141.742 185.392 135.549 191.342 127.767 191.342V192.342ZM118.258 192.342H127.767V191.342H118.258V192.342ZM103.214 177.816C103.214 185.978 109.889 192.342 118.258 192.342V191.342C110.405 191.342 104.214 185.39 104.214 177.816H103.214ZM90.8479 165.863C97.5022 165.863 103.08 171.328 103.214 177.826L104.214 177.805C104.068 170.756 98.0385 164.863 90.8479 164.863V165.863ZM84.9717 167.353C86.6075 166.265 88.5951 165.863 90.8479 165.863V164.863C88.4858 164.863 86.278 165.283 84.4177 166.521L84.9717 167.353ZM77.2828 169.489C79.7434 169.489 82.6322 168.784 84.9555 167.363L84.4338 166.51C82.282 167.826 79.577 168.489 77.2828 168.489V169.489ZM64.4059 162.128C67.0831 166.659 72.0716 169.489 77.2828 169.489V168.489C72.425 168.489 67.7641 165.846 65.2669 161.619L64.4059 162.128ZM59.5806 153.916L64.4053 162.127L65.2675 161.62L60.4428 153.41L59.5806 153.916ZM59.445 139.376C56.7524 143.791 56.91 149.326 59.5795 153.915L60.4439 153.412C57.9391 149.106 57.817 143.966 60.2987 139.897L59.445 139.376ZM65.2259 133.793C62.7744 135.133 60.6027 137.251 59.4328 139.398L60.3109 139.876C61.3786 137.917 63.4023 135.93 65.7056 134.67L65.2259 133.793ZM69.4504 129.582C68.2753 131.408 67.0779 132.886 65.246 133.782L65.6855 134.681C67.7693 133.661 69.0891 131.992 70.2914 130.123L69.4504 129.582ZM65.0727 113.179C70.785 116.532 72.7911 123.959 69.4411 129.597L70.3008 130.108C73.943 123.978 71.7538 115.941 65.579 112.316L65.0727 113.179ZM59.7206 93.1306C55.5953 100.142 57.9104 109.143 65.0805 113.183L65.5713 112.312C58.8965 108.551 56.7365 100.174 60.5825 93.6378L59.7206 93.1306ZM64.404 85.0596L59.7191 93.1333L60.584 93.6352L65.2689 85.5615L64.404 85.0596ZM84.8016 79.6757C77.5699 75.5714 68.6007 78.05 64.4074 85.0537L65.2654 85.5674C69.1833 79.0236 77.555 76.7128 84.308 80.5454L84.8016 79.6757ZM101.679 75.1281C98.2509 80.7194 90.6403 82.8277 84.7924 79.6705L84.3173 80.5505C90.6361 83.9618 98.8281 81.6912 102.532 75.6508L101.679 75.1281ZM103.215 69.4024C103.346 71.329 102.757 73.2823 101.674 75.1373L102.537 75.6416C103.692 73.665 104.361 71.5131 104.213 69.3344L103.215 69.4024ZM105.252 61.8441C103.87 63.9787 103.069 66.6136 103.215 69.3946L104.213 69.3423C104.079 66.7864 104.816 64.3581 106.091 62.3875L105.252 61.8441ZM118.035 54.5002C112.762 54.6415 107.921 57.4677 105.245 61.8554L106.099 62.3761C108.597 58.2796 113.126 55.6321 118.062 55.4998L118.035 54.5002ZM127.907 54.5H118.048V55.5H127.907V54.5ZM140.781 61.8554C138.109 57.4753 133.268 54.5 127.907 54.5V55.5C132.895 55.5 137.424 58.2721 139.927 62.3761L140.781 61.8554ZM142.74 69.4076C142.96 66.6101 142.08 63.9744 140.78 61.8544L139.927 62.3772C141.145 64.3625 141.943 66.7899 141.743 69.3292L142.74 69.4076ZM144.282 75.1373C143.198 73.2823 142.609 71.329 142.74 69.4024L141.743 69.3344C141.594 71.5131 142.264 73.665 143.418 75.6416L144.282 75.1373ZM161.235 79.6694C155.315 82.8294 147.704 80.7177 144.276 75.1281L143.424 75.6508C147.128 81.6928 155.32 83.9601 161.706 80.5516L161.235 79.6694ZM181.55 85.057C177.426 78.049 168.384 75.5711 161.222 79.6767L161.719 80.5443C168.402 76.7131 176.84 79.0247 180.688 85.5641L181.55 85.057ZM186.236 93.1333L181.552 85.0596L180.687 85.5615L185.371 93.6352L186.236 93.1333ZM180.873 113.184C188.114 109.145 190.432 100.141 186.233 93.1274L185.375 93.6411C189.287 100.175 187.129 108.55 180.386 112.311L180.873 113.184ZM176.582 129.593C173.166 123.957 175.171 116.532 180.883 113.179L180.376 112.316C174.202 115.941 172.011 123.98 175.727 130.112L176.582 129.593ZM180.709 133.782C178.879 132.887 177.682 131.41 176.582 129.594L175.727 130.112C176.864 131.99 178.185 133.661 180.27 134.681L180.709 133.782ZM123.081 142.282C112.364 142.282 103.722 133.939 103.722 123.488H102.722C102.722 134.521 111.841 143.282 123.081 143.282V142.282ZM142.229 123.488C142.229 133.946 133.79 142.282 123.081 142.282V143.282C134.327 143.282 143.229 134.514 143.229 123.488H142.229ZM123.081 104.625C133.788 104.625 142.229 113.027 142.229 123.488H143.229C143.229 112.464 134.329 103.625 123.081 103.625V104.625ZM103.722 123.488C103.722 113.034 112.366 104.625 123.081 104.625V103.625C111.839 103.625 102.722 112.457 102.722 123.488H103.722Z" fill="url(#paint2_linear_1353_6120)" mask="url(#path-5-inside-2_1353_6120)"/>
</g>
<g opacity="0.4">
<mask id="path-7-inside-3_1353_6120" fill="white">
<path fill-rule="evenodd" clip-rule="evenodd" d="M180.49 134.232C182.937 135.532 184.825 137.584 186.154 139.637C188.741 143.879 188.531 149.079 186.014 153.663L181.119 161.874C178.532 166.253 173.707 168.989 168.743 168.989C166.295 168.989 163.568 168.305 161.331 166.937C159.513 165.774 157.415 165.363 155.177 165.363C148.255 165.363 142.451 171.042 142.242 177.816C142.242 185.684 135.809 191.842 127.767 191.842H118.258C110.147 191.842 103.714 185.684 103.714 177.816C103.574 171.042 97.7704 165.363 90.8479 165.363C88.5405 165.363 86.4428 165.774 84.6947 166.937C82.4571 168.305 79.6602 168.989 77.2828 168.989C72.2483 168.989 67.4236 166.253 64.8364 161.874L60.0117 153.663C57.4245 149.216 57.2847 143.879 59.8719 139.637C60.9906 137.584 63.0883 135.532 65.4657 134.232C67.4236 133.274 68.6822 131.7 69.8709 129.853C73.3671 123.968 71.2694 116.237 65.3259 112.747C58.4035 108.847 56.1659 100.158 60.1516 93.3842L64.8364 85.3105C68.892 78.5368 77.5625 76.1421 84.5548 80.1105C90.6382 83.3947 98.5395 81.2053 102.106 75.3895C103.224 73.4737 103.854 71.4211 103.714 69.3684C103.574 66.7 104.343 64.1684 105.672 62.1158C108.259 57.8737 112.944 55.1368 118.048 55H127.907C133.082 55 137.767 57.8737 140.354 62.1158C141.612 64.1684 142.451 66.7 142.242 69.3684C142.102 71.4211 142.731 73.4737 143.85 75.3895C147.416 81.2053 155.317 83.3947 161.471 80.1105C168.393 76.1421 177.133 78.5368 181.119 85.3105L185.804 93.3842C189.859 100.158 187.622 108.847 180.63 112.747C174.686 116.237 172.588 123.968 176.154 129.853C177.273 131.7 178.532 133.274 180.49 134.232ZM103.222 123.488C103.222 134.23 112.103 142.782 123.081 142.782C134.059 142.782 142.729 134.23 142.729 123.488C142.729 112.746 134.059 104.125 123.081 104.125C112.103 104.125 103.222 112.746 103.222 123.488Z"/>
</mask>
<path d="M186.154 139.637L186.367 139.507L186.363 139.501L186.154 139.637ZM180.49 134.232L180.607 134.011L180.6 134.007L180.49 134.232ZM186.014 153.663L186.229 153.791L186.233 153.783L186.014 153.663ZM181.119 161.874L180.904 161.746L180.904 161.747L181.119 161.874ZM161.331 166.937L161.196 167.147L161.2 167.15L161.331 166.937ZM142.242 177.816L141.992 177.808V177.816H142.242ZM103.714 177.816H103.964L103.964 177.811L103.714 177.816ZM84.6947 166.937L84.8252 167.15L84.8332 167.145L84.6947 166.937ZM64.8364 161.874L64.6209 162L64.6212 162.001L64.8364 161.874ZM60.0117 153.663L59.7956 153.789L59.7962 153.79L60.0117 153.663ZM59.8719 139.637L60.0856 139.767L60.0914 139.756L59.8719 139.637ZM65.4657 134.232L65.3558 134.007L65.3458 134.012L65.4657 134.232ZM69.8709 129.853L70.0813 129.988L70.0858 129.98L69.8709 129.853ZM65.3259 112.747L65.4525 112.532L65.4486 112.53L65.3259 112.747ZM60.1516 93.3842L60.367 93.511L60.3678 93.5097L60.1516 93.3842ZM64.8364 85.3105L64.6219 85.1821L64.6202 85.1851L64.8364 85.3105ZM84.5548 80.1105L84.4314 80.328L84.4361 80.3305L84.5548 80.1105ZM102.106 75.3895L102.319 75.5202L102.321 75.5155L102.106 75.3895ZM103.714 69.3684L103.464 69.3815L103.464 69.3854L103.714 69.3684ZM105.672 62.1158L105.882 62.2517L105.885 62.246L105.672 62.1158ZM118.048 55V54.7499L118.041 54.7501L118.048 55ZM140.354 62.1158L140.14 62.246L140.141 62.2465L140.354 62.1158ZM142.242 69.3684L141.992 69.3488L141.992 69.3514L142.242 69.3684ZM143.85 75.3895L143.634 75.5156L143.637 75.5202L143.85 75.3895ZM161.471 80.1105L161.588 80.3312L161.595 80.3274L161.471 80.1105ZM181.119 85.3105L181.335 85.185L181.335 85.1837L181.119 85.3105ZM185.804 93.3842L185.588 93.5097L185.589 93.5126L185.804 93.3842ZM180.63 112.747L180.508 112.529L180.503 112.532L180.63 112.747ZM176.154 129.853L176.368 129.723L176.368 129.723L176.154 129.853ZM186.363 139.501C185.019 137.424 183.102 135.336 180.607 134.011L180.372 134.452C182.772 135.727 184.631 137.744 185.944 139.773L186.363 139.501ZM186.233 153.783C188.785 149.135 189.009 143.838 186.367 139.507L185.94 139.767C188.473 143.92 188.277 149.023 185.795 153.543L186.233 153.783ZM181.334 162.002L186.228 153.791L185.799 153.535L180.904 161.746L181.334 162.002ZM168.743 169.239C173.796 169.239 178.702 166.455 181.334 162.001L180.904 161.747C178.361 166.05 173.618 168.739 168.743 168.739V169.239ZM161.2 167.15C163.48 168.544 166.253 169.239 168.743 169.239V168.739C166.338 168.739 163.656 168.066 161.461 166.724L161.2 167.15ZM155.177 165.613C157.386 165.613 159.431 166.018 161.196 167.147L161.465 166.726C159.594 165.529 157.445 165.113 155.177 165.113V165.613ZM142.492 177.824C142.697 171.185 148.39 165.613 155.177 165.613V165.113C148.12 165.113 142.206 170.899 141.992 177.808L142.492 177.824ZM127.767 192.092C135.938 192.092 142.492 185.83 142.492 177.816H141.992C141.992 185.538 135.679 191.592 127.767 191.592V192.092ZM118.258 192.092H127.767V191.592H118.258V192.092ZM103.464 177.816C103.464 185.831 110.018 192.092 118.258 192.092V191.592C110.276 191.592 103.964 185.537 103.964 177.816H103.464ZM90.8479 165.613C97.6363 165.613 103.327 171.185 103.464 177.821L103.964 177.811C103.821 170.899 97.9044 165.113 90.8479 165.113V165.613ZM84.8332 167.145C86.5251 166.019 88.5678 165.613 90.8479 165.613V165.113C88.5131 165.113 86.3604 165.528 84.5562 166.729L84.8332 167.145ZM77.2828 169.239C79.7018 169.239 82.5447 168.545 84.8251 167.15L84.5642 166.724C82.3696 168.066 79.6186 168.739 77.2828 168.739V169.239ZM64.6212 162.001C67.2534 166.456 72.1599 169.239 77.2828 169.239V168.739C72.3367 168.739 67.5938 166.049 65.0517 161.747L64.6212 162.001ZM59.7962 153.79L64.6209 162L65.052 161.747L60.2273 153.536L59.7962 153.79ZM59.6584 139.507C57.0186 143.835 57.1673 149.271 59.7956 153.789L60.2278 153.537C57.6818 149.161 57.5508 143.923 60.0853 139.767L59.6584 139.507ZM65.3458 134.012C62.9314 135.332 60.7967 137.418 59.6524 139.517L60.0914 139.756C61.1846 137.751 63.2453 135.731 65.5857 134.451L65.3458 134.012ZM69.6607 129.717C68.4788 131.554 67.2508 133.08 65.3559 134.007L65.5756 134.456C67.5964 133.467 68.8857 131.846 70.0812 129.988L69.6607 129.717ZM65.1993 112.963C71.0272 116.385 73.0791 123.964 69.656 129.725L70.0858 129.98C73.6551 123.973 71.5116 116.089 65.4525 112.532L65.1993 112.963ZM59.9361 93.2574C55.8806 100.15 58.157 108.995 65.2032 112.965L65.4486 112.53C58.65 108.699 56.4512 100.166 60.367 93.511L59.9361 93.2574ZM64.6202 85.1851L59.9353 93.2587L60.3678 93.5097L65.0527 85.436L64.6202 85.1851ZM84.6782 79.8931C77.5662 75.8568 68.7463 78.2934 64.6219 85.1821L65.0509 85.4389C69.0376 78.7802 77.5588 76.4274 84.4314 80.3279L84.6782 79.8931ZM101.892 75.2588C98.3952 80.9623 90.6392 83.1112 84.6736 79.8905L84.4361 80.3305C90.6371 83.6783 98.6838 81.4482 102.319 75.5202L101.892 75.2588ZM103.464 69.3854C103.6 71.375 102.991 73.378 101.89 75.2634L102.321 75.5155C103.458 73.5694 104.107 71.4671 103.963 69.3514L103.464 69.3854ZM105.462 61.9799C104.107 64.0736 103.321 66.6568 103.464 69.3815L103.963 69.3553C103.827 66.7432 104.58 64.2633 105.882 62.2516L105.462 61.9799ZM118.041 54.7501C112.853 54.8892 108.09 57.6707 105.458 61.9856L105.885 62.246C108.428 58.0767 113.035 55.3845 118.055 55.2499L118.041 54.7501ZM127.907 54.75H118.048V55.25H127.907V54.75ZM140.567 61.9856C137.938 57.6745 133.175 54.75 127.907 54.75V55.25C132.988 55.25 137.595 58.0729 140.14 62.246L140.567 61.9856ZM142.491 69.388C142.706 66.6551 141.846 64.0714 140.567 61.9851L140.141 62.2465C141.379 64.2654 142.197 66.7449 141.992 69.3488L142.491 69.388ZM144.066 75.2634C142.965 73.378 142.355 71.375 142.491 69.3854L141.992 69.3514C141.848 71.4671 142.497 73.5694 143.634 75.5155L144.066 75.2634ZM161.353 79.89C155.316 83.1121 147.56 80.9615 144.063 75.2588L143.637 75.5202C147.272 81.449 155.319 83.6774 161.588 80.3311L161.353 79.89ZM181.335 85.1837C177.28 78.2929 168.388 75.8566 161.346 79.8936L161.595 80.3274C168.398 76.4276 176.987 78.7808 180.904 85.4373L181.335 85.1837ZM186.02 93.2587L181.335 85.1851L180.903 85.436L185.588 93.5097L186.02 93.2587ZM180.751 112.966C187.868 108.996 190.146 100.149 186.018 93.2558L185.589 93.5126C189.573 100.166 187.376 108.698 180.508 112.529L180.751 112.966ZM176.368 129.723C172.877 123.963 174.928 116.385 180.756 112.963L180.503 112.532C174.444 116.089 172.3 123.974 175.941 129.982L176.368 129.723ZM180.6 134.007C178.705 133.08 177.478 131.555 176.368 129.723L175.941 129.982C177.069 131.845 178.358 133.467 180.38 134.456L180.6 134.007ZM123.081 142.532C112.233 142.532 103.472 134.084 103.472 123.488H102.972C102.972 134.375 111.972 143.032 123.081 143.032V142.532ZM142.479 123.488C142.479 134.088 133.924 142.532 123.081 142.532V143.032C134.193 143.032 142.979 134.372 142.979 123.488H142.479ZM123.081 104.375C133.923 104.375 142.479 112.886 142.479 123.488H142.979C142.979 112.605 134.194 103.875 123.081 103.875V104.375ZM103.472 123.488C103.472 112.89 112.234 104.375 123.081 104.375V103.875C111.971 103.875 102.972 112.601 102.972 123.488H103.472Z" fill="url(#paint3_linear_1353_6120)" mask="url(#path-7-inside-3_1353_6120)"/>
</g>
<path fill-rule="evenodd" clip-rule="evenodd" d="M180.49 134.232C182.937 135.532 184.825 137.584 186.154 139.637C188.741 143.879 188.531 149.079 186.014 153.663L181.119 161.874C178.532 166.253 173.707 168.989 168.743 168.989C166.295 168.989 163.568 168.305 161.331 166.937C159.513 165.774 157.415 165.363 155.177 165.363C148.255 165.363 142.451 171.042 142.242 177.816C142.242 185.684 135.809 191.842 127.767 191.842H118.258C110.147 191.842 103.714 185.684 103.714 177.816C103.574 171.042 97.7704 165.363 90.8479 165.363C88.5405 165.363 86.4428 165.774 84.6947 166.937C82.4571 168.305 79.6602 168.989 77.2828 168.989C72.2483 168.989 67.4236 166.253 64.8364 161.874L60.0117 153.663C57.4245 149.216 57.2847 143.879 59.8719 139.637C60.9906 137.584 63.0883 135.532 65.4657 134.232C67.4236 133.274 68.6822 131.7 69.8709 129.853C73.3671 123.968 71.2694 116.237 65.3259 112.747C58.4035 108.847 56.1659 100.158 60.1516 93.3842L64.8364 85.3105C68.892 78.5368 77.5625 76.1421 84.5548 80.1105C90.6382 83.3947 98.5395 81.2053 102.106 75.3895C103.224 73.4737 103.854 71.4211 103.714 69.3684C103.574 66.7 104.343 64.1684 105.672 62.1158C108.259 57.8737 112.944 55.1368 118.048 55H127.907C133.082 55 137.767 57.8737 140.354 62.1158C141.612 64.1684 142.451 66.7 142.242 69.3684C142.102 71.4211 142.731 73.4737 143.85 75.3895C147.416 81.2053 155.317 83.3947 161.471 80.1105C168.393 76.1421 177.133 78.5368 181.119 85.3105L185.804 93.3842C189.859 100.158 187.622 108.847 180.63 112.747C174.686 116.237 172.588 123.968 176.154 129.853C177.273 131.7 178.532 133.274 180.49 134.232ZM103.222 123.488C103.222 134.23 112.103 142.782 123.081 142.782C134.059 142.782 142.729 134.23 142.729 123.488C142.729 112.746 134.059 104.125 123.081 104.125C112.103 104.125 103.222 112.746 103.222 123.488Z" fill="#7CDDAE"/>
<defs>
<filter id="filter0_b_1353_6120" x="-15" y="-15" width="277" height="277" filterUnits="userSpaceOnUse" color-interpolation-filters="sRGB">
<feFlood flood-opacity="0" result="BackgroundImageFix"/>
<feGaussianBlur in="BackgroundImageFix" stdDeviation="7.5"/>
<feComposite in2="SourceAlpha" operator="in" result="effect1_backgroundBlur_1353_6120"/>
<feBlend mode="normal" in="SourceGraphic" in2="effect1_backgroundBlur_1353_6120" result="shape"/>
</filter>
<linearGradient id="paint0_linear_1353_6120" x1="123.5" y1="0" x2="123.5" y2="247" gradientUnits="userSpaceOnUse">
<stop stop-color="#7CDDAE"/>
<stop offset="1" stop-color="#6FE0EF"/>
</linearGradient>
<linearGradient id="paint1_linear_1353_6120" x1="123" y1="55" x2="123" y2="191.842" gradientUnits="userSpaceOnUse">
<stop stop-color="#7CDDAE"/>
<stop offset="1" stop-color="#6FE0EF"/>
</linearGradient>
<linearGradient id="paint2_linear_1353_6120" x1="123" y1="55" x2="123" y2="191.842" gradientUnits="userSpaceOnUse">
<stop stop-color="#7CDDAE"/>
<stop offset="1" stop-color="#6FE0EF"/>
</linearGradient>
<linearGradient id="paint3_linear_1353_6120" x1="123" y1="55" x2="123" y2="191.842" gradientUnits="userSpaceOnUse">
<stop stop-color="#7CDDAE"/>
<stop offset="1" stop-color="#6FE0EF"/>
</linearGradient>
</defs>
</svg>
