<svg width="269" height="270" viewBox="0 0 269 270" fill="none" xmlns="http://www.w3.org/2000/svg">
<rect opacity="0.4" x="0.5" y="23.5" width="246" height="246" rx="59.5" fill="#7CDDAE" stroke="url(#paint0_linear_1353_6117)"/>
<g filter="url(#filter0_b_1353_6117)">
<rect x="22" width="247" height="247" rx="60" fill="#022128" fill-opacity="0.8"/>
<rect x="22.5" y="0.5" width="246" height="246" rx="59.5" stroke="url(#paint1_linear_1353_6117)"/>
</g>
<g opacity="0.8">
<mask id="path-4-inside-1_1353_6117" fill="white">
<path fill-rule="evenodd" clip-rule="evenodd" d="M96.7053 156.428C94.0555 157.239 91.2691 157.123 88.8782 156.611C84.0492 155.441 80.5206 151.615 79.059 146.594L76.7143 137.327C75.4474 132.401 76.9237 127.054 80.4342 123.544C82.1647 121.813 84.5768 120.369 87.1266 119.754C89.2346 119.291 91.0082 118.098 92.5904 116.516C97.4853 111.621 97.5734 103.502 92.9321 98.5638C87.3682 93 87.5627 84.0969 93.2487 78.4109L99.973 71.6866C105.708 65.9512 114.611 65.7567 120.175 71.3205C125.064 76.0114 133.183 75.9232 138.078 71.0283C139.71 69.3967 140.903 67.6231 141.316 65.5645C141.931 63.0147 143.425 60.5532 145.106 58.8721C148.666 55.3122 154.013 53.8358 158.939 55.1028L168.156 57.497C173.13 58.8123 177.003 62.4871 178.173 67.3162C178.833 69.5587 178.801 72.4934 178.039 75.0937C177.332 77.1555 177.555 79.1582 178.021 81.3051C179.71 87.938 186.66 91.9217 193.33 90.1865C200.983 88.0493 208.709 92.6115 210.681 100.219L213.077 109.241C214.999 116.899 210.561 124.723 202.811 126.861C196.187 128.84 192.148 135.976 193.739 142.61C194.302 144.755 195.309 146.652 196.859 148.004C198.845 149.792 200.091 152.126 200.603 154.517C201.773 159.346 200.396 164.594 196.883 168.3L189.912 175.272C186.253 178.931 180.908 180.211 176.079 179.041C173.738 178.48 171.354 177.283 169.616 175.248C168.263 173.697 166.367 172.691 164.221 172.127C157.587 170.537 150.452 174.575 148.423 181.249C146.334 188.95 138.461 193.437 130.853 191.465L121.831 189.069C114.174 187.147 109.611 179.421 111.798 171.718C113.533 165.048 109.549 158.098 102.867 156.459C100.77 155.944 98.767 155.721 96.7053 156.428ZM158.939 109.389C151.343 101.793 139.016 102.025 131.253 109.787C123.491 117.55 123.407 129.728 131.003 137.324C138.599 144.92 150.826 144.885 158.589 137.122C166.351 129.36 166.534 116.985 158.939 109.389Z"/>
</mask>
<path d="M88.8782 156.611L88.6427 157.583L88.6557 157.586L88.6688 157.589L88.8782 156.611ZM96.7053 156.428L96.998 157.384L97.0139 157.379L97.0297 157.374L96.7053 156.428ZM79.059 146.594L78.0896 146.839L78.0939 146.856L78.0989 146.873L79.059 146.594ZM76.7143 137.327L77.6838 137.082L77.6828 137.078L76.7143 137.327ZM87.1266 119.754L86.9121 118.778L86.9021 118.78L86.8923 118.782L87.1266 119.754ZM92.9321 98.5638L93.6607 97.8789L93.6501 97.8676L93.6392 97.8567L92.9321 98.5638ZM120.175 71.3205L119.468 72.0276L119.476 72.0349L119.483 72.0421L120.175 71.3205ZM141.316 65.5645L140.344 65.3302L140.34 65.3488L140.336 65.3676L141.316 65.5645ZM158.939 55.1028L159.19 54.1349L159.188 54.1343L158.939 55.1028ZM168.156 57.497L168.412 56.5302L168.407 56.5291L168.156 57.497ZM178.173 67.3162L177.201 67.5517L177.207 67.5753L177.214 67.5986L178.173 67.3162ZM178.039 75.0937L178.985 75.4181L178.993 75.3967L178.999 75.3749L178.039 75.0937ZM178.021 81.3051L177.044 81.5171L177.047 81.5345L177.052 81.5518L178.021 81.3051ZM193.33 90.1865L193.582 91.1543L193.59 91.152L193.599 91.1496L193.33 90.1865ZM210.681 100.219L209.713 100.47L209.714 100.476L210.681 100.219ZM213.077 109.241L214.047 108.998L214.043 108.984L213.077 109.241ZM202.811 126.861L202.545 125.897L202.535 125.9L202.525 125.903L202.811 126.861ZM193.739 142.61L192.766 142.843L192.769 142.853L192.772 142.864L193.739 142.61ZM196.859 148.004L197.528 147.261L197.522 147.256L197.517 147.251L196.859 148.004ZM200.603 154.517L199.625 154.727L199.628 154.74L199.631 154.753L200.603 154.517ZM196.883 168.3L197.59 169.007L197.6 168.998L197.609 168.988L196.883 168.3ZM189.912 175.272L189.205 174.565L189.912 175.272ZM176.079 179.041L176.315 178.069L176.312 178.069L176.079 179.041ZM169.616 175.248L170.376 174.598L170.369 174.59L169.616 175.248ZM164.221 172.127L164.475 171.16L164.465 171.157L164.454 171.155L164.221 172.127ZM148.423 181.249L147.466 180.958L147.462 180.972L147.458 180.987L148.423 181.249ZM130.853 191.465L130.596 192.432L130.602 192.433L130.853 191.465ZM121.831 189.069L122.088 188.103L122.074 188.099L121.831 189.069ZM111.798 171.718L112.76 171.992L112.763 171.981L112.766 171.97L111.798 171.718ZM102.867 156.459L102.629 157.43L102.629 157.43L102.867 156.459ZM88.6688 157.589C91.1731 158.125 94.1404 158.259 96.998 157.384L96.4125 155.472C93.9706 156.219 91.3651 156.121 89.0876 155.633L88.6688 157.589ZM78.0989 146.873C79.6423 152.176 83.4065 156.314 88.6427 157.583L89.1138 155.639C84.692 154.567 81.3989 151.055 80.0192 146.314L78.0989 146.873ZM75.7449 137.572L78.0896 146.839L80.0285 146.349L77.6838 137.082L75.7449 137.572ZM79.7271 122.837C75.9648 126.599 74.3914 132.31 75.7459 137.576L77.6828 137.078C76.5033 132.492 77.8826 127.51 81.1413 124.251L79.7271 122.837ZM86.8923 118.782C84.1492 119.443 81.577 120.987 79.7271 122.837L81.1413 124.251C82.7524 122.64 85.0044 121.295 87.3609 120.727L86.8923 118.782ZM91.8833 115.809C90.3845 117.308 88.7731 118.369 86.9121 118.778L87.3411 120.731C89.6961 120.214 91.6319 118.889 93.2975 117.223L91.8833 115.809ZM92.2034 99.2487C96.4735 103.792 96.3975 111.295 91.8833 115.809L93.2975 117.223C98.5731 111.948 98.6734 103.212 93.6607 97.8789L92.2034 99.2487ZM92.5416 77.7038C86.4888 83.7567 86.2474 93.2933 92.2249 99.2709L93.6392 97.8567C88.4891 92.7066 88.6367 84.4372 93.9558 79.118L92.5416 77.7038ZM99.2659 70.9795L92.5416 77.7038L93.9558 79.118L100.68 72.3937L99.2659 70.9795ZM120.882 70.6134C114.903 64.6337 105.366 64.8795 99.2659 70.9795L100.68 72.3937C106.051 67.0229 114.32 66.8798 119.468 72.0276L120.882 70.6134ZM137.371 70.3212C132.855 74.8369 125.358 74.9075 120.868 70.599L119.483 72.0421C124.77 77.1153 133.511 77.0095 138.785 71.7354L137.371 70.3212ZM140.336 65.3676C139.976 67.1618 138.925 68.7669 137.371 70.3212L138.785 71.7354C140.494 70.0265 141.83 68.0844 142.297 65.7615L140.336 65.3676ZM144.399 58.165C142.6 59.9637 141.006 62.5849 140.344 65.3302L142.289 65.7988C142.856 63.4445 144.25 61.1426 145.813 59.5792L144.399 58.165ZM159.188 54.1343C153.919 52.7792 148.209 54.3552 144.399 58.165L145.813 59.5792C149.123 56.2692 154.106 54.8925 158.689 56.0713L159.188 54.1343ZM168.407 56.5291L159.19 54.1349L158.687 56.0707L167.904 58.4648L168.407 56.5291ZM179.145 67.0807C177.879 61.8582 173.703 57.9293 168.412 56.5302L167.9 58.4637C172.558 59.6953 176.126 63.1161 177.201 67.5517L179.145 67.0807ZM178.999 75.3749C179.808 72.6126 179.853 69.4811 179.132 67.0337L177.214 67.5986C177.814 69.6363 177.794 72.3742 177.08 74.8126L178.999 75.3749ZM178.998 81.093C178.543 78.9953 178.369 77.2147 178.985 75.4181L177.094 74.7693C176.296 77.0963 176.567 79.3212 177.044 81.5171L178.998 81.093ZM193.078 89.2187C186.927 90.8189 180.537 87.1369 178.99 81.0583L177.052 81.5518C178.882 88.7391 186.393 93.0246 193.582 91.1543L193.078 89.2187ZM211.649 99.9686C209.539 91.8275 201.261 86.9333 193.061 89.2233L193.599 91.1496C200.704 89.1654 207.879 93.3955 209.713 100.47L211.649 99.9686ZM214.043 108.984L211.647 99.9628L209.714 100.476L212.11 109.498L214.043 108.984ZM203.077 127.825C211.358 125.54 216.099 117.175 214.047 108.998L212.107 109.485C213.898 116.622 209.765 123.905 202.545 125.897L203.077 127.825ZM194.711 142.376C193.243 136.255 196.986 129.645 203.097 127.819L202.525 125.903C195.388 128.035 191.053 135.697 192.766 142.843L194.711 142.376ZM197.517 147.251C196.157 146.064 195.234 144.365 194.706 142.356L192.772 142.864C193.371 145.146 194.461 147.239 196.202 148.758L197.517 147.251ZM201.581 154.308C201.028 151.726 199.682 149.2 197.528 147.261L196.19 148.748C198.008 150.385 199.154 152.527 199.625 154.727L201.581 154.308ZM197.609 168.988C201.354 165.037 202.826 159.442 201.575 154.282L199.631 154.753C200.721 159.25 199.438 164.151 196.158 167.612L197.609 168.988ZM190.619 175.979L197.59 169.007L196.176 167.593L189.205 174.565L190.619 175.979ZM175.844 180.013C180.987 181.259 186.696 179.902 190.619 175.979L189.205 174.565C185.81 177.96 180.83 179.163 176.315 178.069L175.844 180.013ZM168.856 175.897C170.762 178.129 173.351 179.415 175.846 180.014L176.312 178.069C174.125 177.544 171.947 176.436 170.376 174.598L168.856 175.897ZM163.967 173.095C165.977 173.622 167.676 174.545 168.862 175.905L170.369 174.59C168.851 172.85 166.757 171.759 164.475 171.16L163.967 173.095ZM149.38 181.54C151.255 175.371 157.87 171.633 163.988 173.1L164.454 171.155C157.304 169.44 149.649 173.78 147.466 180.958L149.38 181.54ZM130.602 192.433C138.736 194.541 147.155 189.744 149.388 181.511L147.458 180.987C145.514 188.155 138.185 192.332 131.104 190.497L130.602 192.433ZM121.574 190.036L130.596 192.432L131.109 190.499L122.088 188.103L121.574 190.036ZM110.836 171.445C108.494 179.696 113.388 187.981 121.588 190.039L122.074 188.099C114.959 186.313 110.729 179.145 112.76 171.992L110.836 171.445ZM102.629 157.43C108.749 158.931 112.43 165.316 110.83 171.467L112.766 171.97C114.636 164.781 110.35 157.265 103.105 155.488L102.629 157.43ZM97.0297 157.374C98.8233 156.759 100.602 156.932 102.629 157.43L103.106 155.488C100.938 154.955 98.7107 154.683 96.3809 155.482L97.0297 157.374ZM131.96 110.494C139.354 103.101 151.047 102.911 158.232 110.096L159.646 108.682C151.639 100.674 138.678 100.948 130.546 109.08L131.96 110.494ZM131.71 136.617C124.516 129.423 124.577 117.878 131.96 110.494L130.546 109.08C122.404 117.222 122.299 130.034 130.296 138.031L131.71 136.617ZM157.881 136.415C150.501 143.795 138.908 143.814 131.71 136.617L130.296 138.031C138.29 146.026 151.151 145.975 159.296 137.83L157.881 136.415ZM158.232 110.096C165.419 117.284 165.271 129.025 157.881 136.415L159.296 137.83C167.431 129.694 167.65 116.686 159.646 108.682L158.232 110.096Z" fill="url(#paint2_linear_1353_6117)" mask="url(#path-4-inside-1_1353_6117)"/>
</g>
<g opacity="0.6">
<mask id="path-6-inside-2_1353_6117" fill="white">
<path fill-rule="evenodd" clip-rule="evenodd" d="M96.7053 156.428C94.0555 157.239 91.2691 157.123 88.8782 156.611C84.0492 155.441 80.5206 151.615 79.059 146.594L76.7143 137.327C75.4474 132.401 76.9237 127.054 80.4342 123.544C82.1647 121.813 84.5768 120.369 87.1266 119.754C89.2346 119.291 91.0082 118.098 92.5904 116.516C97.4853 111.621 97.5734 103.502 92.9321 98.5638C87.3682 93 87.5627 84.0969 93.2487 78.4109L99.973 71.6866C105.708 65.9512 114.611 65.7567 120.175 71.3205C125.064 76.0114 133.183 75.9232 138.078 71.0283C139.71 69.3967 140.903 67.6231 141.316 65.5645C141.931 63.0147 143.425 60.5532 145.106 58.8721C148.666 55.3122 154.013 53.8358 158.939 55.1028L168.156 57.497C173.13 58.8123 177.003 62.4871 178.173 67.3162C178.833 69.5587 178.801 72.4934 178.039 75.0937C177.332 77.1555 177.555 79.1582 178.021 81.3051C179.71 87.938 186.66 91.9217 193.33 90.1865C200.983 88.0493 208.709 92.6115 210.681 100.219L213.077 109.241C214.999 116.899 210.561 124.723 202.811 126.861C196.187 128.84 192.148 135.976 193.739 142.61C194.302 144.755 195.309 146.652 196.859 148.004C198.845 149.792 200.091 152.126 200.603 154.517C201.773 159.346 200.396 164.594 196.883 168.3L189.912 175.272C186.253 178.931 180.908 180.211 176.079 179.041C173.738 178.48 171.354 177.283 169.616 175.248C168.263 173.697 166.367 172.691 164.221 172.127C157.587 170.537 150.452 174.575 148.423 181.249C146.334 188.95 138.461 193.437 130.853 191.465L121.831 189.069C114.174 187.147 109.611 179.421 111.798 171.718C113.533 165.048 109.549 158.098 102.867 156.459C100.77 155.944 98.767 155.721 96.7053 156.428ZM158.939 109.389C151.343 101.793 139.016 102.025 131.253 109.787C123.491 117.55 123.407 129.728 131.003 137.324C138.599 144.92 150.826 144.885 158.589 137.122C166.351 129.36 166.534 116.985 158.939 109.389Z"/>
</mask>
<path d="M88.8782 156.611L88.7604 157.097L88.7735 157.1L88.8782 156.611ZM96.7053 156.428L96.8516 156.906L96.8596 156.904L96.8675 156.901L96.7053 156.428ZM79.059 146.594L78.5743 146.716L78.5765 146.725L78.5789 146.734L79.059 146.594ZM76.7143 137.327L77.1991 137.204L77.1986 137.202L76.7143 137.327ZM87.1266 119.754L87.0193 119.266L87.0094 119.268L87.1266 119.754ZM92.9321 98.5638L93.2964 98.2214L93.2911 98.2157L93.2856 98.2102L92.9321 98.5638ZM120.175 71.3205L119.822 71.6742L119.829 71.6813L120.175 71.3205ZM141.316 65.5645L140.83 65.4474L140.828 65.4567L140.826 65.466L141.316 65.5645ZM158.939 55.1028L159.064 54.6189L159.063 54.6186L158.939 55.1028ZM168.156 57.497L168.284 57.0136L168.282 57.013L168.156 57.497ZM178.173 67.3162L177.687 67.4339L177.69 67.4457L177.693 67.4574L178.173 67.3162ZM178.039 75.0937L178.512 75.2559L178.516 75.2452L178.519 75.2343L178.039 75.0937ZM178.021 81.3051L177.532 81.4111L177.534 81.4198L177.536 81.4284L178.021 81.3051ZM193.33 90.1865L193.456 90.6705L193.465 90.6681L193.33 90.1865ZM210.681 100.219L210.197 100.345L210.197 100.348L210.681 100.219ZM213.077 109.241L213.562 109.119L213.56 109.113L213.077 109.241ZM202.811 126.861L202.678 126.379L202.668 126.382L202.811 126.861ZM193.739 142.61L193.253 142.726L193.255 142.737L193.739 142.61ZM196.859 148.004L197.194 147.633L197.188 147.628L196.859 148.004ZM200.603 154.517L200.114 154.622L200.117 154.635L200.603 154.517ZM196.883 168.3L197.237 168.654L197.246 168.644L196.883 168.3ZM189.912 175.272L189.558 174.918L189.912 175.272ZM176.079 179.041L176.197 178.555L176.196 178.555L176.079 179.041ZM169.616 175.248L169.996 174.923L169.993 174.919L169.616 175.248ZM164.221 172.127L164.348 171.644L164.338 171.641L164.221 172.127ZM148.423 181.249L147.945 181.103L147.943 181.111L147.941 181.118L148.423 181.249ZM130.853 191.465L130.724 191.949L130.727 191.949L130.853 191.465ZM121.831 189.069L121.959 188.586L121.953 188.584L121.831 189.069ZM111.798 171.718L112.279 171.855L112.282 171.844L111.798 171.718ZM102.867 156.459L102.748 156.944L102.748 156.944L102.867 156.459ZM88.7735 157.1C91.2211 157.624 94.0979 157.749 96.8516 156.906L96.5589 155.95C94.0131 156.729 91.3171 156.622 88.9829 156.122L88.7735 157.1ZM78.5789 146.734C80.0814 151.896 83.7278 155.877 88.7605 157.097L88.996 156.125C84.3706 155.004 80.9597 151.335 79.5391 146.454L78.5789 146.734ZM76.2296 137.45L78.5743 146.716L79.5437 146.471L77.1991 137.204L76.2296 137.45ZM80.0806 123.19C76.4443 126.827 74.9194 132.356 76.2301 137.452L77.1986 137.202C75.9753 132.447 77.4032 127.282 80.7877 123.898L80.0806 123.19ZM87.0094 119.268C84.363 119.906 81.8709 121.4 80.0806 123.19L80.7877 123.898C82.4585 122.227 84.7906 120.832 87.2438 120.24L87.0094 119.268ZM92.2368 116.163C90.6963 117.703 89.0038 118.83 87.0193 119.266L87.2339 120.243C89.4654 119.753 91.32 118.494 92.9439 116.87L92.2368 116.163ZM92.5677 98.9062C97.0235 103.647 96.9414 111.458 92.2368 116.163L92.9439 116.87C98.0292 111.784 98.1234 103.357 93.2964 98.2214L92.5677 98.9062ZM92.8952 78.0574C87.0257 83.9268 86.8078 93.1467 92.5785 98.9174L93.2856 98.2102C87.9287 92.8533 88.0997 84.267 93.6023 78.7645L92.8952 78.0574ZM99.6194 71.3331L92.8952 78.0574L93.6023 78.7645L100.327 72.0402L99.6194 71.3331ZM120.529 70.967C114.757 65.1952 105.537 65.4154 99.6194 71.3331L100.327 72.0402C105.88 66.4871 114.466 66.3183 119.822 71.6741L120.529 70.967ZM137.725 70.6748C133.019 75.3801 125.211 75.4594 120.521 70.9598L119.829 71.6813C124.917 76.5633 133.347 76.4663 138.432 71.3819L137.725 70.6748ZM140.826 65.466C140.439 67.3924 139.318 69.0818 137.725 70.6748L138.432 71.3819C140.102 69.7116 141.367 67.8538 141.807 65.663L140.826 65.466ZM144.752 58.5186C143.013 60.2585 141.469 62.7998 140.83 65.4474L141.803 65.6817C142.394 63.2296 143.837 60.8479 145.46 59.2257L144.752 58.5186ZM159.063 54.6186C153.966 53.3075 148.437 54.8337 144.752 58.5186L145.46 59.2257C148.895 55.7907 154.06 54.3642 158.814 55.5871L159.063 54.6186ZM168.282 57.013L159.064 54.6189L158.813 55.5868L168.03 57.9809L168.282 57.013ZM178.659 67.1984C177.441 62.1727 173.416 58.3708 168.284 57.0136L168.028 57.9803C172.844 59.2538 176.564 62.8016 177.687 67.4339L178.659 67.1984ZM178.519 75.2343C179.305 72.553 179.343 69.5199 178.653 67.1749L177.693 67.4574C178.323 69.5975 178.298 72.4338 177.56 74.9532L178.519 75.2343ZM178.51 81.199C178.049 79.0768 177.851 77.1851 178.512 75.2559L177.567 74.9315C176.814 77.1259 177.061 79.2397 177.532 81.4111L178.51 81.199ZM193.204 89.7026C186.794 91.3703 180.124 87.5374 178.505 81.1817L177.536 81.4284C179.296 88.3385 186.526 92.4732 193.456 90.6704L193.204 89.7026ZM211.165 100.094C209.124 92.2195 201.122 87.4913 193.196 89.7049L193.465 90.6681C200.843 88.6073 208.294 93.0035 210.197 100.345L211.165 100.094ZM213.56 109.113L211.164 100.091L210.197 100.348L212.594 109.37L213.56 109.113ZM202.944 127.343C210.96 125.132 215.549 117.037 213.562 109.119L212.592 109.363C214.449 116.76 210.163 124.314 202.678 126.379L202.944 127.343ZM194.225 142.493C192.696 136.115 196.586 129.243 202.954 127.34L202.668 126.382C195.787 128.438 191.6 135.836 193.253 142.726L194.225 142.493ZM197.188 147.628C195.733 146.358 194.768 144.56 194.222 142.483L193.255 142.737C193.837 144.951 194.885 146.946 196.53 148.381L197.188 147.628ZM201.092 154.412C200.56 151.926 199.263 149.496 197.194 147.633L196.525 148.376C198.427 150.088 199.623 152.327 200.114 154.622L201.092 154.412ZM197.246 168.644C200.875 164.816 202.299 159.394 201.089 154.399L200.117 154.635C201.247 159.298 199.917 164.373 196.52 167.956L197.246 168.644ZM190.265 175.625L197.237 168.654L196.53 167.947L189.558 174.918L190.265 175.625ZM175.962 179.527C180.948 180.735 186.475 179.416 190.265 175.625L189.558 174.918C186.031 178.445 180.869 179.687 176.197 178.555L175.962 179.527ZM169.236 175.572C171.058 177.706 173.544 178.947 175.963 179.527L176.196 178.555C173.931 178.012 171.651 176.86 169.996 174.923L169.236 175.572ZM164.094 172.611C166.172 173.157 167.97 174.121 169.239 175.576L169.993 174.919C168.557 173.273 166.562 172.225 164.348 171.644L164.094 172.611ZM148.902 181.394C150.854 174.973 157.729 171.085 164.105 172.614L164.338 171.641C157.446 169.988 150.05 174.178 147.945 181.103L148.902 181.394ZM130.727 191.949C138.598 193.989 146.745 189.347 148.906 181.38L147.941 181.118C145.924 188.552 138.323 192.885 130.978 190.981L130.727 191.949ZM121.703 189.552L130.724 191.949L130.981 190.982L121.959 188.586L121.703 189.552ZM111.317 171.582C109.053 179.558 113.781 187.564 121.709 189.554L121.953 188.584C114.566 186.73 110.17 179.283 112.279 171.855L111.317 171.582ZM102.748 156.944C109.149 158.515 112.982 165.182 111.314 171.593L112.282 171.844C114.085 164.915 109.95 157.681 102.986 155.973L102.748 156.944ZM96.8675 156.901C98.7952 156.24 100.686 156.438 102.748 156.944L102.986 155.973C100.854 155.449 98.7388 155.202 96.5431 155.955L96.8675 156.901ZM131.607 110.141C139.185 102.563 151.195 102.352 158.585 109.742L159.292 109.035C151.491 101.234 138.847 101.486 130.9 109.434L131.607 110.141ZM131.357 136.971C123.962 129.576 124.034 117.714 131.607 110.141L130.9 109.434C122.948 117.386 122.853 129.881 130.65 137.678L131.357 136.971ZM158.235 136.769C150.664 144.34 138.753 144.367 131.357 136.971L130.65 137.678C138.445 145.473 150.988 145.43 158.942 137.476L158.235 136.769ZM158.585 109.742C165.977 117.134 165.811 129.193 158.235 136.769L158.942 137.476C166.891 129.527 167.092 116.835 159.292 109.035L158.585 109.742Z" fill="url(#paint3_linear_1353_6117)" mask="url(#path-6-inside-2_1353_6117)"/>
</g>
<g opacity="0.4">
<mask id="path-8-inside-3_1353_6117" fill="white">
<path fill-rule="evenodd" clip-rule="evenodd" d="M96.7053 156.428C94.0555 157.239 91.2691 157.123 88.8782 156.611C84.0492 155.441 80.5206 151.615 79.059 146.594L76.7143 137.327C75.4474 132.401 76.9237 127.054 80.4342 123.544C82.1647 121.813 84.5768 120.369 87.1266 119.754C89.2346 119.291 91.0082 118.098 92.5904 116.516C97.4853 111.621 97.5734 103.502 92.9321 98.5638C87.3682 93 87.5627 84.0969 93.2487 78.4109L99.973 71.6866C105.708 65.9512 114.611 65.7567 120.175 71.3205C125.064 76.0114 133.183 75.9232 138.078 71.0283C139.71 69.3967 140.903 67.6231 141.316 65.5645C141.931 63.0147 143.425 60.5532 145.106 58.8721C148.666 55.3122 154.013 53.8358 158.939 55.1028L168.156 57.497C173.13 58.8123 177.003 62.4871 178.173 67.3162C178.833 69.5587 178.801 72.4934 178.039 75.0937C177.332 77.1555 177.555 79.1582 178.021 81.3051C179.71 87.938 186.66 91.9217 193.33 90.1865C200.983 88.0493 208.709 92.6115 210.681 100.219L213.077 109.241C214.999 116.899 210.561 124.723 202.811 126.861C196.187 128.84 192.148 135.976 193.739 142.61C194.302 144.755 195.309 146.652 196.859 148.004C198.845 149.792 200.091 152.126 200.603 154.517C201.773 159.346 200.396 164.594 196.883 168.3L189.912 175.272C186.253 178.931 180.908 180.211 176.079 179.041C173.738 178.48 171.354 177.283 169.616 175.248C168.263 173.697 166.367 172.691 164.221 172.127C157.587 170.537 150.452 174.575 148.423 181.249C146.334 188.95 138.461 193.437 130.853 191.465L121.831 189.069C114.174 187.147 109.611 179.421 111.798 171.718C113.533 165.048 109.549 158.098 102.867 156.459C100.77 155.944 98.767 155.721 96.7053 156.428ZM158.939 109.389C151.343 101.793 139.016 102.025 131.253 109.787C123.491 117.55 123.407 129.728 131.003 137.324C138.599 144.92 150.826 144.885 158.589 137.122C166.351 129.36 166.534 116.985 158.939 109.389Z"/>
</mask>
<path d="M88.8782 156.611L88.8193 156.854L88.8259 156.855L88.8782 156.611ZM96.7053 156.428L96.7785 156.667L96.7864 156.664L96.7053 156.428ZM79.059 146.594L78.8165 146.655L78.819 146.664L79.059 146.594ZM76.7143 137.327L76.9567 137.266L76.9565 137.265L76.7143 137.327ZM87.1266 119.754L87.073 119.51L87.068 119.511L87.1266 119.754ZM92.9321 98.5638L93.1143 98.3925L93.1088 98.387L92.9321 98.5638ZM120.175 71.3205L119.998 71.4974L120.002 71.5009L120.175 71.3205ZM141.316 65.5645L141.073 65.5059L141.071 65.5153L141.316 65.5645ZM158.939 55.1028L159.001 54.8609L159.001 54.8607L158.939 55.1028ZM168.156 57.497L168.22 57.2553L168.219 57.255L168.156 57.497ZM178.173 67.3162L177.93 67.3751L177.933 67.3868L178.173 67.3162ZM178.039 75.0937L178.276 75.1749L178.279 75.164L178.039 75.0937ZM178.021 81.3051L177.776 81.3581L177.779 81.3667L178.021 81.3051ZM193.33 90.1865L193.393 90.4285L193.397 90.4273L193.33 90.1865ZM210.681 100.219L210.439 100.282L210.439 100.284L210.681 100.219ZM213.077 109.241L213.319 109.18L213.319 109.177L213.077 109.241ZM202.811 126.861L202.744 126.62L202.739 126.622L202.811 126.861ZM193.739 142.61L193.496 142.668L193.497 142.673L193.739 142.61ZM196.859 148.004L197.026 147.819L197.024 147.816L196.859 148.004ZM200.603 154.517L200.359 154.57L200.36 154.576L200.603 154.517ZM196.883 168.3L197.06 168.477L197.065 168.472L196.883 168.3ZM189.912 175.272L189.735 175.095L189.912 175.272ZM176.079 179.041L176.138 178.798L176.138 178.798L176.079 179.041ZM169.616 175.248L169.806 175.085L169.804 175.083L169.616 175.248ZM164.221 172.127L164.285 171.885L164.279 171.884L164.221 172.127ZM148.423 181.249L148.184 181.176L148.182 181.183L148.423 181.249ZM130.853 191.465L130.788 191.707L130.79 191.707L130.853 191.465ZM121.831 189.069L121.895 188.827L121.892 188.827L121.831 189.069ZM111.798 171.718L112.039 171.787L112.04 171.781L111.798 171.718ZM102.867 156.459L102.807 156.702L102.808 156.702L102.867 156.459ZM88.8259 156.855C91.2451 157.373 94.0767 157.494 96.7784 156.667L96.6321 156.189C94.0343 156.984 91.2931 156.872 88.9306 156.366L88.8259 156.855ZM78.819 146.664C80.301 151.755 83.8885 155.659 88.8194 156.854L88.9371 156.368C84.2099 155.222 80.7402 151.475 79.2991 146.524L78.819 146.664ZM76.472 137.388L78.8167 146.655L79.3014 146.532L76.9567 137.266L76.472 137.388ZM80.2574 123.367C76.684 126.941 75.1834 132.379 76.4722 137.389L76.9565 137.265C75.7114 132.424 77.1634 127.168 80.611 123.721L80.2574 123.367ZM87.068 119.511C84.4699 120.138 82.0178 121.607 80.2574 123.367L80.611 123.721C82.3116 122.02 84.6837 120.6 87.1852 119.997L87.068 119.511ZM92.4136 116.339C90.8523 117.901 89.1192 119.061 87.073 119.51L87.1802 119.999C89.35 119.522 91.1641 118.296 92.7672 116.693L92.4136 116.339ZM92.7499 98.735C97.2985 103.574 97.2133 111.54 92.4136 116.339L92.7672 116.693C97.7572 111.703 97.8484 103.429 93.1142 98.3926L92.7499 98.735ZM93.0719 78.2342C87.2942 84.0119 87.088 93.0733 92.7553 98.7406L93.1088 98.387C87.6485 92.9267 87.8312 84.182 93.4255 78.5877L93.0719 78.2342ZM99.7962 71.5099L93.0719 78.2342L93.4255 78.5877L100.15 71.8634L99.7962 71.5099ZM120.352 71.1438C114.684 65.476 105.623 65.6833 99.7962 71.5099L100.15 71.8634C105.794 66.2191 114.539 66.0375 119.999 71.4973L120.352 71.1438ZM137.901 70.8515C133.101 75.6516 125.137 75.7354 120.348 71.1402L120.002 71.5009C124.99 76.2873 133.265 76.1948 138.255 71.2051L137.901 70.8515ZM141.071 65.5153C140.671 67.5078 139.514 69.2392 137.901 70.8515L138.255 71.2051C139.906 69.5541 141.135 67.7384 141.562 65.6138L141.071 65.5153ZM144.929 58.6953C143.219 60.4058 141.7 62.9073 141.073 65.506L141.56 65.6231C142.162 63.1222 143.631 60.7006 145.283 59.0489L144.929 58.6953ZM159.001 54.8607C153.989 53.5717 148.552 55.0729 144.929 58.6953L145.283 59.0489C148.78 55.5515 154.036 54.1 158.876 55.3449L159.001 54.8607ZM168.219 57.255L159.001 54.8609L158.876 55.3448L168.093 57.7389L168.219 57.255ZM178.416 67.2573C177.222 62.3299 173.273 58.5916 168.22 57.2553L168.092 57.7386C172.987 59.0331 176.784 62.6444 177.93 67.3751L178.416 67.2573ZM178.279 75.164C179.053 72.5232 179.088 69.5393 178.413 67.2456L177.933 67.3868C178.578 69.5781 178.55 72.4636 177.8 75.0235L178.279 75.164ZM178.265 81.252C177.802 79.1175 177.592 77.1703 178.276 75.1748L177.803 75.0126C177.073 77.1407 177.308 79.199 177.777 81.3581L178.265 81.252ZM193.267 89.9445C186.727 91.646 179.917 87.7377 178.263 81.2434L177.779 81.3667C179.503 88.1383 186.593 92.1974 193.393 90.4284L193.267 89.9445ZM210.923 100.157C208.917 92.4155 201.052 87.7703 193.263 89.9457L193.397 90.4273C200.913 88.3283 208.502 92.8075 210.439 100.282L210.923 100.157ZM213.319 109.177L210.922 100.155L210.439 100.284L212.835 109.305L213.319 109.177ZM202.877 127.102C210.76 124.927 215.274 116.968 213.319 109.18L212.834 109.302C214.724 116.829 210.362 124.518 202.744 126.62L202.877 127.102ZM193.982 142.551C192.422 136.045 196.387 129.042 202.882 127.101L202.739 126.622C195.987 128.639 191.874 135.906 193.496 142.668L193.982 142.551ZM197.024 147.816C195.521 146.505 194.535 144.658 193.981 142.546L193.497 142.673C194.07 144.853 195.097 146.799 196.695 148.193L197.024 147.816ZM200.848 154.465C200.325 152.026 199.054 149.644 197.026 147.819L196.692 148.19C198.636 149.94 199.857 152.226 200.359 154.57L200.848 154.465ZM197.065 168.472C200.635 164.705 202.036 159.37 200.846 154.458L200.36 154.576C201.51 159.322 200.156 164.483 196.702 168.128L197.065 168.472ZM190.089 175.449L197.06 168.477L196.707 168.124L189.735 175.095L190.089 175.449ZM176.02 179.284C180.928 180.473 186.364 179.173 190.089 175.449L189.735 175.095C186.142 178.688 180.889 179.949 176.138 178.798L176.02 179.284ZM169.426 175.41C171.206 177.494 173.641 178.714 176.021 179.284L176.138 178.798C173.835 178.246 171.502 177.071 169.806 175.085L169.426 175.41ZM164.158 172.369C166.269 172.924 168.117 173.909 169.428 175.412L169.804 175.083C168.41 173.485 166.464 172.458 164.285 171.886L164.158 172.369ZM148.662 181.321C150.653 174.774 157.658 170.811 164.163 172.37L164.279 171.884C157.517 170.263 150.251 174.377 148.184 181.176L148.662 181.321ZM130.79 191.707C138.53 193.713 146.54 189.148 148.664 181.314L148.182 181.183C146.129 188.751 138.392 193.161 130.915 191.223L130.79 191.707ZM121.767 189.311L130.788 191.707L130.917 191.224L121.895 188.828L121.767 189.311ZM111.558 171.65C109.332 179.489 113.977 187.356 121.77 189.312L121.892 188.827C114.37 186.939 109.891 179.352 112.038 171.787L111.558 171.65ZM102.808 156.702C109.349 158.306 113.258 165.115 111.556 171.656L112.04 171.781C113.809 164.982 109.75 157.89 102.927 156.216L102.808 156.702ZM96.7864 156.664C98.7811 155.98 100.728 156.191 102.807 156.702L102.927 156.216C100.812 155.697 98.7529 155.461 96.6242 156.192L96.7864 156.664ZM131.43 109.964C139.1 102.294 151.269 102.073 158.762 109.566L159.115 109.212C151.417 101.513 138.931 101.755 131.077 109.61L131.43 109.964ZM131.18 137.147C123.685 129.652 123.762 117.632 131.43 109.964L131.077 109.61C123.219 117.468 123.13 129.805 130.826 137.501L131.18 137.147ZM158.412 136.946C150.745 144.613 138.676 144.644 131.18 137.147L130.826 137.501C138.522 145.196 150.907 145.157 158.765 137.299L158.412 136.946ZM158.762 109.566C166.256 117.059 166.081 129.276 158.412 136.946L158.765 137.299C166.621 129.443 166.813 116.91 159.115 109.212L158.762 109.566Z" fill="url(#paint4_linear_1353_6117)" mask="url(#path-8-inside-3_1353_6117)"/>
</g>
<path fill-rule="evenodd" clip-rule="evenodd" d="M96.7053 156.428C94.0555 157.239 91.2691 157.123 88.8782 156.611C84.0492 155.441 80.5206 151.615 79.059 146.594L76.7143 137.327C75.4474 132.401 76.9237 127.054 80.4342 123.544C82.1647 121.813 84.5768 120.369 87.1266 119.754C89.2346 119.291 91.0082 118.098 92.5904 116.516C97.4853 111.621 97.5734 103.502 92.9321 98.5638C87.3682 93 87.5627 84.0969 93.2487 78.4109L99.973 71.6866C105.708 65.9512 114.611 65.7567 120.175 71.3205C125.064 76.0114 133.183 75.9232 138.078 71.0283C139.71 69.3967 140.903 67.6231 141.316 65.5645C141.931 63.0147 143.425 60.5532 145.106 58.8721C148.666 55.3122 154.013 53.8358 158.939 55.1028L168.156 57.497C173.13 58.8123 177.003 62.4871 178.173 67.3162C178.833 69.5587 178.801 72.4934 178.039 75.0937C177.332 77.1555 177.555 79.1582 178.021 81.3051C179.71 87.938 186.66 91.9217 193.33 90.1865C200.983 88.0493 208.709 92.6115 210.681 100.219L213.077 109.241C214.999 116.899 210.561 124.723 202.811 126.861C196.187 128.84 192.148 135.976 193.739 142.61C194.302 144.755 195.309 146.652 196.859 148.004C198.845 149.792 200.091 152.126 200.603 154.517C201.773 159.346 200.396 164.594 196.883 168.3L189.912 175.272C186.253 178.931 180.908 180.211 176.079 179.041C173.738 178.48 171.354 177.283 169.616 175.248C168.263 173.697 166.367 172.691 164.221 172.127C157.587 170.537 150.452 174.575 148.423 181.249C146.334 188.95 138.461 193.437 130.853 191.465L121.831 189.069C114.174 187.147 109.611 179.421 111.798 171.718C113.533 165.048 109.549 158.098 102.867 156.459C100.77 155.944 98.767 155.721 96.7053 156.428ZM158.939 109.389C151.343 101.793 139.016 102.025 131.253 109.787C123.491 117.55 123.407 129.728 131.003 137.324C138.599 144.92 150.826 144.885 158.589 137.122C166.351 129.36 166.534 116.985 158.939 109.389Z" fill="#7CDDAE"/>
<defs>
<filter id="filter0_b_1353_6117" x="7" y="-15" width="277" height="277" filterUnits="userSpaceOnUse" color-interpolation-filters="sRGB">
<feFlood flood-opacity="0" result="BackgroundImageFix"/>
<feGaussianBlur in="BackgroundImageFix" stdDeviation="7.5"/>
<feComposite in2="SourceAlpha" operator="in" result="effect1_backgroundBlur_1353_6117"/>
<feBlend mode="normal" in="SourceGraphic" in2="effect1_backgroundBlur_1353_6117" result="shape"/>
</filter>
<linearGradient id="paint0_linear_1353_6117" x1="123.5" y1="23" x2="123.5" y2="270" gradientUnits="userSpaceOnUse">
<stop stop-color="#7CDDAE"/>
<stop offset="1" stop-color="#6FE0EF"/>
</linearGradient>
<linearGradient id="paint1_linear_1353_6117" x1="145.5" y1="0" x2="145.5" y2="247" gradientUnits="userSpaceOnUse">
<stop stop-color="#7CDDAE"/>
<stop offset="1" stop-color="#6FE0EF"/>
</linearGradient>
<linearGradient id="paint2_linear_1353_6117" x1="193.382" y1="171.802" x2="96.6198" y2="75.0398" gradientUnits="userSpaceOnUse">
<stop stop-color="#7CDDAE"/>
<stop offset="1" stop-color="#6FE0EF"/>
</linearGradient>
<linearGradient id="paint3_linear_1353_6117" x1="193.382" y1="171.802" x2="96.6198" y2="75.0398" gradientUnits="userSpaceOnUse">
<stop stop-color="#7CDDAE"/>
<stop offset="1" stop-color="#6FE0EF"/>
</linearGradient>
<linearGradient id="paint4_linear_1353_6117" x1="193.382" y1="171.802" x2="96.6198" y2="75.0398" gradientUnits="userSpaceOnUse">
<stop stop-color="#7CDDAE"/>
<stop offset="1" stop-color="#6FE0EF"/>
</linearGradient>
</defs>
</svg>
