<svg width="216" height="66" viewBox="0 0 216 66" fill="none" xmlns="http://www.w3.org/2000/svg">
<path d="M5.46191 12.9481H210.53C212.838 12.9481 214.709 14.8189 214.709 17.1266V39.3048H1.2834V17.1266C1.2834 14.8189 3.15418 12.9481 5.46191 12.9481Z" stroke="#E5EAE9" stroke-opacity="0.2" stroke-width="0.642848"/>
<path opacity="0.6" d="M13.7547 22.9148C15.4827 22.9148 16.4097 24.0488 16.4097 26.1727C16.4097 28.2967 15.4827 29.4307 13.7547 29.4307C12.0267 29.4307 11.0997 28.2967 11.0997 26.1727C11.0997 24.0488 12.0267 22.9148 13.7547 22.9148ZM13.7547 28.2607C14.6277 28.2607 15.0597 27.5587 15.0597 26.1727C15.0597 24.7868 14.6277 24.0848 13.7547 24.0848C12.8817 24.0848 12.4497 24.7868 12.4497 26.1727C12.4497 27.5587 12.8817 28.2607 13.7547 28.2607ZM20.0564 22.9148C21.7843 22.9148 22.7113 24.0488 22.7113 26.1727C22.7113 28.2967 21.7843 29.4307 20.0564 29.4307C18.3284 29.4307 17.4014 28.2967 17.4014 26.1727C17.4014 24.0488 18.3284 22.9148 20.0564 22.9148ZM20.0564 28.2607C20.9293 28.2607 21.3613 27.5587 21.3613 26.1727C21.3613 24.7868 20.9293 24.0848 20.0564 24.0848C19.1834 24.0848 18.7514 24.7868 18.7514 26.1727C18.7514 27.5587 19.1834 28.2607 20.0564 28.2607ZM26.358 22.9148C28.086 22.9148 29.013 24.0488 29.013 26.1727C29.013 28.2967 28.086 29.4307 26.358 29.4307C24.63 29.4307 23.7031 28.2967 23.7031 26.1727C23.7031 24.0488 24.63 22.9148 26.358 22.9148ZM26.358 28.2607C27.231 28.2607 27.663 27.5587 27.663 26.1727C27.663 24.7868 27.231 24.0848 26.358 24.0848C25.485 24.0848 25.053 24.7868 25.053 26.1727C25.053 27.5587 25.485 28.2607 26.358 28.2607ZM32.6597 22.9148C34.3877 22.9148 35.3146 24.0488 35.3146 26.1727C35.3146 28.2967 34.3877 29.4307 32.6597 29.4307C30.9317 29.4307 30.0047 28.2967 30.0047 26.1727C30.0047 24.0488 30.9317 22.9148 32.6597 22.9148ZM32.6597 28.2607C33.5327 28.2607 33.9647 27.5587 33.9647 26.1727C33.9647 24.7868 33.5327 24.0848 32.6597 24.0848C31.7867 24.0848 31.3547 24.7868 31.3547 26.1727C31.3547 27.5587 31.7867 28.2607 32.6597 28.2607ZM41.0355 22.9148C42.7635 22.9148 43.6905 24.0488 43.6905 26.1727C43.6905 28.2967 42.7635 29.4307 41.0355 29.4307C39.3076 29.4307 38.3806 28.2967 38.3806 26.1727C38.3806 24.0488 39.3076 22.9148 41.0355 22.9148ZM41.0355 28.2607C41.9085 28.2607 42.3405 27.5587 42.3405 26.1727C42.3405 24.7868 41.9085 24.0848 41.0355 24.0848C40.1625 24.0848 39.7306 24.7868 39.7306 26.1727C39.7306 27.5587 40.1625 28.2607 41.0355 28.2607ZM47.3372 22.9148C49.0652 22.9148 49.9922 24.0488 49.9922 26.1727C49.9922 28.2967 49.0652 29.4307 47.3372 29.4307C45.6092 29.4307 44.6822 28.2967 44.6822 26.1727C44.6822 24.0488 45.6092 22.9148 47.3372 22.9148ZM47.3372 28.2607C48.2102 28.2607 48.6422 27.5587 48.6422 26.1727C48.6422 24.7868 48.2102 24.0848 47.3372 24.0848C46.4642 24.0848 46.0322 24.7868 46.0322 26.1727C46.0322 27.5587 46.4642 28.2607 47.3372 28.2607ZM53.6389 22.9148C55.3668 22.9148 56.2938 24.0488 56.2938 26.1727C56.2938 28.2967 55.3668 29.4307 53.6389 29.4307C51.9109 29.4307 50.9839 28.2967 50.9839 26.1727C50.9839 24.0488 51.9109 22.9148 53.6389 22.9148ZM53.6389 28.2607C54.5119 28.2607 54.9438 27.5587 54.9438 26.1727C54.9438 24.7868 54.5119 24.0848 53.6389 24.0848C52.7659 24.0848 52.3339 24.7868 52.3339 26.1727C52.3339 27.5587 52.7659 28.2607 53.6389 28.2607ZM59.9405 22.9148C61.6685 22.9148 62.5955 24.0488 62.5955 26.1727C62.5955 28.2967 61.6685 29.4307 59.9405 29.4307C58.2126 29.4307 57.2856 28.2967 57.2856 26.1727C57.2856 24.0488 58.2126 22.9148 59.9405 22.9148ZM59.9405 28.2607C60.8135 28.2607 61.2455 27.5587 61.2455 26.1727C61.2455 24.7868 60.8135 24.0848 59.9405 24.0848C59.0675 24.0848 58.6355 24.7868 58.6355 26.1727C58.6355 27.5587 59.0675 28.2607 59.9405 28.2607ZM68.3164 22.9148C70.0444 22.9148 70.9713 24.0488 70.9713 26.1727C70.9713 28.2967 70.0444 29.4307 68.3164 29.4307C66.5884 29.4307 65.6614 28.2967 65.6614 26.1727C65.6614 24.0488 66.5884 22.9148 68.3164 22.9148ZM68.3164 28.2607C69.1894 28.2607 69.6214 27.5587 69.6214 26.1727C69.6214 24.7868 69.1894 24.0848 68.3164 24.0848C67.4434 24.0848 67.0114 24.7868 67.0114 26.1727C67.0114 27.5587 67.4434 28.2607 68.3164 28.2607ZM74.618 22.9148C76.346 22.9148 77.273 24.0488 77.273 26.1727C77.273 28.2967 76.346 29.4307 74.618 29.4307C72.8901 29.4307 71.9631 28.2967 71.9631 26.1727C71.9631 24.0488 72.8901 22.9148 74.618 22.9148ZM74.618 28.2607C75.491 28.2607 75.923 27.5587 75.923 26.1727C75.923 24.7868 75.491 24.0848 74.618 24.0848C73.7451 24.0848 73.3131 24.7868 73.3131 26.1727C73.3131 27.5587 73.7451 28.2607 74.618 28.2607ZM80.9197 22.9148C82.6477 22.9148 83.5747 24.0488 83.5747 26.1727C83.5747 28.2967 82.6477 29.4307 80.9197 29.4307C79.1917 29.4307 78.2647 28.2967 78.2647 26.1727C78.2647 24.0488 79.1917 22.9148 80.9197 22.9148ZM80.9197 28.2607C81.7927 28.2607 82.2247 27.5587 82.2247 26.1727C82.2247 24.7868 81.7927 24.0848 80.9197 24.0848C80.0467 24.0848 79.6147 24.7868 79.6147 26.1727C79.6147 27.5587 80.0467 28.2607 80.9197 28.2607ZM87.2214 22.9148C88.9493 22.9148 89.8763 24.0488 89.8763 26.1727C89.8763 28.2967 88.9493 29.4307 87.2214 29.4307C85.4934 29.4307 84.5664 28.2967 84.5664 26.1727C84.5664 24.0488 85.4934 22.9148 87.2214 22.9148ZM87.2214 28.2607C88.0944 28.2607 88.5264 27.5587 88.5264 26.1727C88.5264 24.7868 88.0944 24.0848 87.2214 24.0848C86.3484 24.0848 85.9164 24.7868 85.9164 26.1727C85.9164 27.5587 86.3484 28.2607 87.2214 28.2607ZM95.5972 22.9148C97.3252 22.9148 98.2522 24.0488 98.2522 26.1727C98.2522 28.2967 97.3252 29.4307 95.5972 29.4307C93.8693 29.4307 92.9423 28.2967 92.9423 26.1727C92.9423 24.0488 93.8693 22.9148 95.5972 22.9148ZM95.5972 28.2607C96.4702 28.2607 96.9022 27.5587 96.9022 26.1727C96.9022 24.7868 96.4702 24.0848 95.5972 24.0848C94.7242 24.0848 94.2922 24.7868 94.2922 26.1727C94.2922 27.5587 94.7242 28.2607 95.5972 28.2607ZM101.899 22.9148C103.627 22.9148 104.554 24.0488 104.554 26.1727C104.554 28.2967 103.627 29.4307 101.899 29.4307C100.171 29.4307 99.2439 28.2967 99.2439 26.1727C99.2439 24.0488 100.171 22.9148 101.899 22.9148ZM101.899 28.2607C102.772 28.2607 103.204 27.5587 103.204 26.1727C103.204 24.7868 102.772 24.0848 101.899 24.0848C101.026 24.0848 100.594 24.7868 100.594 26.1727C100.594 27.5587 101.026 28.2607 101.899 28.2607ZM108.201 22.9148C109.929 22.9148 110.856 24.0488 110.856 26.1727C110.856 28.2967 109.929 29.4307 108.201 29.4307C106.473 29.4307 105.546 28.2967 105.546 26.1727C105.546 24.0488 106.473 22.9148 108.201 22.9148ZM108.201 28.2607C109.074 28.2607 109.506 27.5587 109.506 26.1727C109.506 24.7868 109.074 24.0848 108.201 24.0848C107.328 24.0848 106.896 24.7868 106.896 26.1727C106.896 27.5587 107.328 28.2607 108.201 28.2607ZM114.502 22.9148C116.23 22.9148 117.157 24.0488 117.157 26.1727C117.157 28.2967 116.23 29.4307 114.502 29.4307C112.774 29.4307 111.847 28.2967 111.847 26.1727C111.847 24.0488 112.774 22.9148 114.502 22.9148ZM114.502 28.2607C115.375 28.2607 115.807 27.5587 115.807 26.1727C115.807 24.7868 115.375 24.0848 114.502 24.0848C113.629 24.0848 113.197 24.7868 113.197 26.1727C113.197 27.5587 113.629 28.2607 114.502 28.2607Z" fill="white"/>
<path d="M1.2834 39.305H107.353V65.6618H5.46191C3.15418 65.6618 1.2834 63.791 1.2834 61.4832V39.305Z" stroke="#E5EAE9" stroke-opacity="0.2" stroke-width="0.642848"/>
<path d="M107.354 39.305H214.709V61.4832C214.709 63.791 212.839 65.6618 210.531 65.6618H107.354V39.305Z" stroke="#E5EAE9" stroke-opacity="0.2" stroke-width="0.642848"/>
<path opacity="0.6" d="M13.7547 49.2717C15.4827 49.2717 16.4097 50.4057 16.4097 52.5297C16.4097 54.6536 15.4827 55.7876 13.7547 55.7876C12.0267 55.7876 11.0997 54.6536 11.0997 52.5297C11.0997 50.4057 12.0267 49.2717 13.7547 49.2717ZM13.7547 54.6176C14.6277 54.6176 15.0597 53.9157 15.0597 52.5297C15.0597 51.1437 14.6277 50.4417 13.7547 50.4417C12.8817 50.4417 12.4497 51.1437 12.4497 52.5297C12.4497 53.9157 12.8817 54.6176 13.7547 54.6176ZM20.0564 49.2717C21.7843 49.2717 22.7113 50.4057 22.7113 52.5297C22.7113 54.6536 21.7843 55.7876 20.0564 55.7876C18.3284 55.7876 17.4014 54.6536 17.4014 52.5297C17.4014 50.4057 18.3284 49.2717 20.0564 49.2717ZM20.0564 54.6176C20.9293 54.6176 21.3613 53.9157 21.3613 52.5297C21.3613 51.1437 20.9293 50.4417 20.0564 50.4417C19.1834 50.4417 18.7514 51.1437 18.7514 52.5297C18.7514 53.9157 19.1834 54.6176 20.0564 54.6176ZM23.6616 57.2726H22.4916L25.4435 49.0287H26.6135L23.6616 57.2726ZM29.5836 49.2717C31.3115 49.2717 32.2385 50.4057 32.2385 52.5297C32.2385 54.6536 31.3115 55.7876 29.5836 55.7876C27.8556 55.7876 26.9286 54.6536 26.9286 52.5297C26.9286 50.4057 27.8556 49.2717 29.5836 49.2717ZM29.5836 54.6176C30.4565 54.6176 30.8885 53.9157 30.8885 52.5297C30.8885 51.1437 30.4565 50.4417 29.5836 50.4417C28.7106 50.4417 28.2786 51.1437 28.2786 52.5297C28.2786 53.9157 28.7106 54.6176 29.5836 54.6176ZM35.8852 49.2717C37.6132 49.2717 38.5402 50.4057 38.5402 52.5297C38.5402 54.6536 37.6132 55.7876 35.8852 55.7876C34.1572 55.7876 33.2303 54.6536 33.2303 52.5297C33.2303 50.4057 34.1572 49.2717 35.8852 49.2717ZM35.8852 54.6176C36.7582 54.6176 37.1902 53.9157 37.1902 52.5297C37.1902 51.1437 36.7582 50.4417 35.8852 50.4417C35.0122 50.4417 34.5802 51.1437 34.5802 52.5297C34.5802 53.9157 35.0122 54.6176 35.8852 54.6176Z" fill="white"/>
<path opacity="0.6" d="M121.753 49.2717C123.481 49.2717 124.408 50.4057 124.408 52.5297C124.408 54.6536 123.481 55.7876 121.753 55.7876C120.025 55.7876 119.098 54.6536 119.098 52.5297C119.098 50.4057 120.025 49.2717 121.753 49.2717ZM121.753 54.6176C122.626 54.6176 123.058 53.9157 123.058 52.5297C123.058 51.1437 122.626 50.4417 121.753 50.4417C120.88 50.4417 120.448 51.1437 120.448 52.5297C120.448 53.9157 120.88 54.6176 121.753 54.6176ZM128.055 49.2717C129.783 49.2717 130.71 50.4057 130.71 52.5297C130.71 54.6536 129.783 55.7876 128.055 55.7876C126.327 55.7876 125.4 54.6536 125.4 52.5297C125.4 50.4057 126.327 49.2717 128.055 49.2717ZM128.055 54.6176C128.928 54.6176 129.36 53.9157 129.36 52.5297C129.36 51.1437 128.928 50.4417 128.055 50.4417C127.182 50.4417 126.75 51.1437 126.75 52.5297C126.75 53.9157 127.182 54.6176 128.055 54.6176ZM134.356 49.2717C136.084 49.2717 137.011 50.4057 137.011 52.5297C137.011 54.6536 136.084 55.7876 134.356 55.7876C132.628 55.7876 131.702 54.6536 131.702 52.5297C131.702 50.4057 132.628 49.2717 134.356 49.2717ZM134.356 54.6176C135.229 54.6176 135.661 53.9157 135.661 52.5297C135.661 51.1437 135.229 50.4417 134.356 50.4417C133.483 50.4417 133.051 51.1437 133.051 52.5297C133.051 53.9157 133.483 54.6176 134.356 54.6176Z" fill="white"/>
<path opacity="0.6" d="M3.9685 4.67652C3.9685 2.88125 4.86225 1.86315 6.41659 1.86315C7.80774 1.86315 8.70926 2.71027 8.7792 4.09364H8.07198C8.00203 3.09108 7.38029 2.48489 6.41659 2.48489C5.29746 2.48489 4.6835 3.26983 4.6835 4.67652C4.6835 6.0832 5.29746 6.86815 6.41659 6.86815C7.43469 6.86815 8.02534 6.26972 8.11861 5.18168H8.82583C8.75589 6.58059 7.80774 7.48989 6.41659 7.48989C4.86225 7.48989 3.9685 6.47179 3.9685 4.67652ZM12.9554 6.6894C12.9554 6.78266 13.002 6.82152 13.0953 6.82152H13.4528V7.41217H13.0175C12.559 7.41217 12.3336 7.17902 12.3258 6.71271H12.1549L11.8673 7.31114C11.6419 7.42771 11.3544 7.48989 11.0202 7.48989C10.1731 7.48989 9.68346 7.07021 9.68346 6.35521C9.68346 5.71016 10.0565 5.38375 10.8803 5.29826L12.1471 5.16614C12.2404 5.15837 12.2792 5.11174 12.2792 5.01847C12.2792 4.39674 11.9062 4.04701 11.2533 4.04701C10.5928 4.04701 10.2508 4.3501 10.2119 4.97962H9.55911C9.61351 4.01592 10.2275 3.46413 11.2922 3.46413C12.3492 3.46413 12.9554 4.08587 12.9554 5.14282V6.6894ZM12.2792 5.6713V5.50809L11.129 5.65576C10.5694 5.7257 10.3363 5.92 10.3363 6.30081C10.3363 6.69717 10.6161 6.92255 11.1212 6.92255C11.8984 6.92255 12.2792 6.51065 12.2792 5.6713ZM16.2333 3.53407V4.16358H15.666C15.0209 4.16358 14.78 4.42005 14.78 5.11951V7.41217H14.1039V3.54184H14.7334V4.1869H14.9044L15.1764 3.61179C15.3551 3.54184 15.6038 3.49521 15.8214 3.49521C15.9769 3.49521 16.109 3.50299 16.2333 3.53407ZM19.1593 7.33445C18.9262 7.44326 18.6775 7.48989 18.3666 7.48989C17.2553 7.48989 16.618 6.75934 16.618 5.47701C16.618 4.20244 17.2553 3.46413 18.3511 3.46413C18.8718 3.46413 19.2526 3.60402 19.5557 3.90712V1.94087H20.2318V7.41217H19.6023V6.76712H19.4313L19.1593 7.33445ZM18.4288 6.92255C19.2371 6.92255 19.5712 6.50288 19.5712 5.47701C19.5712 4.55217 19.1671 4.05478 18.4288 4.05478C17.6905 4.05478 17.2863 4.55217 17.2863 5.47701C17.2863 6.40184 17.6982 6.92255 18.4288 6.92255ZM24.8847 7.41217H23.2448V1.94087H24.8847C26.7344 1.94087 27.6825 2.8657 27.6825 4.67652C27.6825 6.48733 26.7344 7.41217 24.8847 7.41217ZM23.9443 2.5626V6.79043H24.9235C26.2758 6.79043 26.9675 6.06766 26.9675 4.67652C26.9675 3.28538 26.2758 2.5626 24.9235 2.5626H23.9443ZM31.7374 5.53141H29.1106C29.1261 6.4407 29.5458 6.90701 30.323 6.90701C30.9602 6.90701 31.31 6.62722 31.3955 6.03657H32.0483C31.9706 6.96141 31.3333 7.48989 30.323 7.48989C29.1028 7.48989 28.4577 6.79043 28.4577 5.47701C28.4577 4.17135 29.095 3.46413 30.253 3.46413C31.3333 3.46413 31.9706 4.1325 31.9706 5.28271C31.9706 5.45369 31.8928 5.53141 31.7374 5.53141ZM30.253 4.04701C29.608 4.04701 29.2116 4.44337 29.1261 5.16614L31.1468 5.13505C31.24 5.13505 31.2866 5.09619 31.2866 5.00293C31.2866 4.43559 30.8592 4.04701 30.253 4.04701ZM33.859 6.03657C33.859 6.56505 34.1155 6.81375 34.6284 6.81375H35.1725V7.41217H34.5663C33.6803 7.41217 33.1829 6.92255 33.1829 6.01326V4.1325H32.4523V3.54184H33.1829V2.40717H33.859V3.54184H35.1725V4.1325H33.859V6.03657ZM39.0939 6.6894C39.0939 6.78266 39.1405 6.82152 39.2338 6.82152H39.5913V7.41217H39.1561C38.6975 7.41217 38.4722 7.17902 38.4644 6.71271H38.2934L38.0059 7.31114C37.7805 7.42771 37.4929 7.48989 37.1587 7.48989C36.3116 7.48989 35.822 7.07021 35.822 6.35521C35.822 5.71016 36.195 5.38375 37.0189 5.29826L38.2856 5.16614C38.3789 5.15837 38.4178 5.11174 38.4178 5.01847C38.4178 4.39674 38.0447 4.04701 37.3919 4.04701C36.7313 4.04701 36.3893 4.3501 36.3505 4.97962H35.6977C35.7521 4.01592 36.366 3.46413 37.4308 3.46413C38.4877 3.46413 39.0939 4.08587 39.0939 5.14282V6.6894ZM38.4178 5.6713V5.50809L37.2675 5.65576C36.708 5.7257 36.4748 5.92 36.4748 6.30081C36.4748 6.69717 36.7546 6.92255 37.2598 6.92255C38.0369 6.92255 38.4178 6.51065 38.4178 5.6713ZM40.5844 2.98228C40.2502 2.98228 40.0559 2.78799 40.0559 2.46157C40.0559 2.14293 40.2502 1.94087 40.5844 1.94087C40.9108 1.94087 41.1051 2.14293 41.1051 2.46157C41.1051 2.78799 40.9108 2.98228 40.5844 2.98228ZM40.9186 3.54184V7.41217H40.2424V3.54184H40.9186ZM42.7477 7.41217H42.0715V1.94087H42.7477V7.41217ZM46.2632 6.37076C46.2632 5.39152 43.7219 6.20755 43.7219 4.62989C43.7219 3.89934 44.2814 3.46413 45.2296 3.46413C46.2321 3.46413 46.7839 3.9382 46.8694 4.86304H46.2244C46.1622 4.30347 45.8435 4.03924 45.2296 4.03924C44.6778 4.03924 44.3902 4.22576 44.3902 4.57549C44.3902 5.5625 46.9316 4.74646 46.9316 6.31636C46.9316 7.05467 46.3409 7.48989 45.3306 7.48989C44.2581 7.48989 43.6752 6.98472 43.6208 6.02103H44.2581C44.2892 6.61945 44.6467 6.91478 45.3306 6.91478C45.9368 6.91478 46.2632 6.72826 46.2632 6.37076Z" fill="white"/>
</svg>
