<svg width="216" height="41" viewBox="0 0 216 41" fill="none" xmlns="http://www.w3.org/2000/svg">
<rect x="1.2834" y="13.4484" width="213.425" height="26.3568" rx="4.17851" stroke="#E5EAE9" stroke-opacity="0.2" stroke-width="0.642848"/>
<path opacity="0.6" d="M12.5403 24.7201V25.9711H15.4652V27.1861H12.5403V28.6261H15.5552V29.8411H11.1903V23.5052H15.5552V24.7201H12.5403ZM20.7704 26.2591H21.0224L21.4814 25.3051C21.8054 25.2421 22.0394 25.2151 22.2464 25.2151C23.3803 25.2151 23.8663 25.8451 23.8663 27.2941V29.8411H22.5614V27.5191C22.5614 26.6911 22.3094 26.3491 21.7154 26.3491C21.1124 26.3491 20.8604 26.7001 20.8604 27.5191V29.8411H19.5554V27.5191C19.5554 26.6911 19.3034 26.3491 18.7094 26.3491C18.1064 26.3491 17.8544 26.7001 17.8544 27.5191V29.8411H16.5494V25.3051H17.7644V26.2591H18.0164L18.4754 25.3051C18.7994 25.2421 19.0334 25.2151 19.2404 25.2151C20.0774 25.2151 20.5634 25.5481 20.7704 26.2591ZM28.96 28.5631C28.96 28.6711 29.014 28.7161 29.122 28.7161H29.365V29.8411H28.78C28.096 29.8411 27.79 29.5621 27.745 28.8871H27.493L27.034 29.8411C26.773 29.9041 26.548 29.9311 26.269 29.9311C25.279 29.9311 24.721 29.4541 24.721 28.6171C24.721 27.7981 25.135 27.3931 26.08 27.2941L27.493 27.1501C27.61 27.1411 27.655 27.0961 27.655 26.9971C27.655 26.5471 27.322 26.2951 26.746 26.2951C26.17 26.2951 25.864 26.5111 25.801 27.0961H24.541C24.64 25.8991 25.396 25.2151 26.791 25.2151C28.195 25.2151 28.96 25.9531 28.96 27.2941V28.5631ZM25.981 28.3831C25.981 28.6621 26.233 28.8421 26.62 28.8421C27.322 28.8421 27.628 28.5181 27.655 27.7171L26.62 27.8611C26.17 27.9241 25.981 28.0771 25.981 28.3831ZM30.6096 24.9001C30.0606 24.9001 29.7276 24.5851 29.7276 24.0631C29.7276 23.5412 30.0606 23.2262 30.6096 23.2262C31.1495 23.2262 31.4825 23.5412 31.4825 24.0631C31.4825 24.5851 31.1495 24.9001 30.6096 24.9001ZM31.2575 25.3051V29.8411H29.9526V25.3051H31.2575ZM33.5515 29.8411H32.2465V23.5052H33.5515V29.8411ZM40.8715 29.8411L40.4305 28.4911H38.0725L37.6316 29.8411H36.2546L38.4685 23.5052H40.0435L42.2575 29.8411H40.8715ZM38.9185 25.8811L38.4505 27.3211H40.0525L39.5845 25.8811L39.3865 24.8371H39.1165L38.9185 25.8811ZM45.1261 29.8951C44.9641 29.9221 44.8471 29.9311 44.6671 29.9311C43.3261 29.9311 42.5341 29.0581 42.5341 27.5731C42.5341 26.0881 43.3261 25.2151 44.6671 25.2151C45.0991 25.2151 45.45 25.3051 45.774 25.4941V23.5052H47.079V29.8411H45.864V28.8871H45.612L45.1261 29.8951ZM44.8291 28.7971C45.486 28.7971 45.864 28.3561 45.864 27.5731C45.864 26.7901 45.486 26.3491 44.8291 26.3491C44.1631 26.3491 43.7941 26.7901 43.7941 27.5731C43.7941 28.3561 44.1631 28.7971 44.8291 28.7971ZM50.4785 29.8951C50.3165 29.9221 50.1995 29.9311 50.0195 29.9311C48.6785 29.9311 47.8866 29.0581 47.8866 27.5731C47.8866 26.0881 48.6785 25.2151 50.0195 25.2151C50.4515 25.2151 50.8025 25.3051 51.1265 25.4941V23.5052H52.4315V29.8411H51.2165V28.8871H50.9645L50.4785 29.8951ZM50.1815 28.7971C50.8385 28.7971 51.2165 28.3561 51.2165 27.5731C51.2165 26.7901 50.8385 26.3491 50.1815 26.3491C49.5155 26.3491 49.1465 26.7901 49.1465 27.5731C49.1465 28.3561 49.5155 28.7971 50.1815 28.7971ZM56.47 25.2421V26.5291H55.579C54.976 26.5291 54.724 26.8531 54.724 27.6091V29.8411H53.419V25.3051H54.634V26.3491H54.886L55.39 25.3051C55.642 25.2421 55.894 25.2151 56.11 25.2151C56.254 25.2151 56.38 25.2241 56.47 25.2421ZM61.0806 27.7711H58.1016C58.1556 28.4551 58.5336 28.8421 59.1546 28.8421C59.6856 28.8421 59.9646 28.6171 60.0636 28.0861H61.3326C61.2426 29.2561 60.4416 29.9311 59.1546 29.9311C57.6966 29.9311 56.8776 29.0761 56.8776 27.5731C56.8776 26.0791 57.6966 25.2151 59.1096 25.2151C60.4506 25.2151 61.2426 26.0881 61.2426 27.5731C61.2426 27.7081 61.1886 27.7711 61.0806 27.7711ZM59.1096 26.3041C58.5966 26.3041 58.2456 26.6281 58.1286 27.1681L59.7756 27.1411C59.8836 27.1411 59.9376 27.0961 59.9376 26.9881C59.9376 26.5741 59.6136 26.3041 59.1096 26.3041ZM64.7936 28.4911C64.7936 27.7621 61.9587 28.6891 61.9587 26.7181C61.9587 25.7461 62.6697 25.2151 63.9477 25.2151C65.1806 25.2151 65.8916 25.7731 66.0086 26.8261H64.7936C64.7126 26.4391 64.4426 26.2501 63.9477 26.2501C63.4617 26.2501 63.2187 26.3851 63.2187 26.6551C63.2187 27.3841 66.0536 26.4571 66.0536 28.4281C66.0536 29.4001 65.3336 29.9311 64.0197 29.9311C62.7057 29.9311 61.9587 29.3551 61.8687 28.2661H63.0837C63.1287 28.6801 63.4527 28.8961 64.0197 28.8961C64.5326 28.8961 64.7936 28.7611 64.7936 28.4911ZM69.5221 28.4911C69.5221 27.7621 66.6871 28.6891 66.6871 26.7181C66.6871 25.7461 67.3981 25.2151 68.6761 25.2151C69.9091 25.2151 70.6201 25.7731 70.7371 26.8261H69.5221C69.4411 26.4391 69.1711 26.2501 68.6761 26.2501C68.1901 26.2501 67.9471 26.3851 67.9471 26.6551C67.9471 27.3841 70.7821 26.4571 70.7821 28.4281C70.7821 29.4001 70.0621 29.9311 68.7481 29.9311C67.4341 29.9311 66.6871 29.3551 66.5971 28.2661H67.8121C67.8571 28.6801 68.1811 28.8961 68.7481 28.8961C69.2611 28.8961 69.5221 28.7611 69.5221 28.4911Z" fill="white"/>
<path opacity="0.6" d="M4.94069 3.06346V4.74216H7.58308V5.36389H4.94069V7.29129H7.6608V7.91302H4.24123V2.44172H7.6608V3.06346H4.94069ZM11.8104 4.74216H11.9736L12.2612 4.12819C12.5332 4.01938 12.813 3.96498 13.1005 3.96498C14.1109 3.96498 14.5772 4.51677 14.5772 5.72917V7.91302H13.901V5.7758C13.901 4.92091 13.5979 4.54009 12.9296 4.54009C12.269 4.54009 11.9581 4.91313 11.9581 5.7758V7.91302H11.2819V5.7758C11.2819 4.92091 10.9788 4.54009 10.3105 4.54009C9.64988 4.54009 9.33901 4.91313 9.33901 5.7758V7.91302H8.66287V4.0427H9.29238V4.68775H9.46336L9.72759 4.12819C9.95298 4.02716 10.2405 3.96498 10.4892 3.96498C11.1654 3.96498 11.5928 4.21368 11.8104 4.74216ZM18.8228 7.19025C18.8228 7.28351 18.8695 7.32237 18.9627 7.32237H19.3202V7.91302H18.885C18.4265 7.91302 18.2011 7.67987 18.1933 7.21357H18.0223L17.7348 7.81199C17.5094 7.92857 17.2219 7.99074 16.8877 7.99074C16.0406 7.99074 15.5509 7.57107 15.5509 6.85607C15.5509 6.21101 15.924 5.8846 16.7478 5.79911L18.0146 5.66699C18.1078 5.65922 18.1467 5.61259 18.1467 5.51933C18.1467 4.89759 17.7737 4.54786 17.1208 4.54786C16.4602 4.54786 16.1183 4.85096 16.0794 5.48047H15.4266C15.481 4.51677 16.095 3.96498 17.1597 3.96498C18.2166 3.96498 18.8228 4.58672 18.8228 5.64368V7.19025ZM18.1467 6.17216V6.00895L16.9965 6.15661C16.4369 6.22656 16.2038 6.42085 16.2038 6.80167C16.2038 7.19802 16.4835 7.42341 16.9887 7.42341C17.7659 7.42341 18.1467 7.0115 18.1467 6.17216ZM20.3133 3.48313C19.9791 3.48313 19.7848 3.28884 19.7848 2.96243C19.7848 2.64379 19.9791 2.44172 20.3133 2.44172C20.6397 2.44172 20.834 2.64379 20.834 2.96243C20.834 3.28884 20.6397 3.48313 20.3133 3.48313ZM20.6475 4.0427V7.91302H19.9714V4.0427H20.6475ZM22.4766 7.91302H21.8004V2.44172H22.4766V7.91302Z" fill="white"/>
</svg>
