<svg width="215" height="59" viewBox="0 0 215 59" fill="none" xmlns="http://www.w3.org/2000/svg">
<rect x="0.897629" y="0.434814" width="214.068" height="26.9996" rx="5.14278" fill="white"/>
<path d="M106.614 13.7237V18.2725H105.161V7.03955H109.014C109.99 7.03955 110.823 7.36286 111.504 8.00946C112.2 8.65607 112.549 9.44553 112.549 10.3778C112.549 11.3327 112.2 12.1222 111.504 12.7613C110.83 13.4004 109.998 13.7161 109.014 13.7161H106.614V13.7237ZM106.614 8.42299V12.3402H109.044C109.619 12.3402 110.104 12.1447 110.482 11.7613C110.868 11.3778 111.065 10.9117 111.065 10.3854C111.065 9.86657 110.868 9.40794 110.482 9.02448C110.104 8.62599 109.627 8.43051 109.044 8.43051H106.614V8.42299Z" fill="black"/>
<path d="M116.349 10.3327C117.424 10.3327 118.272 10.6184 118.893 11.1898C119.513 11.7613 119.824 12.5432 119.824 13.5357V18.2724H118.439V17.2048H118.378C117.78 18.0845 116.978 18.5205 115.978 18.5205C115.123 18.5205 114.412 18.2724 113.836 17.7687C113.261 17.2649 112.973 16.6409 112.973 15.889C112.973 15.092 113.276 14.4605 113.882 13.9943C114.487 13.5206 115.297 13.2875 116.304 13.2875C117.167 13.2875 117.878 13.4454 118.431 13.7612V13.4304C118.431 12.9266 118.234 12.5056 117.833 12.1522C117.432 11.7988 116.962 11.6259 116.425 11.6259C115.615 11.6259 114.972 11.9643 114.502 12.6485L113.223 11.8515C113.927 10.8365 114.972 10.3327 116.349 10.3327ZM114.472 15.9116C114.472 16.2875 114.631 16.6033 114.957 16.8514C115.274 17.0995 115.653 17.2273 116.084 17.2273C116.698 17.2273 117.243 17.0018 117.719 16.5506C118.196 16.0995 118.439 15.5732 118.439 14.9642C117.984 14.6108 117.356 14.4304 116.546 14.4304C115.956 14.4304 115.464 14.5732 115.07 14.8514C114.669 15.1447 114.472 15.498 114.472 15.9116Z" fill="black"/>
<path d="M127.726 10.5809L122.882 21.6484H121.383L123.185 17.7763L119.99 10.5809H121.572L123.874 16.0996H123.904L126.144 10.5809H127.726Z" fill="black"/>
<path d="M100.833 12.8069C100.833 12.3362 100.791 11.8858 100.712 11.4528H94.6203V13.9339L98.1288 13.9347C97.9865 14.7602 97.5285 15.464 96.8268 15.9331V17.5429H98.9153C100.135 16.4219 100.833 14.7647 100.833 12.8069Z" fill="#4285F4"/>
<path d="M96.8279 15.9339C96.2465 16.3234 95.4979 16.5512 94.6221 16.5512C92.9303 16.5512 91.4951 15.4189 90.9811 13.8926H88.8268V15.5527C89.8942 17.6564 92.0878 19.1 94.6221 19.1C96.3737 19.1 97.8452 18.5278 98.9163 17.5429L96.8279 15.9339Z" fill="#34A853"/>
<path d="M90.7782 12.6607C90.7782 12.2321 90.8501 11.8178 90.9811 11.4284V9.76825H88.8268C88.3855 10.6382 88.1372 11.6201 88.1372 12.6607C88.1372 13.7013 88.3862 14.6832 88.8268 15.5531L90.9811 13.893C90.8501 13.5035 90.7782 13.0892 90.7782 12.6607Z" fill="#FABB05"/>
<path d="M94.6221 8.76966C95.5781 8.76966 96.4343 9.09672 97.1102 9.73581L98.961 7.89899C97.8369 6.85916 96.3714 6.22083 94.6221 6.22083C92.0886 6.22083 89.8942 7.66441 88.8268 9.76814L90.9811 11.4283C91.4951 9.90197 92.9303 8.76966 94.6221 8.76966Z" fill="#E94235"/>
<rect x="0.897629" y="31.2918" width="214.068" height="26.9996" rx="5.14278" fill="white"/>
<rect x="0.897629" y="31.2918" width="214.068" height="26.9996" rx="5.14278" stroke="black"/>
<path d="M99.5926 45.1449C99.0254 44.3548 98.8412 43.4813 99.0303 42.5293C99.166 41.8423 99.5441 41.2927 100.043 40.8216C100.184 40.6892 100.329 40.5616 100.47 40.4291C100.465 40.4193 100.46 40.4094 100.456 40.4045C100.397 40.3309 100.339 40.2622 100.276 40.1886C99.7914 39.6243 99.2145 39.2219 98.4825 39.0698C97.9153 38.952 97.3578 38.9962 96.8051 39.1581C96.4318 39.2661 96.0682 39.3887 95.695 39.4967C95.4332 39.5752 95.1617 39.6047 94.8902 39.5311C94.7012 39.482 94.5072 39.4378 94.323 39.3789C93.8722 39.2415 93.4213 39.0992 92.9511 39.0502C92.0058 38.9471 91.1962 39.2317 90.5369 39.9285C89.897 40.6057 89.5528 41.4252 89.4122 42.338C89.2522 43.3685 89.3201 44.3892 89.5867 45.3951C89.8873 46.5287 90.3866 47.5641 91.041 48.5308C91.3028 48.9136 91.6034 49.262 91.9912 49.5319C92.3742 49.7969 92.7863 49.9441 93.2517 49.8361C93.5474 49.7674 93.8286 49.6595 94.1146 49.5564C94.4879 49.419 94.8611 49.3013 95.2684 49.3111C95.5932 49.3209 95.9083 49.3994 96.2137 49.5024C96.5142 49.6006 96.81 49.6987 97.1105 49.792C97.7117 49.9735 98.2498 49.8263 98.7346 49.4387C98.8751 49.3258 99.0157 49.2031 99.1369 49.0657C99.7962 48.3444 100.286 47.5101 100.659 46.6072C100.722 46.4502 100.775 46.2932 100.839 46.1312C100.775 46.1067 100.722 46.0871 100.669 46.0625C100.218 45.8711 99.8786 45.5424 99.5975 45.1498L99.5926 45.1449ZM95.9083 39.0698C96.2573 38.9324 96.5385 38.6968 96.7954 38.4269C97.3626 37.8332 97.6923 37.1216 97.7553 36.2923C97.765 36.1402 97.7456 35.9881 97.7408 35.8212C95.9567 36.1795 95.026 37.367 94.9678 39.217C94.9726 39.217 94.9775 39.2268 94.9823 39.2268C95.2974 39.2072 95.6126 39.1826 95.9083 39.0649V39.0698ZM110.583 38.8735C109.894 38.2356 108.804 37.8773 107.31 37.8675C106.094 37.8577 105.139 37.9559 104.411 38.0736L104.329 49.7723L105.837 49.7822L105.871 45.0369C106.215 45.1252 106.632 45.1498 107.083 45.1498C108.556 45.1596 109.86 44.7327 110.665 43.8739C111.261 43.2654 111.576 42.4214 111.586 41.3516C111.596 40.2819 111.218 39.4329 110.578 38.8686L110.583 38.8735ZM107.126 43.923C106.622 43.923 106.205 43.8788 105.875 43.7905L105.909 39.1876C106.171 39.1189 106.675 39.0698 107.335 39.0747C109.002 39.0845 110.088 39.85 110.078 41.4154C110.069 43.0495 108.949 43.9377 107.126 43.923ZM124.927 41.4203L123.226 46.3962C123.012 47.0096 122.833 47.6573 122.673 48.1677H122.639C122.503 47.6573 122.3 46.99 122.116 46.4256L120.312 41.386L118.645 41.3762L121.694 49.2326C121.762 49.4239 121.796 49.5515 121.796 49.6349C121.796 49.7184 121.742 49.846 121.67 50.003C121.316 50.793 120.792 51.3819 120.375 51.7156C119.92 52.0983 119.415 52.3388 119.032 52.4615L119.406 53.7619C119.789 53.6932 120.535 53.438 121.287 52.7755C122.334 51.8677 123.09 50.3808 124.205 47.4758L126.537 41.4301L124.923 41.4203H124.927ZM118.262 44.6542C118.276 42.9514 117.66 41.1701 115.091 41.1504C114.034 41.1406 113.026 41.435 112.328 41.8865L112.667 42.9072C113.259 42.5244 114.078 42.284 114.858 42.2889C116.575 42.3036 116.759 43.5697 116.754 44.2714V44.4481C113.506 44.4088 111.693 45.5178 111.678 47.5739C111.669 48.8056 112.527 50.0226 114.228 50.0324C115.426 50.0422 116.332 49.4485 116.807 48.786H116.861L116.972 49.8607L118.359 49.8705C118.257 49.2914 118.228 48.5701 118.233 47.834L118.257 44.6542H118.262ZM116.768 46.9949C116.768 47.1519 116.73 47.3286 116.676 47.4856C116.429 48.202 115.731 48.9038 114.635 48.894C113.855 48.889 113.2 48.4081 113.205 47.4071C113.215 45.7583 115.111 45.4687 116.778 45.5178L116.768 46.9949Z" fill="black"/>
</svg>
