<svg width="76" height="26" viewBox="0 0 76 26" fill="none" xmlns="http://www.w3.org/2000/svg">
<rect x="0.956543" y="0.255493" width="74.1326" height="24.8696" rx="12.4348" fill="white" fill-opacity="0.2"/>
<g clip-path="url(#clip0_1417_213)">
<path d="M15.5136 7.534H29.4649V17.8458H15.5136V7.534Z" fill="#012169"/>
<path d="M17.1485 7.534L22.4675 11.4224L27.7646 7.534H29.4649V8.86593L24.2332 12.7114L29.4649 16.5353V17.8458H27.721L22.4893 14.0003L17.2793 17.8458H15.5136V16.5568L20.7235 12.7328L15.5136 8.9089V7.534H17.1485Z" fill="white"/>
<path d="M24.7563 13.5707L29.4649 16.9865V17.8458L23.5574 13.5707H24.7563ZM20.7453 14.0003L20.8761 14.7522L16.6908 17.8458H15.5136L20.7453 14.0003ZM29.4649 7.534V7.59845L24.037 11.6372L24.0806 10.692L28.3749 7.534H29.4649ZM15.5136 7.534L20.7235 11.315H19.4156L15.5136 8.43628V7.534Z" fill="#C8102E"/>
<path d="M20.7671 7.534V17.8458H24.255V7.534H20.7671ZM15.5136 10.9713V14.4085H29.4649V10.9713H15.5136Z" fill="white"/>
<path d="M15.5136 11.6802V13.7425H29.4649V11.6802H15.5136ZM21.4647 7.534V17.8458H23.5574V7.534H21.4647Z" fill="#C8102E"/>
</g>
<path d="M37.2527 11.0486V12.0603H39.6184V13.043H37.2527V14.2076H39.6911V15.1902H36.1609V10.0659H39.6911V11.0486H37.2527ZM42.315 12.366C41.7763 12.366 41.5507 12.6499 41.5507 13.3123V15.1902H40.4952V11.5217H41.4779V12.2932H41.6817L42.0529 11.5217C42.264 11.4707 42.4824 11.4489 42.708 11.4489C43.7052 11.4489 44.1274 11.9511 44.1274 13.1303V15.1902H43.072V13.3123C43.072 12.6426 42.8463 12.366 42.315 12.366ZM44.7426 14.3896C44.7426 14.0693 44.9318 13.8655 45.3176 13.7563C44.9464 13.5379 44.7426 13.1885 44.7426 12.7154C44.7426 11.9366 45.2594 11.4489 46.0746 11.4489C46.6205 11.4489 46.9481 11.6745 47.05 12.1258L47.0718 12.2205H47.2465L47.5814 11.5217C47.7269 11.478 47.9307 11.4489 48.0909 11.4489C48.1928 11.4489 48.3092 11.4562 48.4112 11.4707V12.366H48.0399C47.9526 12.366 47.9089 12.4024 47.9089 12.4898V12.7154C47.9089 13.5088 47.312 13.9819 46.3294 13.9819C46.1547 13.9819 45.9873 13.9674 45.8344 13.9383C45.7107 13.9674 45.6524 14.0329 45.6524 14.1494C45.6524 14.3022 45.7616 14.375 45.98 14.375H46.8171C47.7779 14.375 48.2729 14.7753 48.2729 15.5469C48.2729 16.3476 47.6614 16.7188 46.3367 16.7188H46.3003C45.1356 16.7188 44.5242 16.3621 44.5242 15.6925C44.5242 15.3504 44.7062 15.1247 45.0847 14.9937C44.859 14.8554 44.7426 14.6516 44.7426 14.3896ZM45.6524 12.7154C45.6524 13.0357 45.8999 13.2104 46.3294 13.2104C46.7588 13.2104 46.999 13.0357 46.999 12.7154C46.999 12.3952 46.7588 12.2205 46.3294 12.2205C45.8999 12.2205 45.6524 12.3952 45.6524 12.7154ZM46.1474 15.9109H46.5623C47.1009 15.9109 47.3266 15.8017 47.3266 15.5469C47.3266 15.3067 47.1228 15.183 46.7443 15.183H45.9654C45.6088 15.183 45.3977 15.3213 45.3977 15.5469C45.3977 15.8017 45.6161 15.9109 46.1474 15.9109ZM49.9029 15.1902H48.8475V10.0659H49.9029V15.1902ZM51.2341 11.1941C50.7901 11.1941 50.5208 10.9394 50.5208 10.5172C50.5208 10.095 50.7901 9.84026 51.2341 9.84026C51.6708 9.84026 51.9402 10.095 51.9402 10.5172C51.9402 10.9394 51.6708 11.1941 51.2341 11.1941ZM51.7582 11.5217V15.1902H50.7028V11.5217H51.7582ZM54.7417 14.0984C54.7417 13.5088 52.4488 14.2585 52.4488 12.6645C52.4488 11.8783 53.0239 11.4489 54.0575 11.4489C55.0547 11.4489 55.6297 11.9002 55.7243 12.7518H54.7417C54.6762 12.4388 54.4578 12.286 54.0575 12.286C53.6644 12.286 53.4679 12.3952 53.4679 12.6135C53.4679 13.2031 55.7607 12.4534 55.7607 14.0475C55.7607 14.8336 55.1784 15.263 54.1157 15.263C53.053 15.263 52.4488 14.7972 52.376 13.9164H53.3587C53.3951 14.2513 53.6571 14.426 54.1157 14.426C54.5306 14.426 54.7417 14.3168 54.7417 14.0984ZM58.202 12.366C57.6634 12.366 57.4377 12.6499 57.4377 13.3123V15.1902H56.3823V10.0659H57.4377V12.2205H57.6415L57.9836 11.5071C58.1874 11.4707 58.4349 11.4489 58.6315 11.4489C59.6505 11.4489 60.0145 12.0166 60.0145 13.1303V15.1902H58.959V13.3123C58.959 12.6426 58.7334 12.366 58.202 12.366Z" fill="white"/>
<defs>
<clipPath id="clip0_1417_213">
<rect x="15.5143" y="7.53436" width="13.9512" height="10.3118" rx="1.81972" fill="white"/>
</clipPath>
</defs>
</svg>
