<svg width="57" height="21" viewBox="0 0 57 21" fill="none" xmlns="http://www.w3.org/2000/svg">
<g clip-path="url(#clip0_1456_195)">
<path d="M5.61665 10.6198H5.59854C4.72199 10.6198 3.9704 10.9378 3.42708 11.4895V10.755H1.37154V20.2374H3.42708V17.1926C3.95953 17.7355 4.6912 18.0535 5.55688 18.0517H5.56956H5.57499C6.61997 18.0517 7.50377 17.6757 8.10866 17.0116C8.71536 16.3475 9.03592 15.418 9.03411 14.3375C9.03411 13.2552 8.71717 12.3258 8.11952 11.6616C7.52369 10.9975 6.64895 10.618 5.61665 10.6198ZM6.53304 15.7501C6.26319 16.0242 5.83941 16.1806 5.17294 16.1823C4.49923 16.1823 4.07182 16.0242 3.80016 15.7501C3.5285 15.476 3.36913 15.0262 3.36913 14.3357C3.36913 13.6453 3.5285 13.1955 3.80016 12.9214C4.07182 12.6473 4.49923 12.4909 5.17294 12.4892C5.83941 12.4892 6.26319 12.6455 6.53304 12.9214C6.80289 13.1955 6.96407 13.6453 6.96407 14.3357C6.96407 15.0262 6.8047 15.476 6.53304 15.7501Z" fill="white"/>
<path d="M23.4213 15.0867V15.0902L23.2148 15.7174L23.0229 15.1042L21.4853 10.7557H19.2215L22.264 18.395H19.801V20.2381H21.5613C22.2115 20.2381 22.7258 20.1344 23.137 19.8639C23.5481 19.5933 23.8161 19.1804 24.0298 18.6568L27.239 10.7557H24.9734L23.4213 15.0867Z" fill="white"/>
<path d="M43.7135 11.6625C43.1177 10.9983 42.243 10.6188 41.2107 10.6206H41.1925C40.316 10.6206 39.5644 10.9386 39.0211 11.4903V7.74969H36.9655V17.9155H39.0211V17.1934C39.5535 17.7363 40.2852 18.0543 41.1509 18.0526H41.1636H41.169C42.214 18.0526 43.0978 17.6766 43.7027 17.0124C44.3076 16.3483 44.6281 15.4206 44.6281 14.3401V14.3366C44.6281 13.256 44.3112 12.3266 43.7135 11.6625ZM42.1289 15.7509C41.859 16.025 41.4352 16.1814 40.7688 16.1814C40.095 16.1814 39.6676 16.0233 39.396 15.7492C39.1243 15.4751 38.965 15.0253 38.965 14.3348C38.965 13.6443 39.1243 13.1945 39.396 12.9205C39.6676 12.6464 40.095 12.49 40.7688 12.4882C41.4352 12.4882 41.859 12.6446 42.1289 12.9205C42.3987 13.1945 42.5599 13.6443 42.5599 14.3348C42.5599 15.0253 42.3987 15.4751 42.1289 15.7492V15.7509Z" fill="white"/>
<path d="M47.8856 15.9231V7.74969H45.83V16.2218C45.83 17.1565 46.6124 17.9155 47.5759 17.9155H49.1243V15.9214H47.8856V15.9231Z" fill="white"/>
<path d="M17.1469 10.755C16.5076 10.755 15.9607 11.1223 15.7089 11.6493C15.1566 10.994 14.3434 10.618 13.3817 10.6198H13.3673H13.3618C12.3368 10.6198 11.4656 10.9975 10.8716 11.6616C10.2758 12.3258 9.95885 13.2552 9.95885 14.3357C9.95885 15.418 10.2794 16.3475 10.8861 17.0116C11.491 17.6757 12.3748 18.0535 13.4198 18.0517H13.4252H13.4379C14.2927 18.0517 15.0207 17.7425 15.5532 17.2084V17.9147H17.6087V12.7492H18.3639V10.755H17.1487H17.1469ZM15.191 15.7484C14.9193 16.0224 14.4919 16.1788 13.8182 16.1806C13.1445 16.1806 12.7207 16.0242 12.4545 15.7501C12.1864 15.4778 12.0289 15.0262 12.0289 14.3357C12.0289 13.6435 12.1864 13.1937 12.4545 12.9214H12.4563C12.7243 12.6473 13.1463 12.4927 13.82 12.4909C14.4937 12.4909 14.9211 12.6491 15.1928 12.9231C15.4645 13.1972 15.6238 13.647 15.6238 14.3375C15.6238 15.028 15.4645 15.4778 15.1928 15.7519L15.191 15.7484Z" fill="white"/>
<path d="M34.4828 10.755C33.8435 10.755 33.2966 11.1223 33.0448 11.6493C32.4925 10.994 31.6793 10.618 30.7176 10.6198H30.7031H30.6977C29.6727 10.6198 28.8015 10.9975 28.2075 11.6616C27.6117 12.3258 27.2947 13.2535 27.2947 14.334V14.3375C27.2947 15.418 27.6153 16.3475 28.222 17.0116C28.8269 17.6757 29.7107 18.0535 30.7557 18.0517H30.7611H30.7738C31.6286 18.0517 32.3566 17.7425 32.8891 17.2084V17.9147H34.9446V12.7492H35.6998V10.755H34.4846H34.4828ZM32.5269 15.7484C32.2552 16.0224 31.8278 16.1788 31.1541 16.1806C30.4804 16.1806 30.0566 16.0242 29.7904 15.7501C29.5223 15.4778 29.3648 15.0262 29.3648 14.3357C29.3648 13.6435 29.5223 13.1937 29.7904 12.9214C30.0584 12.6473 30.4804 12.4927 31.1541 12.4909C31.8278 12.4909 32.2552 12.6491 32.5269 12.9231C32.7985 13.1972 32.9579 13.647 32.9579 14.3375C32.9579 15.028 32.7985 15.4778 32.5269 15.7519V15.7484Z" fill="white"/>
<path d="M55.8568 15.9213H52.1387C51.6117 15.9213 51.1155 16.2691 51.0412 16.7734C50.9525 17.3883 51.4415 17.9154 52.059 17.9154H55.7771C56.3041 17.9154 56.8004 17.5675 56.8746 17.0633C56.9634 16.4484 56.4744 15.9213 55.8568 15.9213Z" fill="url(#paint0_linear_1456_195)"/>
</g>
<path d="M2.21429 5.85839C1.88399 5.85839 1.64598 5.77096 1.4614 5.58152V6.78128H1.03881V3.39086H1.43225V3.79402H1.53912L1.70427 3.43943C1.84999 3.37143 2.01028 3.34229 2.20457 3.34229C2.89917 3.34229 3.29747 3.79888 3.29747 4.60034C3.29747 5.39208 2.89431 5.85839 2.21429 5.85839ZM2.16571 3.69687C1.66055 3.69687 1.45168 3.95917 1.45168 4.60034C1.45168 5.1735 1.70427 5.48437 2.16571 5.48437C2.62716 5.48437 2.87974 5.1735 2.87974 4.60034C2.87974 4.02231 2.61744 3.69687 2.16571 3.69687ZM3.71535 4.60034C3.71535 3.78916 4.11366 3.34229 4.84226 3.34229C5.57086 3.34229 5.97402 3.78916 5.97402 4.60034C5.97402 5.41151 5.57086 5.85839 4.84226 5.85839C4.11366 5.85839 3.71535 5.41151 3.71535 4.60034ZM4.13309 4.60034C4.13309 5.1735 4.38567 5.48437 4.84226 5.48437C5.3037 5.48437 5.55629 5.1735 5.55629 4.60034C5.55629 4.02717 5.3037 3.71144 4.84226 3.71144C4.38567 3.71144 4.13309 4.02717 4.13309 4.60034ZM8.38345 3.39086L8.86432 4.92578L8.93718 5.3338H9.0489L9.12176 4.92578L9.58806 3.39086H10.0204L9.24319 5.80981H8.7526L8.2523 4.25061L8.18429 3.84745H8.07258L7.99972 4.25061L7.50427 5.80981H7.01368L6.23164 3.39086H6.67366L7.14482 4.92578L7.21768 5.3338H7.32455L7.39741 4.92578L7.87828 3.39086H8.38345ZM12.3301 4.63434H10.6884C10.6981 5.20265 10.9604 5.49409 11.4461 5.49409C11.8444 5.49409 12.063 5.31922 12.1164 4.95007H12.5244C12.4759 5.52809 12.0776 5.85839 11.4461 5.85839C10.6835 5.85839 10.2803 5.42123 10.2803 4.60034C10.2803 3.7843 10.6787 3.34229 11.4024 3.34229C12.0776 3.34229 12.4759 3.76002 12.4759 4.4789C12.4759 4.58577 12.4273 4.63434 12.3301 4.63434ZM11.4024 3.70659C10.9992 3.70659 10.7515 3.95431 10.6981 4.40604L11.961 4.38661C12.0193 4.38661 12.0484 4.36233 12.0484 4.30404C12.0484 3.94945 11.7813 3.70659 11.4024 3.70659ZM14.404 3.386V3.77945H14.0494C13.6462 3.77945 13.4956 3.93974 13.4956 4.3769V5.80981H13.0731V3.39086H13.4665V3.79402H13.5734L13.7434 3.43458C13.8551 3.39086 14.0105 3.36172 14.1465 3.36172C14.2437 3.36172 14.3262 3.36657 14.404 3.386ZM16.6942 4.63434H15.0524C15.0621 5.20265 15.3244 5.49409 15.8101 5.49409C16.2084 5.49409 16.427 5.31922 16.4804 4.95007H16.8885C16.8399 5.52809 16.4416 5.85839 15.8101 5.85839C15.0475 5.85839 14.6444 5.42123 14.6444 4.60034C14.6444 3.7843 15.0427 3.34229 15.7664 3.34229C16.4416 3.34229 16.8399 3.76002 16.8399 4.4789C16.8399 4.58577 16.7913 4.63434 16.6942 4.63434ZM15.7664 3.70659C15.3632 3.70659 15.1155 3.95431 15.0621 4.40604L16.325 4.38661C16.3833 4.38661 16.4124 4.36233 16.4124 4.30404C16.4124 3.94945 16.1453 3.70659 15.7664 3.70659ZM18.8748 5.76124C18.7291 5.82924 18.5737 5.85839 18.3794 5.85839C17.6848 5.85839 17.2865 5.4018 17.2865 4.60034C17.2865 3.80373 17.6848 3.34229 18.3697 3.34229C18.6951 3.34229 18.9331 3.42972 19.1226 3.61916V2.39025H19.5452V5.80981H19.1517V5.40666H19.0448L18.8748 5.76124ZM18.4182 5.5038C18.9234 5.5038 19.1323 5.24151 19.1323 4.60034C19.1323 4.02231 18.8797 3.71144 18.4182 3.71144C17.9568 3.71144 17.7042 4.02231 17.7042 4.60034C17.7042 5.17836 17.9617 5.5038 18.4182 5.5038ZM23.6044 4.60034C23.6044 5.4018 23.2061 5.85839 22.5115 5.85839C22.3172 5.85839 22.1569 5.82924 22.0112 5.76124L21.846 5.40666H21.7391V5.80981H21.3457V2.39025H21.7683V3.6143C21.9529 3.42486 22.1909 3.34229 22.5212 3.34229C23.2012 3.34229 23.6044 3.80373 23.6044 4.60034ZM22.4726 5.5038C22.9243 5.5038 23.1866 5.17836 23.1866 4.60034C23.1866 4.02231 22.9341 3.71144 22.4726 3.71144C22.0112 3.71144 21.7586 4.02231 21.7586 4.60034C21.7586 5.24151 21.9674 5.5038 22.4726 5.5038ZM23.9075 6.78128V6.40727H24.0678C24.4515 6.40727 24.5778 6.31983 24.7041 5.93125L24.7235 5.87296L23.8152 3.39086H24.2572L24.8012 4.95492L24.879 5.36294H24.9907L25.0684 4.95492L25.6124 3.39086H26.0447L25.1704 5.78553C24.8692 6.60642 24.6798 6.78128 24.0678 6.78128H23.9075Z" fill="white"/>
<defs>
<linearGradient id="paint0_linear_1456_195" x1="57.7204" y1="16.9192" x2="52.0663" y2="16.9192" gradientUnits="userSpaceOnUse">
<stop stop-color="white" stop-opacity="0"/>
<stop offset="0.41" stop-color="white" stop-opacity="0.44"/>
<stop offset="0.82" stop-color="white" stop-opacity="0.84"/>
<stop offset="1" stop-color="white"/>
</linearGradient>
<clipPath id="clip0_1456_195">
<rect width="55.5124" height="12.4903" fill="white" transform="translate(1.37154 7.74969)"/>
</clipPath>
</defs>
</svg>
