<svg width="216" height="40" viewBox="0 0 216 40" fill="none" xmlns="http://www.w3.org/2000/svg">
<rect x="1.2834" y="12.8043" width="213.425" height="26.3568" rx="4.17851" stroke="#E5EAE9" stroke-opacity="0.2" stroke-width="0.642848"/>
<path opacity="0.6" d="M12.5397 29.197H11.1897V22.8611H15.5547V24.076H12.5397V25.327H15.4647V26.542H12.5397V29.197ZM18.6042 28.153C19.2702 28.153 19.5492 27.802 19.5492 26.983V24.661H20.8542V29.197H19.6392V28.243H19.3872L18.9282 29.197C18.6132 29.26 18.3342 29.287 18.0732 29.287C16.8132 29.287 16.3632 28.585 16.3632 27.208V24.661H17.6682V26.983C17.6682 27.811 17.9472 28.153 18.6042 28.153ZM23.1448 29.197H21.8398V22.8611H23.1448V29.197ZM25.4387 29.197H24.1337V22.8611H25.4387V29.197ZM32.4618 29.197L30.0228 24.508L29.7888 24.58L29.8968 25.534V29.197H28.5918V22.8611H30.5268L32.9657 27.55L33.1997 27.478L33.0917 26.524V22.8611H34.3967V29.197H32.4618ZM39.6292 27.919C39.6292 28.027 39.6832 28.072 39.7912 28.072H40.0342V29.197H39.4492C38.7652 29.197 38.4592 28.918 38.4142 28.243H38.1622L37.7032 29.197C37.4422 29.26 37.2172 29.287 36.9382 29.287C35.9482 29.287 35.3902 28.81 35.3902 27.973C35.3902 27.154 35.8042 26.749 36.7492 26.65L38.1622 26.506C38.2792 26.497 38.3242 26.452 38.3242 26.353C38.3242 25.903 37.9912 25.651 37.4152 25.651C36.8392 25.651 36.5332 25.867 36.4702 26.452H35.2102C35.3092 25.255 36.0652 24.571 37.4602 24.571C38.8642 24.571 39.6292 25.309 39.6292 26.65V27.919ZM36.6502 27.739C36.6502 28.018 36.9022 28.198 37.2892 28.198C37.9912 28.198 38.2972 27.874 38.3242 27.073L37.2892 27.217C36.8392 27.28 36.6502 27.433 36.6502 27.739ZM44.8427 25.615H45.0947L45.5537 24.661C45.8777 24.598 46.1117 24.571 46.3187 24.571C47.4526 24.571 47.9386 25.201 47.9386 26.65V29.197H46.6337V26.875C46.6337 26.047 46.3817 25.705 45.7877 25.705C45.1847 25.705 44.9327 26.056 44.9327 26.875V29.197H43.6277V26.875C43.6277 26.047 43.3757 25.705 42.7817 25.705C42.1787 25.705 41.9267 26.056 41.9267 26.875V29.197H40.6218V24.661H41.8367V25.615H42.0887L42.5477 24.661C42.8717 24.598 43.1057 24.571 43.3127 24.571C44.1497 24.571 44.6357 24.904 44.8427 25.615ZM52.9063 27.127H49.9273C49.9813 27.811 50.3593 28.198 50.9803 28.198C51.5113 28.198 51.7903 27.973 51.8893 27.442H53.1583C53.0683 28.612 52.2673 29.287 50.9803 29.287C49.5223 29.287 48.7034 28.432 48.7034 26.929C48.7034 25.435 49.5223 24.571 50.9353 24.571C52.2763 24.571 53.0683 25.444 53.0683 26.929C53.0683 27.064 53.0143 27.127 52.9063 27.127ZM50.9353 25.66C50.4223 25.66 50.0713 25.984 49.9543 26.524L51.6013 26.497C51.7093 26.497 51.7633 26.452 51.7633 26.344C51.7633 25.93 51.4393 25.66 50.9353 25.66Z" fill="white"/>
<path opacity="0.6" d="M4.94069 7.26874H4.24123V1.79743H7.6608V2.41917H4.94069V4.09787H7.58308V4.71961H4.94069V7.26874ZM10.1746 6.77135C10.9129 6.77135 11.2238 6.3983 11.2238 5.52787V3.39841H11.8999V7.26874H11.2704V6.62368H11.0994L10.8274 7.19879C10.571 7.29982 10.2834 7.34646 9.97253 7.34646C8.9078 7.34646 8.45704 6.78689 8.45704 5.58227V3.39841H9.13318V5.52787C9.13318 6.40607 9.43628 6.77135 10.1746 6.77135ZM13.7258 7.26874H13.0496V1.79743H13.7258V7.26874ZM15.5549 7.26874H14.8787V1.79743H15.5549V7.26874ZM22.1221 7.26874L19.3398 2.76113L19.1766 2.81553L19.2543 3.57716V7.26874H18.5704V1.79743H19.5108L22.293 6.29727L22.4562 6.25064L22.3785 5.48124V1.79743H23.0624V7.26874H22.1221ZM27.475 6.54597C27.475 6.63923 27.5216 6.67809 27.6149 6.67809H27.9724V7.26874H27.5371C27.0786 7.26874 26.8532 7.03559 26.8455 6.56928H26.6745L26.3869 7.16771C26.1615 7.28428 25.874 7.34646 25.5398 7.34646C24.6927 7.34646 24.2031 6.92678 24.2031 6.21178C24.2031 5.56673 24.5761 5.24031 25.3999 5.15482L26.6667 5.02271C26.76 5.01493 26.7988 4.9683 26.7988 4.87504C26.7988 4.2533 26.4258 3.90357 25.773 3.90357C25.1124 3.90357 24.7704 4.20667 24.7315 4.83618H24.0787C24.1331 3.87249 24.7471 3.32069 25.8118 3.32069C26.8688 3.32069 27.475 3.94243 27.475 4.99939V6.54597ZM26.7988 5.52787V5.36466L25.6486 5.51232C25.089 5.58227 24.8559 5.77656 24.8559 6.15738C24.8559 6.55374 25.1357 6.77912 25.6408 6.77912C26.418 6.77912 26.7988 6.36722 26.7988 5.52787ZM31.771 4.09787H31.9342L32.2218 3.4839C32.4938 3.3751 32.7736 3.32069 33.0612 3.32069C34.0715 3.32069 34.5378 3.87249 34.5378 5.08488V7.26874H33.8616V5.13151C33.8616 4.27662 33.5585 3.8958 32.8902 3.8958C32.2296 3.8958 31.9187 4.26885 31.9187 5.13151V7.26874H31.2426V5.13151C31.2426 4.27662 30.9395 3.8958 30.2711 3.8958C29.6105 3.8958 29.2996 4.26885 29.2996 5.13151V7.26874H28.6235V3.39841H29.253V4.04347H29.424L29.6882 3.4839C29.9136 3.38287 30.2011 3.32069 30.4498 3.32069C31.126 3.32069 31.5534 3.56939 31.771 4.09787ZM38.6902 5.38798H36.0633C36.0789 6.29727 36.4986 6.76357 37.2757 6.76357C37.913 6.76357 38.2628 6.48379 38.3482 5.89314H39.0011C38.9233 6.81798 38.2861 7.34646 37.2757 7.34646C36.0556 7.34646 35.4105 6.647 35.4105 5.33357C35.4105 4.02792 36.0478 3.32069 37.2058 3.32069C38.2861 3.32069 38.9233 3.98906 38.9233 5.13928C38.9233 5.31026 38.8456 5.38798 38.6902 5.38798ZM37.2058 3.90357C36.5607 3.90357 36.1644 4.29993 36.0789 5.02271L38.0995 4.99162C38.1928 4.99162 38.2394 4.95276 38.2394 4.8595C38.2394 4.29216 37.812 3.90357 37.2058 3.90357Z" fill="white"/>
</svg>
