<svg width="25" height="12" viewBox="0 0 25 12" fill="black" xmlns="http://www.w3.org/2000/svg"  >
<path d="M2.14239 4.33396L0.875 0.516222H1.41765L2.02399 2.39858C2.18723 2.91292 2.33523 3.37864 2.43659 3.82493H2.44825C2.57584 3.34452 2.72457 2.8698 2.89403 2.40212L3.5506 0.51092H4.08697L2.6967 4.33396H2.14239V4.33396ZM4.34978 3.0552C4.36233 3.72949 4.79556 4.00698 5.30682 4.00698C5.57232 4.01405 5.83602 3.96456 6.07909 3.86117L6.1652 4.21819C5.8719 4.33838 5.55527 4.39583 5.23686 4.38787C4.37848 4.38787 3.86453 3.83377 3.86453 3.00571C3.86453 2.17853 4.36054 1.5281 5.17317 1.5281C6.08358 1.5281 6.32575 2.31463 6.32575 2.82012C6.32489 2.89784 6.3195 2.97544 6.30961 3.05255L4.34978 3.0552V3.0552ZM5.83602 2.69905C5.83602 2.38179 5.70327 1.88866 5.13281 1.88866C4.61886 1.88866 4.39014 2.35263 4.35426 2.69905H5.83602ZM6.724 2.44277C6.724 2.1202 6.724 1.84183 6.70157 1.58731H7.14736L7.1635 2.12639H7.18593C7.2331 1.95835 7.3334 1.80949 7.47227 1.70143C7.61114 1.59337 7.78136 1.53173 7.9582 1.52545C8.00844 1.52422 8.05859 1.53018 8.10709 1.54312V2.01239C8.04808 2.00314 7.98813 2.00106 7.9286 2.0062C7.57251 2.0062 7.31868 2.27309 7.24961 2.64691C7.23497 2.72357 7.22717 2.80134 7.22629 2.87933V4.33485H6.724V2.44365V2.44277ZM8.96727 0.821995C8.96739 0.862564 8.95933 0.902753 8.94357 0.940235C8.92782 0.977716 8.90467 1.01175 8.87547 1.04035C8.84627 1.06895 8.81161 1.09157 8.77347 1.10687C8.73534 1.12218 8.6945 1.12989 8.65333 1.12954C8.58016 1.13004 8.50909 1.10541 8.45235 1.05989C8.39561 1.01437 8.35673 0.950798 8.3424 0.880098C8.32807 0.809399 8.33919 0.73599 8.37383 0.672488C8.40848 0.608985 8.46449 0.559355 8.53225 0.532129C8.57133 0.516937 8.61313 0.509722 8.65513 0.51092C8.71826 0.507842 8.78076 0.524579 8.83363 0.558723C8.88649 0.592866 8.927 0.642655 8.94932 0.700923C8.9642 0.739507 8.97033 0.780831 8.96727 0.821995V0.821995ZM8.40218 1.5935H8.91076V4.33396H8.40129L8.40308 1.5935H8.40218ZM9.57181 4.33396V1.9735H9.17984V1.5935H9.57181V1.4627C9.57181 1.07651 9.65791 0.726551 9.89471 0.504734C10.0786 0.336824 10.3226 0.244915 10.5746 0.250217C10.7226 0.250217 10.8688 0.27673 11.0069 0.329754L10.937 0.715946C10.8352 0.672228 10.725 0.651108 10.6141 0.654085C10.1826 0.654085 10.0723 1.02702 10.0723 1.4468V1.59173H10.745V1.97174H10.0723V4.33396H9.57181V4.33396ZM11.8124 0.821995C11.8125 0.862564 11.8045 0.902753 11.7887 0.940235C11.7729 0.977716 11.7498 1.01175 11.7206 1.04035C11.6914 1.06895 11.6567 1.09157 11.6186 1.10687C11.5805 1.12218 11.5396 1.12989 11.4985 1.12954C11.4257 1.12954 11.3551 1.10469 11.2988 1.05923C11.2426 1.01377 11.204 0.950493 11.1897 0.880177C11.1755 0.809861 11.1864 0.736844 11.2206 0.67355C11.2548 0.610256 11.3102 0.560593 11.3774 0.533013C11.4164 0.517566 11.4582 0.510051 11.5002 0.51092C11.5634 0.507842 11.6259 0.524579 11.6787 0.558723C11.7316 0.592866 11.7721 0.642655 11.7944 0.700923C11.8088 0.739808 11.8151 0.780459 11.8124 0.821995ZM11.2473 1.5935H11.7541V4.33396H11.2491L11.2473 1.5935ZM12.6483 3.0552C12.66 3.72949 13.0941 4.00698 13.6054 4.00698C13.87 4.01405 14.1346 3.96456 14.3768 3.86117L14.4638 4.21819C14.1696 4.33838 13.8538 4.39583 13.5354 4.38787C12.6761 4.38787 12.1631 3.83377 12.1631 3.00571C12.1631 2.17853 12.6582 1.5281 13.4717 1.5281C14.3821 1.5281 14.6243 2.31463 14.6243 2.82012C14.6236 2.89787 14.6179 2.9755 14.6073 3.05255L12.6483 3.0552V3.0552ZM14.1337 2.69905C14.1337 2.38179 14.0018 1.88866 13.4314 1.88866C12.9174 1.88866 12.6887 2.35263 12.6528 2.69905H14.1337ZM17.4318 0.312963V3.62697C17.4318 3.87177 17.4318 4.14838 17.4542 4.33573H16.9976L16.9743 3.86028H16.9627C16.8716 4.02893 16.7341 4.16879 16.5659 4.2637C16.3976 4.35862 16.2056 4.40473 16.0119 4.39671C15.3392 4.39671 14.8234 3.83642 14.8234 3.00306C14.8234 2.09104 15.3939 1.52898 16.0738 1.52898C16.2391 1.51927 16.4041 1.55293 16.5519 1.62652C16.6997 1.7001 16.825 1.81099 16.9151 1.94788H16.9268V0.312963H17.4344H17.4318V0.312963ZM16.9241 2.70966C16.9251 2.63892 16.9176 2.56831 16.9017 2.49933C16.8674 2.33347 16.7754 2.1846 16.6416 2.07843C16.5079 1.97226 16.3406 1.91546 16.1689 1.91783C15.645 1.91783 15.3347 2.3703 15.3347 2.97654C15.3347 3.53153 15.6101 3.99549 16.159 3.99549C16.3329 3.99417 16.5012 3.93455 16.6362 3.82646C16.7712 3.71836 16.8648 3.56823 16.9017 3.40074C16.9182 3.33006 16.9257 3.25762 16.9241 3.18511V2.70966ZM19.3091 4.33396C19.3216 4.14661 19.3315 3.86912 19.3315 3.62609V0.312079H19.8329V2.03537H19.8446C19.9409 1.87355 20.0805 1.74096 20.2482 1.65211C20.4159 1.56326 20.6052 1.52158 20.7953 1.53164C21.4878 1.53164 21.9838 2.09899 21.9703 2.93059C21.9703 3.91154 21.3425 4.39759 20.7191 4.39759C20.5299 4.40815 20.3417 4.36527 20.1764 4.274C20.0112 4.18273 19.8758 4.04686 19.7862 3.88237H19.7701L19.7477 4.33308H19.31L19.3091 4.33396ZM19.8338 3.2346C19.8341 3.33551 19.8547 3.43537 19.8943 3.52843C19.934 3.62149 19.9919 3.70591 20.0647 3.77686C20.1376 3.84781 20.2239 3.90388 20.3188 3.94186C20.4137 3.97983 20.5153 3.99896 20.6177 3.99814C21.1487 3.99814 21.4653 3.57395 21.4653 2.94473C21.4653 2.39505 21.1765 1.92667 20.6366 1.92667C20.4571 1.93031 20.284 1.99236 20.1441 2.10315C20.0042 2.21394 19.9055 2.36723 19.8634 2.5391C19.8454 2.60538 19.8365 2.67431 19.8338 2.74235V3.23636V3.2346V3.2346ZM22.5246 1.5935L23.1337 3.21427C23.1973 3.39632 23.2673 3.61195 23.3121 3.77544H23.3238C23.3758 3.61107 23.4332 3.40162 23.5023 3.20367L24.0548 1.59526H24.5912L23.8333 3.54832C23.4709 4.48862 23.2234 4.97114 22.8762 5.26542C22.7008 5.42472 22.4863 5.5362 22.2538 5.58887L22.1282 5.1691C22.2905 5.11607 22.4421 5.03388 22.5731 4.92518C22.7569 4.77495 22.9031 4.58495 23 4.37108C23.0202 4.33414 23.0338 4.2941 23.0404 4.25266C23.0355 4.20756 23.0237 4.16346 23.0054 4.12187L21.9739 1.59438H22.5255L22.5246 1.5935V1.5935ZM9.28658 6.2066L7.74921 10.0288L7.12673 6.78015C7.10212 6.62006 7.01972 6.4741 6.89465 6.36906C6.76959 6.26403 6.61027 6.20697 6.44594 6.20837H3.93269L3.89861 6.37098C4.40252 6.47041 4.89206 6.63069 5.35615 6.84819C5.57321 6.96661 5.6351 7.06648 5.70507 7.34309L6.88275 11.8236H8.44614L10.8392 6.20837H9.28747V6.2066H9.28658ZM11.4733 6.2066L10.2526 11.8227H11.729L12.9488 6.2066H11.4733ZM14.8871 7.76375C14.8871 7.56314 15.088 7.34839 15.515 7.29183C16.0144 7.24319 16.518 7.3271 16.9734 7.53486L17.2317 6.34535C16.7901 6.18156 16.3223 6.09686 15.8504 6.09525C14.3884 6.09525 13.3632 6.8588 13.3524 7.95286C13.3453 8.7606 14.0879 9.21307 14.6467 9.48173C15.2055 9.75127 15.4091 9.93862 15.4091 10.1861C15.4091 10.5634 14.9499 10.7278 14.5265 10.734C13.9981 10.7451 13.4755 10.6234 13.008 10.3805L12.7434 11.6089C13.2672 11.8086 13.8251 11.9094 14.3866 11.9076C15.9366 11.9076 16.9519 11.152 16.9564 9.98546C16.9564 8.50255 14.8773 8.42125 14.8871 7.75933V7.76375ZM19.1656 9.83434L19.9504 7.72574L20.3962 9.83434H19.1656ZM19.727 6.20837C19.5924 6.20734 19.4605 6.246 19.3483 6.31938C19.2361 6.39277 19.1487 6.49752 19.0974 6.62019L16.881 11.8227H18.4328L18.7422 10.985H20.6339L20.8106 11.8227H22.1802L20.9917 6.20837H19.727Z" />
</svg>
