<svg width="34" height="10" viewBox="0 0 34 10" fill="black" xmlns="http://www.w3.org/2000/svg">
<path d="M3.30953 6.68252C3.14092 6.57906 2.95982 6.49682 2.77046 6.43773C2.57792 6.37899 2.37734 6.34978 2.17579 6.35112C2.05233 6.34995 1.92918 6.3633 1.80894 6.39089C1.70774 6.41325 1.61104 6.45207 1.52281 6.50577C1.44849 6.55217 1.38566 6.61438 1.33893 6.68782C1.29482 6.75941 1.27212 6.84181 1.27346 6.92555C1.27142 6.99868 1.29173 7.07073 1.33176 7.13234C1.37451 7.19202 1.43109 7.24079 1.4968 7.27462C1.57932 7.31881 1.66812 7.35151 1.7596 7.37272C1.87441 7.401 1.99102 7.42309 2.10852 7.43812L2.38657 7.47347C2.54802 7.49556 2.70678 7.52914 2.86195 7.57509C3.00995 7.6184 3.15076 7.68291 3.27723 7.76775C3.39922 7.84905 3.50057 7.9551 3.57412 8.07882C3.65126 8.21757 3.68893 8.37399 3.68445 8.53218C3.68893 8.71423 3.64409 8.89451 3.55529 9.05447C3.46919 9.2047 3.34989 9.33461 3.20548 9.43448C3.05017 9.54101 2.87714 9.61997 2.69422 9.66778C2.49288 9.72201 2.28494 9.74877 2.07622 9.74732C1.78585 9.74469 1.49737 9.70094 1.21964 9.61741C1.07935 9.57493 0.942856 9.52113 0.811532 9.45657C0.686253 9.39542 0.568814 9.31977 0.461716 9.23122L0.814221 8.73632C0.889564 8.8026 0.972981 8.85828 1.06268 8.90512C1.37418 9.06834 1.72075 9.15591 2.07353 9.16052C2.19731 9.16052 2.32109 9.14815 2.44218 9.12163C2.54622 9.09954 2.64668 9.06154 2.73907 9.0094C2.81787 8.96455 2.88582 8.90333 2.93819 8.83C2.98651 8.75961 3.01186 8.67636 3.01084 8.59139C3.01026 8.51827 2.98818 8.44688 2.94726 8.38587C2.90635 8.32485 2.84837 8.27683 2.78033 8.24762C2.56746 8.15303 2.34014 8.0939 2.10762 8.07264L1.79548 8.03199C1.64714 8.01205 1.50094 7.97892 1.35866 7.93301C1.22107 7.88991 1.09188 7.82418 0.976568 7.73859C0.864483 7.65521 0.772575 7.54836 0.707481 7.42574C0.635139 7.28393 0.599696 7.12662 0.604334 6.96797C0.600935 6.78933 0.644174 6.61284 0.729906 6.4554C0.812425 6.30693 0.92813 6.17791 1.06985 6.07893C1.22233 5.97288 1.39275 5.89423 1.57394 5.84651C1.77435 5.79225 1.9814 5.76548 2.18924 5.76697C2.45743 5.76343 2.72472 5.80055 2.98125 5.87744C3.21326 5.94994 3.4346 6.05215 3.63961 6.18144L3.30953 6.68164V6.68252ZM5.49718 6.97504C5.67773 6.97294 5.85684 7.00691 6.02369 7.0749C6.18066 7.1403 6.32058 7.23751 6.4336 7.36035C6.5511 7.4876 6.64079 7.6343 6.69999 7.79514C6.76726 7.97808 6.79955 8.17073 6.79686 8.36515V8.47474C6.79686 8.51185 6.79686 8.54544 6.78789 8.57902H4.75451C4.76911 8.68639 4.80475 8.78994 4.85945 8.88391C4.90689 8.9619 4.96863 9.03053 5.04153 9.08628C5.11441 9.14045 5.19682 9.1809 5.28461 9.20559C5.3761 9.2321 5.47117 9.24447 5.56625 9.24447C5.70707 9.24447 5.84789 9.21884 5.98063 9.17201C6.11787 9.1234 6.24703 9.05447 6.36094 8.9661L6.65783 9.37703C6.50147 9.5074 6.31948 9.60457 6.12325 9.66248C5.9301 9.71806 5.72979 9.74574 5.52857 9.74467C5.33693 9.74665 5.14657 9.71369 4.96709 9.64746C4.80141 9.58505 4.65063 9.48956 4.52421 9.36698C4.39779 9.2444 4.29847 9.09738 4.23249 8.93516C4.16143 8.75338 4.12612 8.55994 4.12844 8.36515C4.12575 8.17073 4.15983 7.97719 4.2298 7.79514C4.29004 7.63176 4.38461 7.48276 4.50734 7.35788C4.63007 7.233 4.77817 7.13507 4.94197 7.07048C5.11867 7.0042 5.30703 6.9715 5.49718 6.97504ZM5.48732 7.4876C5.39013 7.48588 5.29345 7.50176 5.20209 7.53444C5.12156 7.56395 5.048 7.60936 4.98592 7.66789C4.92425 7.72739 4.8741 7.79746 4.83793 7.87468C4.79863 7.958 4.77145 8.04636 4.7572 8.13715H6.18245C6.16388 7.95491 6.08327 7.78423 5.95373 7.65286C5.8266 7.5391 5.65886 7.47967 5.48732 7.4876V7.4876ZM8.67328 6.97504C8.87068 6.97327 9.06655 7.00929 9.25001 7.08109C9.42312 7.15002 9.5765 7.25783 9.6958 7.3957L9.31459 7.79514C9.22663 7.71259 9.12616 7.64401 9.0168 7.59189C8.90478 7.54411 8.78366 7.5206 8.66162 7.52295C8.5515 7.52175 8.44228 7.5425 8.34051 7.58393C8.24316 7.62383 8.15521 7.6831 8.08218 7.75803C8.00793 7.83477 7.94972 7.92516 7.91086 8.02403C7.82831 8.24539 7.82831 8.48845 7.91086 8.70981C7.94961 8.809 8.00783 8.8997 8.08218 8.9767C8.15526 9.05157 8.24319 9.11083 8.34051 9.1508C8.45089 9.19455 8.5692 9.21555 8.68814 9.21251C8.80708 9.20947 8.92412 9.18245 9.03205 9.13312C9.14058 9.08275 9.24104 9.01647 9.32894 8.93693L9.69938 9.33285C9.57688 9.46962 9.42445 9.5772 9.2536 9.64746C9.0711 9.71935 8.87609 9.75538 8.67955 9.75351C8.47623 9.75633 8.27429 9.72032 8.08487 9.64746C7.91604 9.58207 7.76253 9.48344 7.63371 9.35759C7.50664 9.23271 7.40737 9.08313 7.3422 8.91837C7.20391 8.56398 7.20391 8.17164 7.3422 7.81724C7.40735 7.65247 7.50662 7.50288 7.63371 7.37802C7.76241 7.25204 7.91596 7.15339 8.08487 7.08816C8.27144 7.01392 8.47057 6.97592 8.67238 6.97504H8.67328V6.97504ZM12.7696 8.56134C12.775 8.74693 12.7382 8.93075 12.6611 9.10042C12.5956 9.24182 12.4979 9.3682 12.3741 9.46982C12.2548 9.56527 12.1167 9.63774 11.9669 9.68015C11.6602 9.77014 11.3335 9.77014 11.0269 9.68015C10.8777 9.63741 10.7387 9.56592 10.6179 9.46982C10.4948 9.36992 10.3966 9.24355 10.3308 9.10042C10.2553 8.93068 10.2189 8.74659 10.2241 8.56134V7.04485H10.8259V8.50832C10.8233 8.6179 10.8403 8.72837 10.878 8.83177C10.9098 8.91438 10.9608 8.98852 11.0269 9.04828C11.0877 9.10404 11.1607 9.14517 11.2403 9.16847C11.4126 9.21796 11.5964 9.21796 11.7677 9.16847C11.8501 9.14309 11.9255 9.0997 11.9884 9.04155C12.0513 8.9834 12.1001 8.91198 12.131 8.83265C12.1652 8.728 12.1801 8.61815 12.175 8.50832V7.04485H12.7696V8.56223V8.56134ZM14.9573 6.97504C15.0407 6.97504 15.1241 6.98122 15.2057 6.9936C15.2793 7.00508 15.351 7.02364 15.4201 7.04927L15.2712 7.61928C15.2009 7.586 15.1264 7.56222 15.0497 7.54858C14.9724 7.53275 14.8936 7.52446 14.8147 7.52384C14.7243 7.5228 14.6345 7.5387 14.5501 7.57068C14.4712 7.60233 14.4006 7.65129 14.3438 7.71384C14.284 7.77812 14.238 7.85355 14.2083 7.93566C14.1743 8.0322 14.1579 8.13394 14.1599 8.23613V9.68546H13.5652V7.04308H14.1599V7.34002C14.2455 7.2181 14.3638 7.12203 14.5016 7.06253C14.6469 7.00155 14.8039 6.97239 14.9618 6.97504H14.9573V6.97504ZM16.9718 6.97504C17.1521 6.97327 17.3315 7.00685 17.4974 7.0749C17.6544 7.1403 17.7943 7.23751 17.9082 7.36035C18.0266 7.48672 18.1181 7.6343 18.1782 7.79514C18.2437 7.97808 18.2742 8.17162 18.2688 8.36515V8.47474C18.2688 8.51185 18.2688 8.54544 18.2598 8.57902H16.2327C16.248 8.68416 16.2833 8.78551 16.3368 8.87772C16.4322 9.0371 16.5859 9.15443 16.7664 9.20559C16.8579 9.2321 16.9521 9.24447 17.0472 9.24447C17.1889 9.24447 17.3297 9.21884 17.4616 9.17201C17.5991 9.12404 17.7278 9.05451 17.8428 8.9661L18.1397 9.37703C17.9831 9.50707 17.8011 9.6042 17.6051 9.66248C17.4119 9.71801 17.2116 9.74569 17.0104 9.74467C16.8166 9.74719 16.624 9.71392 16.4426 9.64657C16.2774 9.58406 16.127 9.48861 16.0009 9.3662C15.8748 9.24379 15.7757 9.09705 15.7098 8.93516C15.6383 8.7535 15.603 8.55998 15.6058 8.36515C15.6022 8.17073 15.6372 7.97719 15.7062 7.79514C15.7681 7.63165 15.8641 7.4823 15.9879 7.35593C16.109 7.2322 16.2552 7.13499 16.4184 7.07048C16.5951 7.0042 16.7844 6.9715 16.9745 6.97504H16.9718V6.97504ZM16.9593 7.4876C16.8621 7.48602 16.7654 7.50189 16.674 7.53444C16.5937 7.56376 16.5204 7.6092 16.4588 7.66789C16.3971 7.72759 16.3467 7.79761 16.3099 7.87468C16.2705 7.95788 16.2436 8.0463 16.2301 8.13715H17.6553C17.6378 7.9555 17.5589 7.78493 17.4311 7.65286C17.3038 7.53864 17.1357 7.47888 16.9638 7.48672H16.9593V7.4876ZM20.861 5.75725C21.035 5.75725 21.2072 5.77492 21.3767 5.81204C21.691 5.88191 21.984 6.02426 22.2315 6.2274C22.3472 6.32461 22.4477 6.43773 22.5284 6.56322L21.9849 6.90964C21.8632 6.73807 21.7009 6.59825 21.5122 6.50224C21.3107 6.40343 21.0878 6.35459 20.8628 6.35996C20.6688 6.35768 20.4761 6.39187 20.295 6.4607C20.1272 6.52567 19.9747 6.62379 19.8468 6.74902C19.7189 6.87426 19.6184 7.02396 19.5515 7.1889C19.4079 7.55654 19.4079 7.96217 19.5515 8.32892C19.6184 8.49389 19.7189 8.64362 19.8467 8.76886C19.9746 8.8941 20.1272 8.9922 20.295 9.05712C20.4753 9.12694 20.6682 9.16052 20.8628 9.15875C21.0834 9.16317 21.3014 9.11456 21.4978 9.01735C21.6927 8.92101 21.8602 8.77824 21.9849 8.602L22.5123 8.97317C22.3397 9.21932 22.1042 9.41624 21.8297 9.54406C21.6877 9.61252 21.5381 9.66442 21.3839 9.69871C20.932 9.79466 20.4617 9.76092 20.0286 9.6015C19.7811 9.50962 19.5552 9.36888 19.3649 9.18791C19.1765 9.00884 19.0286 8.79262 18.9308 8.55339C18.7244 8.04112 18.7244 7.47052 18.9308 6.95825C19.0276 6.71964 19.1756 6.50401 19.3649 6.32372C19.5541 6.14344 19.7802 6.00204 20.0286 5.90925C20.2941 5.80819 20.5764 5.75665 20.861 5.75725V5.75725ZM24.403 6.97504C24.6067 6.97239 24.8085 7.00862 24.9977 7.08109C25.1717 7.1456 25.3314 7.24281 25.4668 7.36565C25.5996 7.49114 25.7045 7.63961 25.7763 7.80487C25.9252 8.15836 25.9252 8.55251 25.7763 8.90512C25.7045 9.06949 25.5996 9.21885 25.4668 9.34434C25.3304 9.46797 25.1712 9.56458 24.9977 9.6289C24.6179 9.77018 24.1989 9.77018 23.8191 9.6289C23.6456 9.56519 23.4866 9.4685 23.3509 9.34434C23.2195 9.21979 23.1148 9.0704 23.0433 8.90512C22.9691 8.73091 22.931 8.54389 22.931 8.35499C22.931 8.16609 22.9691 7.97908 23.0433 7.80487C23.1139 7.64067 23.2169 7.49196 23.3464 7.36742C23.481 7.24369 23.6406 7.14648 23.8146 7.08197C24.0012 7.01039 24.2012 6.97415 24.403 6.97592V6.97504ZM24.403 7.51677C24.2862 7.51563 24.1701 7.53663 24.0613 7.57863C23.9596 7.61828 23.867 7.67767 23.789 7.75327C23.7111 7.82888 23.6493 7.91915 23.6074 8.01873C23.5195 8.23911 23.5195 8.48413 23.6074 8.70451C23.6492 8.80421 23.7108 8.89465 23.7886 8.97051C23.868 9.04654 23.9623 9.10578 24.0658 9.14461C24.2846 9.2268 24.5286 9.2268 24.7475 9.14461C24.8503 9.1064 24.9441 9.04756 25.0227 8.9718C25.1012 8.89604 25.163 8.80502 25.204 8.70451C25.292 8.48413 25.292 8.23911 25.204 8.01873C25.1623 7.9186 25.1004 7.82792 25.0219 7.75224C24.9434 7.67656 24.85 7.61748 24.7475 7.57863C24.6378 7.53631 24.5208 7.51531 24.403 7.51677V7.51677ZM27.6859 6.97504C27.8512 6.96957 28.0155 7.0022 28.1658 7.07032C28.316 7.13844 28.4481 7.24017 28.5514 7.36742V5.71836H29.1452V9.67839H28.5514V9.36201C28.4555 9.48122 28.3342 9.57834 28.1962 9.64657C28.0373 9.71989 27.8631 9.7556 27.6877 9.75085C27.507 9.7526 27.3278 9.71897 27.1604 9.65191C26.993 9.58486 26.8408 9.48572 26.7127 9.36024C26.5847 9.23483 26.4835 9.08551 26.4149 8.92103C26.2734 8.56294 26.2734 8.1656 26.4149 7.80752C26.518 7.55923 26.6945 7.34724 26.9215 7.1991C27.1485 7.05095 27.4154 6.9735 27.6877 6.9768L27.6859 6.97415V6.97504ZM27.7576 7.51677C27.6381 7.51475 27.5195 7.53764 27.4096 7.58393C27.3116 7.62617 27.2234 7.68782 27.1506 7.76505C27.0777 7.84228 27.0218 7.93344 26.9862 8.03287C26.9091 8.24497 26.9091 8.47474 26.9862 8.68683C27.0218 8.78626 27.0777 8.87743 27.1506 8.95466C27.2234 9.03189 27.3116 9.09354 27.4096 9.13577C27.6296 9.22385 27.8758 9.22385 28.0958 9.13577C28.1938 9.09545 28.2825 9.03575 28.3562 8.96036C28.43 8.88497 28.4872 8.79549 28.5245 8.69744C28.6052 8.48004 28.6052 8.2432 28.5245 8.0258C28.4873 7.92657 28.4298 7.83592 28.3556 7.75946C28.2814 7.683 28.192 7.62236 28.0931 7.58128C27.9871 7.53784 27.8733 7.5159 27.7585 7.51677H27.7576ZM31.1445 6.97504C31.3257 6.97327 31.5042 7.00685 31.671 7.0749C31.8271 7.1403 31.967 7.23751 32.0809 7.36035C32.1984 7.4876 32.289 7.6343 32.3482 7.79514C32.4147 7.9755 32.4475 8.16622 32.4451 8.35808V8.46767C32.4451 8.50479 32.4451 8.53837 32.4361 8.57195H30.4027C30.418 8.67928 30.454 8.78275 30.5086 8.87684C30.6039 9.03607 30.7577 9.15312 30.9382 9.20382C31.0288 9.23033 31.1239 9.24359 31.2189 9.2427C31.5074 9.23686 31.7862 9.1392 32.0136 8.96433L32.3114 9.37527C32.1545 9.5053 31.9723 9.60243 31.776 9.66071C31.5828 9.71629 31.3825 9.74398 31.1813 9.7429C30.9875 9.74554 30.795 9.71258 30.6135 9.64569C30.4488 9.58271 30.2989 9.48719 30.173 9.365C30.0471 9.2428 29.948 9.09653 29.8816 8.93516C29.8108 8.75333 29.7758 8.55988 29.7784 8.36515C29.7749 8.17073 29.8089 7.97719 29.878 7.79514C29.9408 7.63254 30.0359 7.48495 30.1588 7.35858C30.2805 7.23474 30.4276 7.13775 30.5902 7.07402C30.7673 7.00592 30.9562 6.97231 31.1463 6.97504H31.1445V6.97504ZM32.7303 9.68369V9.55113H32.785V9.52373H32.637V9.55025H32.6935V9.68281H32.7303V9.68369ZM33.0057 9.68369V9.51932H32.9626L32.9115 9.6289L32.8613 9.51932H32.8182V9.67839H32.8496V9.5582L32.8971 9.6616H32.9276L32.9761 9.5582V9.67927L33.0057 9.68369V9.68369ZM31.1328 7.49202C31.0357 7.49006 30.939 7.50563 30.8476 7.53798C30.767 7.56777 30.6935 7.61348 30.6315 7.67231C30.5698 7.73182 30.5196 7.80189 30.4834 7.8791C30.4441 7.96241 30.417 8.05077 30.4027 8.14157H31.828C31.8112 7.95809 31.7315 7.78572 31.6019 7.65286C31.4741 7.53917 31.3058 7.47978 31.1337 7.4876L31.1328 7.49114V7.49202ZM5.28191 4.24606H4.6101V0.953257L3.39294 3.85545H2.68525L1.47437 0.990374V4.24606H0.796278V0.255105H1.82956L3.04044 3.10604L4.25132 0.255105H5.28461L5.28191 4.24606V4.24606ZM8.82217 4.24606H8.20058V3.91819C8.10016 4.03833 7.97436 4.13544 7.83194 4.20276C7.66774 4.27889 7.48774 4.31611 7.30633 4.31146C7.11878 4.31314 6.93275 4.27824 6.75895 4.20878C6.58515 4.13931 6.42703 4.03665 6.29367 3.9067C6.16523 3.77609 6.06433 3.62171 5.99678 3.45246C5.84967 3.08079 5.84967 2.66821 5.99678 2.29654C6.06405 2.12774 6.16451 1.97309 6.29367 1.84141C6.42621 1.71038 6.58419 1.60701 6.75817 1.53746C6.93216 1.46792 7.11859 1.43364 7.30633 1.43666C7.48841 1.43224 7.66869 1.46936 7.83194 1.54624C7.97545 1.61694 8.10102 1.71681 8.20058 1.83788V1.51355H8.82217V4.24606ZM7.37898 2.00402C7.25484 2.0019 7.13165 2.0257 7.01751 2.07383C6.91565 2.11772 6.82406 2.1818 6.74842 2.26207C6.67341 2.34497 6.61579 2.44168 6.5789 2.54663C6.49996 2.76619 6.49996 3.00579 6.5789 3.22534C6.61568 3.33061 6.6733 3.42763 6.74842 3.51079C6.82377 3.59033 6.91526 3.65484 7.01751 3.69903C7.24592 3.79003 7.50128 3.79003 7.72969 3.69903C7.83255 3.65577 7.92533 3.5922 8.00231 3.51225C8.07929 3.43231 8.13883 3.33767 8.17726 3.23418C8.25975 3.00947 8.25975 2.76339 8.17726 2.53868C8.13851 2.43628 8.07899 2.34273 8.00235 2.26372C7.92571 2.18472 7.83355 2.12191 7.73148 2.07914C7.62049 2.03041 7.50048 2.00484 7.37898 2.00402V2.00402ZM11.6772 2.19844C11.5598 2.13303 11.4352 2.08114 11.3058 2.04379C11.225 2.02045 11.143 2.00157 11.06 1.98723C10.9733 1.97194 10.8854 1.96425 10.7972 1.96425C10.6592 1.95641 10.5217 1.98736 10.4008 2.05351C10.3568 2.07604 10.3197 2.10984 10.2935 2.15136C10.2673 2.19288 10.2529 2.24059 10.2519 2.28947C10.2505 2.33213 10.2635 2.37406 10.2887 2.40877C10.3156 2.44235 10.3497 2.46975 10.3882 2.48831C10.4356 2.51112 10.4856 2.52804 10.5371 2.53868C10.5945 2.55105 10.6564 2.56166 10.7219 2.57138L11.0188 2.6138C11.2807 2.64031 11.5318 2.72868 11.7471 2.8745C11.8319 2.93823 11.9 3.0211 11.9456 3.11614C11.9912 3.21118 12.0129 3.31561 12.009 3.42065C12.0101 3.54612 11.9799 3.66993 11.9211 3.78121C11.8604 3.89438 11.7738 3.9921 11.6682 4.06666C11.5448 4.15155 11.4068 4.21382 11.261 4.25048C11.0821 4.29623 10.8977 4.31823 10.7129 4.31587C10.6276 4.31517 10.5423 4.31075 10.4573 4.30262C10.2363 4.28266 10.0197 4.22931 9.81509 4.14443C9.70308 4.09664 9.59713 4.03614 9.49936 3.96415L9.7837 3.51874C9.89592 3.60403 10.0221 3.66979 10.1568 3.71317C10.2393 3.74145 10.3237 3.76177 10.4098 3.77503C10.5129 3.79182 10.6179 3.79889 10.7228 3.79889C10.8896 3.80773 11.0565 3.7768 11.2071 3.70875C11.2549 3.68728 11.2956 3.65305 11.3246 3.60993C11.3537 3.56682 11.3698 3.51655 11.3713 3.46484C11.3704 3.42523 11.3588 3.38656 11.3379 3.35274C11.3169 3.31891 11.2873 3.29113 11.252 3.27218C11.1363 3.21076 11.009 3.17346 10.878 3.1626L10.5802 3.12548C10.3192 3.10534 10.0693 3.01315 9.85904 2.85948C9.77994 2.79432 9.71682 2.71239 9.67442 2.61979C9.63201 2.5272 9.61141 2.42636 9.61417 2.32482C9.61048 2.19556 9.63848 2.06732 9.6958 1.951C9.75158 1.84398 9.83207 1.75136 9.9308 1.68057C10.0425 1.60075 10.168 1.54175 10.3012 1.50648C10.4609 1.46406 10.6259 1.44285 10.791 1.44461C11.0071 1.44461 11.2233 1.47113 11.4323 1.52415C11.6162 1.56834 11.7911 1.63904 11.9525 1.73625L11.6772 2.19756V2.19844ZM14.629 2.05528H13.5365V3.24567C13.5345 3.32491 13.5466 3.40389 13.5724 3.47898C13.5924 3.53819 13.6251 3.59246 13.6684 3.63805C13.7101 3.67878 13.7612 3.70908 13.8173 3.72642C13.8738 3.74675 13.9339 3.75647 13.994 3.75558C14.0957 3.75522 14.1965 3.73696 14.2918 3.70168C14.3886 3.66633 14.4819 3.62214 14.5698 3.57L14.8165 4.04722C14.6926 4.12296 14.5605 4.18491 14.4227 4.23192C14.2669 4.28712 14.1022 4.31406 13.9366 4.31146C13.6607 4.32679 13.3899 4.23403 13.1831 4.0534C13.0064 3.88726 12.9185 3.62126 12.9185 3.25716V2.05528H12.3508V1.51355H12.9185V0.685485H13.5428V1.51355H14.6353L14.629 2.05528V2.05528ZM16.5413 1.44285C16.7288 1.4402 16.9153 1.47554 17.0875 1.54624C17.249 1.61341 17.3943 1.71415 17.5127 1.83964C17.6338 1.97221 17.728 2.12686 17.7889 2.293C17.8571 2.48035 17.8903 2.67831 17.8885 2.87627V2.99027C17.8885 3.02915 17.8885 3.0645 17.8795 3.09897H15.7717C15.7872 3.21051 15.8247 3.31798 15.882 3.41535C15.9813 3.58033 16.1407 3.70172 16.3278 3.7547C16.4238 3.78121 16.5243 3.79535 16.6247 3.79447C16.9234 3.78793 17.2121 3.68693 17.4481 3.50637L17.7576 3.9341C17.5961 4.06931 17.4077 4.17094 17.2032 4.2328C17.0028 4.29057 16.795 4.31944 16.5861 4.31853C16.3831 4.32146 16.1814 4.28668 15.9915 4.21601C15.82 4.15315 15.6634 4.0563 15.5313 3.93145C15.401 3.80247 15.2996 3.64803 15.2335 3.47809C15.1602 3.28979 15.124 3.08943 15.1268 2.88776C15.1241 2.68803 15.16 2.49007 15.2309 2.30361C15.2972 2.13393 15.3977 1.97927 15.5277 1.84848C15.6533 1.72211 15.8058 1.62136 15.9735 1.55508C16.1538 1.48173 16.3467 1.44373 16.5413 1.44285V1.44285ZM16.5296 1.97309C16.4285 1.97102 16.3279 1.98719 16.2327 2.02081C16.149 2.05276 16.073 2.10152 16.0094 2.16398C15.9476 2.22606 15.8975 2.29847 15.8614 2.37784C15.8204 2.46412 15.7923 2.5558 15.778 2.65003H17.2571C17.2354 2.46306 17.1515 2.28842 17.0185 2.15337C16.9538 2.09205 16.877 2.04435 16.793 2.01321C16.7089 1.98206 16.6193 1.96811 16.5296 1.97221V1.97309ZM20.043 1.44285C20.1291 1.44196 20.2152 1.44815 20.3004 1.46052C20.3757 1.47289 20.4502 1.49322 20.522 1.51973L20.3731 2.10918C20.3006 2.07438 20.2236 2.04941 20.1443 2.03495C20.064 2.0186 19.9823 2.01002 19.9004 2.00932C19.8069 2.00841 19.7141 2.02491 19.6268 2.05793C19.5456 2.08919 19.4726 2.13813 19.4133 2.20109C19.3514 2.26757 19.3038 2.34574 19.2734 2.43086C19.2384 2.53088 19.2214 2.63616 19.2232 2.74194V4.24606H18.6016V1.51266H19.2169V1.82109C19.3062 1.69607 19.4284 1.59739 19.5703 1.53564C19.7194 1.47206 19.8805 1.44014 20.043 1.44196V1.44285ZM22.1705 1.44285C22.3742 1.44108 22.576 1.4782 22.7643 1.55243C22.9455 1.62313 23.1061 1.73536 23.2316 1.87853L22.8334 2.28593C22.7403 2.1998 22.6337 2.12907 22.5177 2.07649C22.4014 2.02669 22.2757 2.00198 22.149 2.00402C22.0348 2.00331 21.9217 2.02525 21.8162 2.06853C21.7149 2.10966 21.6233 2.17113 21.5473 2.24902C21.4713 2.32692 21.4126 2.41955 21.3749 2.52101C21.2889 2.75117 21.2889 3.00402 21.3749 3.23418C21.4129 3.33644 21.4721 3.4298 21.5487 3.5083C21.6253 3.58681 21.7176 3.64875 21.8198 3.69019C21.9341 3.73521 22.0565 3.75686 22.1796 3.75382C22.3026 3.75078 22.4237 3.72312 22.5356 3.67251C22.6508 3.62117 22.7573 3.55261 22.8513 3.46925L23.2343 3.87931C23.1056 4.02282 22.9446 4.13478 22.7643 4.20629C22.576 4.28052 22.3742 4.31764 22.1705 4.31587C21.9602 4.31875 21.7513 4.28154 21.5552 4.20629C21.3789 4.13915 21.2186 4.03686 21.0843 3.90582C20.9512 3.77638 20.8472 3.62068 20.7794 3.44893C20.6368 3.08191 20.6368 2.67593 20.7794 2.30891C20.8485 2.13679 20.9532 1.98069 21.0868 1.85048C21.2203 1.72027 21.3798 1.61878 21.5552 1.55243C21.7513 1.47718 21.9602 1.43997 22.1705 1.44285V1.44285ZM26.5485 4.24606H25.9279V3.91819C25.8194 4.04717 25.6822 4.14975 25.527 4.21795C25.3717 4.28616 25.2026 4.31816 25.0327 4.31146C24.8453 4.31434 24.6591 4.27999 24.4855 4.21045C24.3118 4.14091 24.1541 4.0376 24.0218 3.9067C23.8934 3.77609 23.7925 3.62171 23.7249 3.45246C23.5778 3.08079 23.5778 2.66821 23.7249 2.29654C23.7922 2.12774 23.8927 1.97309 24.0218 1.84141C24.1541 1.71051 24.3118 1.60721 24.4855 1.53767C24.6591 1.46813 24.8453 1.43378 25.0327 1.43666C25.2145 1.43191 25.3949 1.46945 25.5592 1.54624C25.7027 1.61694 25.8283 1.71681 25.9279 1.83788V1.51355H26.5485V4.24606ZM25.1053 2.00402C24.9815 2.00195 24.8586 2.02574 24.7448 2.07383C24.6423 2.11815 24.5503 2.18311 24.4747 2.26453C24.3992 2.34596 24.3418 2.44205 24.3062 2.54663C24.2263 2.76602 24.2263 3.00595 24.3062 3.22534C24.3417 3.32998 24.3991 3.42612 24.4746 3.50756C24.5501 3.589 24.6422 3.65392 24.7448 3.69814C24.9728 3.78956 25.228 3.78956 25.4561 3.69814C25.5588 3.65485 25.6514 3.59137 25.7284 3.5116C25.8053 3.43183 25.865 3.33743 25.9036 3.23418C25.987 3.00963 25.987 2.76323 25.9036 2.53868C25.8646 2.43643 25.805 2.34302 25.7284 2.26405C25.6518 2.18507 25.5598 2.12218 25.4579 2.07914C25.3469 2.03029 25.2269 2.00471 25.1053 2.00402V2.00402ZM28.9075 1.44285C28.9936 1.44196 29.0797 1.44815 29.1649 1.46052C29.2403 1.47289 29.3147 1.49322 29.3865 1.51973L29.2376 2.10918C29.165 2.07465 29.0881 2.04969 29.0089 2.03495C28.9286 2.01872 28.8469 2.01014 28.7649 2.00932C28.6714 2.00839 28.5786 2.02489 28.4913 2.05793C28.4099 2.08916 28.3366 2.13809 28.277 2.20109C28.2153 2.26761 28.168 2.34578 28.1379 2.43086C28.1023 2.53075 28.085 2.63608 28.0868 2.74194V4.24606H27.4661V1.51266H28.0778V1.82109C28.1672 1.69582 28.2898 1.5971 28.4321 1.53564C28.5826 1.47144 28.7453 1.43951 28.9093 1.44196H28.9075V1.44285ZM30.9481 1.44285C31.1299 1.4381 31.3102 1.47564 31.4746 1.55243C31.6181 1.62313 31.7437 1.72299 31.8432 1.84406V0.134033H32.4639V4.24606H31.8432V3.91819C31.7348 4.04717 31.5976 4.14975 31.4423 4.21795C31.2871 4.28616 31.1179 4.31816 30.9481 4.31146C30.7606 4.31434 30.5745 4.27999 30.4008 4.21045C30.2271 4.14091 30.0695 4.0376 29.9372 3.9067C29.8088 3.77609 29.7079 3.62171 29.6403 3.45246C29.4932 3.08079 29.4932 2.66821 29.6403 2.29654C29.7076 2.12774 29.8081 1.97309 29.9372 1.84141C30.0695 1.71051 30.2271 1.60721 30.4008 1.53767C30.5745 1.46813 30.7606 1.43378 30.9481 1.43666V1.44285V1.44285ZM33.1913 3.99331C33.2395 3.99324 33.2858 4.01162 33.3205 4.04457C33.3375 4.06047 33.351 4.07992 33.36 4.10024C33.3699 4.1216 33.375 4.14481 33.375 4.16829C33.375 4.19177 33.3699 4.21498 33.36 4.23634C33.3508 4.25738 33.3374 4.27633 33.3205 4.29201C33.2851 4.32374 33.2392 4.34166 33.1913 4.34239C33.1554 4.34304 33.1201 4.33335 33.0896 4.31452C33.0592 4.29568 33.035 4.26851 33.02 4.23634C33.0103 4.21494 33.0054 4.19173 33.0057 4.16829C33.0056 4.14487 33.0105 4.12169 33.02 4.10024C33.0392 4.05822 33.0743 4.02524 33.1178 4.00833C33.1414 3.9986 33.1667 3.9935 33.1922 3.99331H33.1913V3.99331ZM33.1913 4.30262C33.2096 4.30306 33.2279 4.29993 33.245 4.29341C33.2621 4.28689 33.2777 4.2771 33.2909 4.26462C33.3151 4.23855 33.3285 4.2045 33.3285 4.16917C33.3285 4.13385 33.3151 4.0998 33.2909 4.07373C33.2777 4.06109 33.2622 4.05114 33.2451 4.04446C33.228 4.03779 33.2097 4.03452 33.1913 4.03485C33.172 4.03449 33.1529 4.03779 33.1348 4.04457C33.1146 4.05417 33.097 4.06827 33.0833 4.08576C33.0696 4.10325 33.0602 4.12364 33.0559 4.14531C33.0515 4.16642 33.0525 4.18826 33.0586 4.20894C33.0641 4.23007 33.0749 4.2495 33.09 4.2655C33.1029 4.278 33.1181 4.28791 33.1348 4.29466C33.1528 4.30085 33.1725 4.3035 33.1922 4.3035H33.1913V4.30262ZM33.2012 4.0861C33.2191 4.08522 33.2371 4.09052 33.2514 4.10024C33.2576 4.10469 33.2623 4.11084 33.2649 4.11792C33.2683 4.1238 33.2699 4.13058 33.2694 4.13736C33.2698 4.14337 33.2689 4.14941 33.2667 4.15503C33.264 4.16062 33.2604 4.16571 33.2559 4.17006C33.2449 4.17955 33.231 4.18515 33.2164 4.18597L33.2712 4.24783H33.2281L33.1779 4.18773H33.1608V4.24783H33.1312V4.08875L33.2012 4.0861ZM33.1599 4.11615V4.15945H33.2012C33.2085 4.16149 33.2163 4.16149 33.2236 4.15945C33.2264 4.15777 33.2286 4.15531 33.2299 4.15238C33.2316 4.14973 33.2325 4.14667 33.2325 4.14355C33.2325 4.14042 33.2316 4.13736 33.2299 4.13471C33.2286 4.13178 33.2264 4.12932 33.2236 4.12764C33.2163 4.1256 33.2085 4.1256 33.2012 4.12764L33.1599 4.11615V4.11615ZM31.0243 2.00402C30.9002 2.00196 30.777 2.02575 30.6628 2.07383C30.561 2.11772 30.4694 2.1818 30.3938 2.26207C30.3188 2.34498 30.2611 2.44169 30.2242 2.54663C30.1453 2.76619 30.1453 3.00579 30.2242 3.22534C30.261 3.3306 30.3187 3.42762 30.3938 3.51079C30.4691 3.59033 30.5606 3.65484 30.6628 3.69903C30.8913 3.78994 31.1466 3.78994 31.375 3.69903C31.4777 3.65327 31.5696 3.58708 31.645 3.5046C31.7207 3.42648 31.7804 3.33465 31.8208 3.23418C31.9042 3.00963 31.9042 2.76323 31.8208 2.53868C31.7823 2.43339 31.7224 2.33688 31.645 2.255C31.5685 2.17639 31.4767 2.11386 31.375 2.07118C31.264 2.02543 31.1446 2.00257 31.0243 2.00402V2.00402Z" />
</svg>
