<svg width="1396" height="338" viewBox="0 0 1396 338" fill="none" xmlns="http://www.w3.org/2000/svg">
<path d="M-128.431 892.951L765.692 69.62C773.392 62.5487 781.563 56.2631 789.891 50.449C829.491 19.7282 879.068 1.18579 933.124 1.18579C1062.45 1.18579 1167.34 105.998 1167.34 235.402L1167.34 2065.05C1167.34 2194.38 1062.53 2299.27 933.124 2299.27C803.798 2299.27 698.908 2194.46 698.908 2065.05L698.908 767.79L188.833 1237.56C93.6855 1325.16 -54.4969 1319.03 -142.102 1223.89C-229.707 1128.74 -223.579 980.557 -128.431 892.951Z" stroke="url(#paint0_linear_689_473)" stroke-width="0.819826" stroke-miterlimit="10"/>
<path d="M-66.7539 892.951L827.369 69.62C835.069 62.5487 843.24 56.2631 851.568 50.449C891.168 19.7282 940.745 1.18579 994.801 1.18579C1124.13 1.18579 1229.02 105.998 1229.02 235.402L1229.02 2065.05C1229.02 2194.38 1124.21 2299.27 994.801 2299.27C865.475 2299.27 760.585 2194.46 760.585 2065.05L760.585 767.79L250.51 1237.56C155.363 1325.16 7.18024 1319.03 -80.4249 1223.89C-168.03 1128.74 -161.902 980.557 -66.7539 892.951Z" stroke="url(#paint1_linear_689_473)" stroke-width="1.00201" stroke-miterlimit="10"/>
<path d="M-5.07664 892.951L889.046 69.62C896.746 62.5487 904.917 56.2631 913.246 50.449C952.845 19.7282 1002.5 1.18579 1056.48 1.18579C1185.8 1.18579 1290.69 105.998 1290.69 235.402L1290.69 2065.05C1290.69 2194.38 1185.88 2299.27 1056.48 2299.27C927.152 2299.27 822.262 2194.46 822.262 2065.05L822.262 767.79L312.188 1237.56C217.04 1325.16 68.8574 1319.03 -18.7478 1223.89C-106.353 1128.74 -100.225 980.557 -5.07664 892.951Z" stroke="url(#paint2_linear_689_473)" stroke-width="1.27528" stroke-miterlimit="10"/>
<path d="M56.6008 892.951L950.724 69.62C958.424 62.5487 966.595 56.2631 974.923 50.449C1014.52 19.7282 1064.18 1.18579 1118.23 1.18579C1247.56 1.18579 1352.45 105.998 1352.45 235.402L1352.45 2065.05C1352.45 2194.38 1247.64 2299.27 1118.23 2299.27C988.909 2299.27 884.018 2194.46 884.018 2065.05L884.018 767.79L373.944 1237.56C278.796 1325.16 130.613 1319.03 43.0083 1223.89C-44.5969 1128.74 -38.4684 980.557 56.6795 892.951H56.6008Z" stroke="url(#paint3_linear_689_473)" stroke-width="1.54856" stroke-miterlimit="10"/>
<path d="M118.357 892.951L1012.4 69.62C1020.1 62.5487 1028.27 56.2631 1036.6 50.449C1076.2 19.7282 1125.86 1.18579 1179.91 1.18579C1309.24 1.18579 1414.13 105.998 1414.13 235.402L1414.13 2065.05C1414.13 2194.38 1309.32 2299.27 1179.91 2299.27C1050.59 2299.27 945.696 2194.46 945.696 2065.05L945.696 767.79L435.621 1237.56C340.473 1325.16 192.291 1319.03 104.686 1223.89C17.0806 1128.74 23.209 980.557 118.357 892.951Z" stroke="url(#paint4_linear_689_473)" stroke-width="1.82183" stroke-miterlimit="10"/>
<path d="M180.034 892.951L1074.08 69.62C1081.78 62.5487 1089.95 56.2631 1098.28 50.449C1137.96 19.7282 1187.53 1.18579 1241.59 1.18579C1370.91 1.18579 1475.81 105.998 1475.81 235.402L1475.81 2065.05C1475.81 2194.38 1370.99 2299.27 1241.59 2299.27C1112.26 2299.27 1007.37 2194.46 1007.37 2065.05L1007.37 767.79L497.299 1237.56C402.151 1325.16 253.968 1319.03 166.363 1223.89C78.7579 1128.74 84.8863 980.557 180.034 892.951Z" stroke="url(#paint5_linear_689_473)" stroke-width="2.00402" stroke-miterlimit="10"/>
<path d="M241.711 892.951L1135.83 69.6197C1143.53 62.5484 1151.71 56.2629 1160.03 50.4487C1199.63 19.728 1249.21 1.18555 1303.27 1.18555C1432.59 1.18555 1537.48 106.076 1537.48 235.402L1537.48 2065.05C1537.48 2194.38 1432.67 2299.27 1303.27 2299.27C1173.94 2299.27 1069.05 2194.46 1069.05 2065.05L1069.05 767.79L558.976 1237.56C463.828 1325.16 315.645 1319.03 228.04 1223.89C140.435 1128.74 146.563 980.556 241.711 892.951Z" stroke="url(#paint6_linear_689_473)" stroke-width="2.27729" stroke-miterlimit="10"/>
<defs>
<linearGradient id="paint0_linear_689_473" x1="1167.65" y1="1150.19" x2="-204.329" y2="1150.19" gradientUnits="userSpaceOnUse">
<stop stop-color="#6FE0EF"/>
<stop offset="0.37" stop-color="#69E3CD"/>
<stop offset="1" stop-color="#60EA98"/>
</linearGradient>
<linearGradient id="paint1_linear_689_473" x1="1229.49" y1="-1477.81" x2="-142.731" y2="-1477.81" gradientUnits="userSpaceOnUse">
<stop stop-color="#6FE0EF"/>
<stop offset="0.37" stop-color="#69E3CD"/>
<stop offset="1" stop-color="#60EA98"/>
</linearGradient>
<linearGradient id="paint2_linear_689_473" x1="1291.24" y1="-1477.81" x2="-81.1321" y2="-1477.81" gradientUnits="userSpaceOnUse">
<stop stop-color="#6FE0EF"/>
<stop offset="0.37" stop-color="#69E3CD"/>
<stop offset="1" stop-color="#60EA98"/>
</linearGradient>
<linearGradient id="paint3_linear_689_473" x1="1353.08" y1="-1477.81" x2="-19.5332" y2="-1477.81" gradientUnits="userSpaceOnUse">
<stop stop-color="#6FE0EF"/>
<stop offset="0.37" stop-color="#69E3CD"/>
<stop offset="1" stop-color="#60EA98"/>
</linearGradient>
<linearGradient id="paint4_linear_689_473" x1="1414.84" y1="-1477.81" x2="42.0658" y2="-1477.81" gradientUnits="userSpaceOnUse">
<stop stop-color="#6FE0EF"/>
<stop offset="0.37" stop-color="#69E3CD"/>
<stop offset="1" stop-color="#60EA98"/>
</linearGradient>
<linearGradient id="paint5_linear_689_473" x1="1476.67" y1="-1477.81" x2="103.664" y2="-1477.81" gradientUnits="userSpaceOnUse">
<stop stop-color="#6FE0EF"/>
<stop offset="0.37" stop-color="#69E3CD"/>
<stop offset="1" stop-color="#60EA98"/>
</linearGradient>
<linearGradient id="paint6_linear_689_473" x1="1538.43" y1="-1477.81" x2="165.184" y2="-1477.81" gradientUnits="userSpaceOnUse">
<stop stop-color="#6FE0EF"/>
<stop offset="0.37" stop-color="#69E3CD"/>
<stop offset="1" stop-color="#60EA98"/>
</linearGradient>
</defs>
</svg>
