<svg width="37" height="36" viewBox="0 0 37 36" fill="none" xmlns="http://www.w3.org/2000/svg">
<path d="M18.5797 0.00195312C8.56328 0.00195312 0.449219 8.05403 0.449219 17.9939C0.449219 27.9338 8.56328 35.9859 18.5797 35.9859C28.5961 35.9859 36.7101 27.9338 36.7101 17.9939C36.7101 8.05403 28.5961 0.00195312 18.5797 0.00195312ZM24.429 10.7381H21.9832C20.3397 10.7381 20.0291 11.5471 20.0291 12.6901V15.4512H24.2608L23.6655 19.0727H20.042V29.2437H16.3926V19.0855H12.7432V15.464H16.4056V12.125C16.4056 8.74751 18.4114 6.75697 21.4526 6.75697C22.902 6.75697 24.0926 6.91107 24.4549 6.96244V10.7509L24.429 10.7381Z" fill="#022128"/>
</svg>
