<svg width="38" height="36" viewBox="0 0 38 36" fill="none" xmlns="http://www.w3.org/2000/svg">
<path d="M24.2321 8.63086H13.8404C11.498 8.63086 9.5957 10.5187 9.5957 12.8431V23.1554C9.5957 25.4799 11.498 27.3677 13.8404 27.3677H24.2321C26.5744 27.3677 28.4767 25.4799 28.4767 23.1554V12.8431C28.4767 10.5187 26.5744 8.63086 24.2321 8.63086ZM19.0427 23.6306C15.9239 23.6306 13.3745 21.1135 13.3745 18.0057C13.3745 14.8979 15.911 12.3808 19.0427 12.3808C22.1744 12.3808 24.7109 14.8979 24.7109 18.0057C24.7109 21.1135 22.1744 23.6306 19.0427 23.6306ZM25.0603 13.3183C24.3485 13.3183 23.7662 12.7404 23.7662 12.0341C23.7662 11.3277 24.3485 10.7498 25.0603 10.7498C25.7721 10.7498 26.3544 11.3277 26.3544 12.0341C26.3544 12.7404 25.7721 13.3183 25.0603 13.3183Z" fill="#022128"/>
<path d="M19.0289 0C9.01251 0 0.898438 8.05208 0.898438 17.992C0.898438 27.9319 9.01251 35.9839 19.0289 35.9839C29.0453 35.9839 37.1594 27.9319 37.1594 17.992C37.1594 8.05208 29.0453 0 19.0289 0ZM30.3653 23.1545C30.3653 26.5192 27.6088 29.2418 24.2312 29.2418H13.8395C10.449 29.2418 7.70545 26.5064 7.70545 23.1545V12.8422C7.70545 9.47757 10.4619 6.75501 13.8395 6.75501H24.2312C27.6218 6.75501 30.3653 9.49041 30.3653 12.8422V23.1545Z" fill="#022128"/>
<path d="M19.0288 21.7421C21.1158 21.7421 22.8076 20.0631 22.8076 17.9921C22.8076 15.9211 21.1158 14.2422 19.0288 14.2422C16.9418 14.2422 15.25 15.9211 15.25 17.9921C15.25 20.0631 16.9418 21.7421 19.0288 21.7421Z" fill="#022128"/>
</svg>
