<svg width="37" height="36" viewBox="0 0 37 36" fill="none" xmlns="http://www.w3.org/2000/svg">
<path d="M18.1305 0.00195312C8.11406 0.00195312 0 8.05403 0 17.9939C0 27.9338 8.11406 35.9859 18.1305 35.9859C28.1469 35.9859 36.2609 27.9338 36.2609 17.9939C36.2609 8.05403 28.1469 0.00195312 18.1305 0.00195312ZM12.5011 26.9835H8.26935V13.4863H12.5011V26.9835ZM10.3917 11.637C9.03288 11.637 7.93289 10.5454 7.93289 9.20983C7.93289 7.87424 9.03288 6.78265 10.3917 6.78265C11.7505 6.78265 12.8376 7.87424 12.8376 9.20983C12.8376 10.5454 11.7376 11.637 10.3917 11.637ZM24.1092 26.9835V20.4211C24.1092 18.8543 24.0834 16.8381 21.9093 16.8381C19.7352 16.8381 19.3728 18.5461 19.3728 20.3055V26.9835H15.154V13.4863H19.2046V15.3356H19.2563C19.8257 14.2697 21.1975 13.1524 23.2551 13.1524C27.5386 13.1524 28.328 15.952 28.328 19.5864V26.9835H24.0963H24.1092Z" fill="#022128"/>
</svg>
