<svg width="37" height="36" viewBox="0 0 37 36" fill="none" xmlns="http://www.w3.org/2000/svg">
<path d="M18.4918 0.00195312C8.47538 0.00195312 0.361328 8.05403 0.361328 17.9939C0.361328 27.9338 8.47538 35.9859 18.4918 35.9859C28.5082 35.9859 36.6222 27.9338 36.6222 17.9939C36.6222 8.05403 28.4952 0.00195312 18.4918 0.00195312ZM27.3694 13.4863C27.3694 13.6789 27.3823 13.8716 27.3823 14.077C27.3823 20.0872 22.7753 27.0092 14.3506 27.0092C11.7624 27.0092 9.35538 26.2515 7.33657 24.9673C7.69892 25.0058 8.06127 25.0315 8.42362 25.0315C10.5718 25.0315 12.5389 24.2995 14.1048 23.0923C12.0989 23.0538 10.4165 21.7439 9.83419 19.9331C10.1189 19.9845 10.4036 20.0101 10.7012 20.0101C11.1154 20.0101 11.5165 19.9588 11.9048 19.856C9.80832 19.4322 8.22949 17.6087 8.22949 15.3998C8.22949 15.3869 8.22949 15.3613 8.22949 15.3484C8.85066 15.6952 9.54949 15.8878 10.3001 15.9135C9.07067 15.1044 8.26833 13.7046 8.26833 12.1379C8.26833 11.3031 8.48833 10.5197 8.8895 9.85194C11.1542 12.6002 14.5189 14.4109 18.3235 14.6036C18.2459 14.2697 18.2071 13.9229 18.2071 13.5633C18.2071 11.0591 20.2518 9.0172 22.7882 9.0172C24.1082 9.0172 25.2988 9.56942 26.127 10.4555C27.1752 10.2501 28.1458 9.87763 29.0388 9.3511C28.7023 10.417 27.9776 11.3031 27.02 11.8682C27.9517 11.7526 28.8317 11.5086 29.647 11.149C29.0388 12.0608 28.2623 12.857 27.3564 13.4991L27.3694 13.4863Z" fill="#022128"/>
</svg>
