<svg width="133" height="31" viewBox="0 0 133 31" fill="none" xmlns="http://www.w3.org/2000/svg">
<g clip-path="url(#clip0_1_1678)">
<path d="M10.1707 7.12526H10.1273C8.02721 7.12526 6.22651 7.91454 4.9248 9.28379V7.46103H0V30.9956H4.9248V23.4385C6.20048 24.786 7.95345 25.5753 10.0275 25.5709H10.0579H10.0709C12.5745 25.5709 14.692 24.6377 16.1412 22.9894C17.5948 21.341 18.3628 19.0342 18.3584 16.3524C18.3584 13.6663 17.5991 11.3595 16.1672 9.71114C14.7397 8.0628 12.6439 7.1209 10.1707 7.12526ZM12.3662 19.8584C11.7197 20.5387 10.7044 20.9268 9.10763 20.9311C7.49351 20.9311 6.4695 20.5387 5.81864 19.8584C5.16779 19.1782 4.78595 18.0618 4.78595 16.3481C4.78595 14.6343 5.16779 13.518 5.81864 12.8377C6.4695 12.1575 7.49351 11.7694 9.10763 11.765C10.7044 11.765 11.7197 12.1531 12.3662 12.8377C13.0128 13.518 13.3989 14.6343 13.3989 16.3481C13.3989 18.0618 13.0171 19.1782 12.3662 19.8584Z" fill="white"/>
<path d="M52.8277 18.2102V18.219L52.3331 19.7757L51.8731 18.2538L48.1893 7.46118H42.7655L50.0551 26.4214H44.154V30.9957H48.3715C49.9292 30.9957 51.1615 30.7384 52.1465 30.0669C53.1315 29.3953 53.7736 28.3706 54.2856 27.0711L61.9744 7.46118H56.5463L52.8277 18.2102Z" fill="white"/>
<path d="M101.442 9.71121C100.015 8.06288 97.919 7.12097 95.4457 7.12533H95.4023C93.3022 7.12533 91.5015 7.91462 90.1998 9.28387V0H85.275V25.2308H90.1998V23.4386C91.4755 24.786 93.2285 25.5753 95.3025 25.571H95.3329H95.3459C97.8495 25.571 99.967 24.6378 101.416 22.9895C102.865 21.3411 103.633 19.0387 103.633 16.3569V16.3482C103.633 13.6663 102.874 11.3595 101.442 9.71121ZM97.6456 19.8585C96.9991 20.5388 95.9838 20.9269 94.387 20.9269C92.7729 20.9269 91.7489 20.5344 91.098 19.8541C90.4471 19.1739 90.0653 18.0575 90.0653 16.3438C90.0653 14.63 90.4471 13.5137 91.098 12.8335C91.7489 12.1532 92.7729 11.7651 94.387 11.7607C95.9838 11.7607 96.9991 12.1488 97.6456 12.8335C98.2921 13.5137 98.6783 14.63 98.6783 16.3438C98.6783 18.0575 98.2921 19.1739 97.6456 19.8541V19.8585Z" fill="white"/>
<path d="M111.444 20.2858V0H106.519V21.0271C106.519 23.347 108.393 25.2308 110.702 25.2308H114.412V20.2815H111.444V20.2858Z" fill="white"/>
<path d="M37.793 7.46103C36.2613 7.46103 34.9509 8.37241 34.3478 9.68061C33.0244 8.05408 31.0761 7.1209 28.7721 7.12526H28.7374H28.7244C26.2685 7.12526 24.1814 8.0628 22.7582 9.71114C21.3307 11.3595 20.5714 13.6663 20.5714 16.3481C20.5714 19.0342 21.3394 21.341 22.7929 22.9894C24.2422 24.6377 26.3596 25.5753 28.8632 25.5709H28.8763H28.9066C30.9547 25.5709 32.6989 24.8034 33.9746 23.4778V25.2308H38.8994V12.4104H40.7088V7.46103H37.7973H37.793ZM33.1068 19.8541C32.456 20.5343 31.4319 20.9224 29.8178 20.9268C28.2037 20.9268 27.1884 20.5387 26.5505 19.8584C25.9084 19.1825 25.5309 18.0618 25.5309 16.3481C25.5309 14.63 25.9084 13.5136 26.5505 12.8377H26.5549C27.1971 12.1575 28.208 11.7737 29.8222 11.7694C31.4363 11.7694 32.4603 12.1618 33.1112 12.8421C33.762 13.5224 34.1438 14.6387 34.1438 16.3524C34.1438 18.0662 33.762 19.1825 33.1112 19.8628L33.1068 19.8541Z" fill="white"/>
<path d="M79.3262 7.46103C77.7945 7.46103 76.4841 8.37241 75.881 9.68061C74.5576 8.05408 72.6093 7.1209 70.3053 7.12526H70.2706H70.2576C67.8017 7.12526 65.7146 8.0628 64.2914 9.71114C62.8639 11.3595 62.1046 13.6619 62.1046 16.3437V16.3524C62.1046 19.0342 62.8726 21.341 64.3261 22.9894C65.7754 24.6377 67.8928 25.5753 70.3964 25.5709H70.4095H70.4398C72.4879 25.5709 74.2321 24.8034 75.5078 23.4778V25.2308H80.4326V12.4104H82.242V7.46103H79.3305H79.3262ZM74.64 19.8541C73.9892 20.5343 72.9651 20.9224 71.351 20.9268C69.7369 20.9268 68.7216 20.5387 68.0837 19.8584C67.4416 19.1825 67.0641 18.0618 67.0641 16.3481C67.0641 14.63 67.4416 13.5136 68.0837 12.8377C68.7259 12.1575 69.7369 11.7737 71.351 11.7694C72.9651 11.7694 73.9892 12.1618 74.64 12.8421C75.2909 13.5224 75.6727 14.6387 75.6727 16.3524C75.6727 18.0662 75.2909 19.1825 74.64 19.8628V19.8541Z" fill="white"/>
<path d="M130.535 20.2815H121.627C120.365 20.2815 119.176 21.1449 118.998 22.3964C118.785 23.9227 119.957 25.2309 121.437 25.2309H130.345C131.607 25.2309 132.796 24.3674 132.974 23.1159C133.187 21.5897 132.015 20.2815 130.535 20.2815Z" fill="url(#paint0_linear_1_1678)"/>
</g>
<defs>
<linearGradient id="paint0_linear_1_1678" x1="135" y1="22.7584" x2="121.454" y2="22.7584" gradientUnits="userSpaceOnUse">
<stop stop-color="#7CDDAE" stop-opacity="0"/>
<stop offset="0.41" stop-color="#7CDDAE" stop-opacity="0.44"/>
<stop offset="0.82" stop-color="#7CDDAE" stop-opacity="0.84"/>
<stop offset="1" stop-color="#7CDDAE"/>
</linearGradient>
<clipPath id="clip0_1_1678">
<rect width="133" height="31" fill="white"/>
</clipPath>
</defs>
</svg>
