<svg width="260" height="60" viewBox="0 0 260 60" fill="none" xmlns="http://www.w3.org/2000/svg">
<g clip-path="url(#clip0_1_1639)">
<path d="M19.8826 13.791H19.7977C15.6923 13.791 12.1721 15.3187 9.62743 17.9688V14.4409H0V59.9916H9.62743V45.3651C12.1212 47.9731 15.5481 49.5007 19.6026 49.4923H19.662H19.6875C24.5818 49.4923 28.7211 47.6861 31.5542 44.4958C34.3958 41.3055 35.8972 36.8407 35.8887 31.6501C35.8887 26.4511 34.4043 21.9863 31.6051 18.796C28.8144 15.6056 24.7175 13.7826 19.8826 13.791ZM24.1746 38.4359C22.9107 39.7525 20.9259 40.5037 17.8044 40.5121C14.649 40.5121 12.6471 39.7525 11.3748 38.4359C10.1024 37.1192 9.356 34.9586 9.356 31.6417C9.356 28.3247 10.1024 26.1641 11.3748 24.8475C12.6471 23.5308 14.649 22.7797 17.8044 22.7712C20.9259 22.7712 22.9107 23.5224 24.1746 24.8475C25.4385 26.1641 26.1934 28.3247 26.1934 31.6417C26.1934 34.9586 25.447 37.1192 24.1746 38.4359Z" fill="black"/>
<path d="M103.272 35.2455V35.2624L102.305 38.2755L101.406 35.3299L94.2046 14.4409H83.6017L97.852 51.1381H86.3161V59.9916H94.5609C97.6061 59.9916 100.015 59.4937 101.941 58.1939C103.866 56.8941 105.121 54.9107 106.122 52.3956L121.153 14.4409H110.542L103.272 35.2455Z" fill="black"/>
<path d="M198.308 18.7959C195.517 15.6056 191.42 13.7825 186.586 13.791H186.501C182.395 13.791 178.875 15.3186 176.33 17.9688V0H166.703V48.8339H176.33V45.365C178.824 47.973 182.251 49.5006 186.306 49.4922H186.365H186.39C191.285 49.4922 195.424 47.686 198.257 44.4957C201.09 41.3054 202.592 36.8491 202.592 31.6585V31.6416C202.592 26.451 201.107 21.9862 198.308 18.7959ZM190.886 38.4358C189.622 39.7524 187.637 40.5036 184.516 40.5036C181.36 40.5036 179.359 39.744 178.086 38.4273C176.814 37.1107 176.067 34.9501 176.067 31.6331C176.067 28.3162 176.814 26.1556 178.086 24.8389C179.359 23.5223 181.36 22.7711 184.516 22.7627C187.637 22.7627 189.622 23.5139 190.886 24.8389C192.15 26.1556 192.905 28.3162 192.905 31.6331C192.905 34.9501 192.15 37.1107 190.886 38.4273V38.4358Z" fill="black"/>
<path d="M217.86 39.2629V0H208.232V40.6977C208.232 45.1878 211.897 48.8339 216.409 48.8339H223.662V39.2545H217.86V39.2629Z" fill="black"/>
<path d="M73.881 14.4409C70.8867 14.4409 68.3251 16.2049 67.146 18.7369C64.5589 15.5888 60.7504 13.7826 56.2462 13.791H56.1784H56.1529C51.3519 13.791 47.272 15.6056 44.4897 18.796C41.6991 21.9863 40.2147 26.4511 40.2147 31.6417C40.2147 36.8407 41.716 41.3055 44.5576 44.4958C47.3907 47.6861 51.5301 49.5007 56.4244 49.4923H56.4498H56.5092C60.5129 49.4923 63.9227 48.0068 66.4165 45.4411V48.834H76.044V24.0203H79.5811V14.4409H73.8895H73.881ZM64.7201 38.4274C63.4477 39.7441 61.4459 40.4952 58.2905 40.5037C55.1351 40.5037 53.1502 39.7525 51.9033 38.4359C50.6479 37.1277 49.91 34.9586 49.91 31.6417C49.91 28.3163 50.6479 26.1557 51.9033 24.8475H51.9118C53.1672 23.5308 55.1435 22.7881 58.299 22.7797C61.4544 22.7797 63.4562 23.5393 64.7286 24.8559C66.0009 26.1725 66.7474 28.3332 66.7474 31.6501C66.7474 34.967 66.0009 37.1277 64.7286 38.4443L64.7201 38.4274Z" fill="black"/>
<path d="M155.074 14.4409C152.079 14.4409 149.518 16.2049 148.339 18.7369C145.752 15.5888 141.943 13.7826 137.439 13.791H137.371H137.346C132.545 13.791 128.465 15.6056 125.682 18.796C122.892 21.9863 121.407 26.4426 121.407 31.6332V31.6501C121.407 36.8407 122.909 41.3055 125.75 44.4958C128.583 47.6861 132.723 49.5007 137.617 49.4923H137.643H137.702C141.706 49.4923 145.115 48.0068 147.609 45.4411V48.834H157.237V24.0203H160.774V14.4409H155.082H155.074ZM145.913 38.4274C144.64 39.7441 142.639 40.4952 139.483 40.5037C136.328 40.5037 134.343 39.7525 133.096 38.4359C131.841 37.1277 131.103 34.9586 131.103 31.6417C131.103 28.3163 131.841 26.1557 133.096 24.8475C134.351 23.5308 136.328 22.7881 139.483 22.7797C142.639 22.7797 144.64 23.5393 145.913 24.8559C147.185 26.1725 147.932 28.3332 147.932 31.6501C147.932 34.967 147.185 37.1277 145.913 38.4443V38.4274Z" fill="black"/>
<path d="M255.182 39.2544H237.768C235.299 39.2544 232.975 40.9255 232.628 43.3478C232.212 46.3018 234.502 48.8338 237.395 48.8338H254.809C257.277 48.8338 259.601 47.1627 259.949 44.7404C260.365 41.7864 258.075 39.2544 255.182 39.2544Z" fill="url(#paint0_linear_1_1639)"/>
</g>
<defs>
<linearGradient id="paint0_linear_1_1639" x1="263.91" y1="44.0483" x2="237.429" y2="44.0483" gradientUnits="userSpaceOnUse">
<stop stop-color="#7CDDAE" stop-opacity="0"/>
<stop offset="0.41" stop-color="#7CDDAE" stop-opacity="0.44"/>
<stop offset="0.82" stop-color="#7CDDAE" stop-opacity="0.84"/>
<stop offset="1" stop-color="#7CDDAE"/>
</linearGradient>
<clipPath id="clip0_1_1639">
<rect width="260" height="60" fill="white"/>
</clipPath>
</defs>
</svg>
