<svg width="152" height="36" viewBox="0 0 152 36" fill="none" xmlns="http://www.w3.org/2000/svg">
<g clip-path="url(#clip0_1559_101)">
<path d="M12.0143 8.56642H11.9651C9.58632 8.56642 7.54663 9.44316 6.07215 10.9641V8.9394H0.493713L0.493713 35.0815H6.07215L6.07215 26.6872C7.51714 28.1839 9.50276 29.0607 11.8521 29.0558H11.8865H11.9012C14.7372 29.0558 17.1356 28.0192 18.7772 26.1883C20.4237 24.3573 21.2937 21.7949 21.2887 18.816C21.2887 15.8322 20.4286 13.2698 18.8067 11.4388C17.1897 9.60785 14.8158 8.56158 12.0143 8.56642ZM14.5012 22.7104C13.7689 23.466 12.6188 23.8971 10.8101 23.902C8.98178 23.902 7.82186 23.466 7.08462 22.7104C6.34738 21.9548 5.91487 20.7147 5.91487 18.8111C5.91487 16.9075 6.34738 15.6675 7.08462 14.9118C7.82186 14.1562 8.98178 13.7251 10.8101 13.7203C12.6188 13.7203 13.7689 14.1514 14.5012 14.9118C15.2336 15.6675 15.671 16.9075 15.671 18.8111C15.671 20.7147 15.2385 21.9548 14.5012 22.7104Z" fill="black"/>
<path d="M60.3324 20.8819V20.8916L59.7721 22.6209L59.2511 20.9304L55.0783 8.94189L48.9347 8.94189L57.1918 30.0029H50.5075L50.5075 35.084H55.2848C57.0492 35.084 58.4451 34.7983 59.5608 34.0523C60.6764 33.3064 61.4038 32.1681 61.9838 30.7246L70.6931 8.94189L64.5445 8.94189L60.3324 20.8819Z" fill="black"/>
<path d="M115.4 11.4393C113.783 9.60834 111.409 8.56207 108.608 8.56692H108.558C106.18 8.56692 104.14 9.44365 102.665 10.9646V0.6521L97.087 0.6521V28.6785H102.665V26.6877C104.11 28.1844 106.096 29.0612 108.445 29.0563H108.48H108.495C111.33 29.0563 113.729 28.0197 115.371 26.1888C117.012 24.3578 117.882 21.8003 117.882 18.8213V18.8116C117.882 15.8327 117.022 13.2703 115.4 11.4393ZM111.099 22.7109C110.367 23.4665 109.217 23.8976 107.408 23.8976C105.58 23.8976 104.42 23.4617 103.683 22.7061C102.946 21.9504 102.513 20.7104 102.513 18.8068C102.513 16.9031 102.946 15.6631 103.683 14.9075C104.42 14.1519 105.58 13.7207 107.408 13.7159C109.217 13.7159 110.367 14.147 111.099 14.9075C111.832 15.6631 112.269 16.9031 112.269 18.8068C112.269 20.7104 111.832 21.9504 111.099 22.7061V22.7109Z" fill="black"/>
<path d="M126.728 23.1856V0.6521L121.149 0.6521V24.009C121.149 26.586 123.272 28.6785 125.887 28.6785H130.089V23.1807H126.728V23.1856Z" fill="black"/>
<path d="M43.3027 8.9394C41.5677 8.9394 40.0834 9.95176 39.4002 11.4049C37.9012 9.59816 35.6944 8.56158 33.0845 8.56642H33.0452H33.0305C30.2486 8.56642 27.8845 9.60785 26.2725 11.4388C24.6554 13.2698 23.7953 15.8322 23.7953 18.8111C23.7953 21.7949 24.6653 24.3573 26.3118 26.1883C27.9534 28.0192 30.3518 29.0607 33.1877 29.0558H33.2025H33.2369C35.5567 29.0558 37.5325 28.2033 38.9775 26.7308V28.678H44.556V14.4371H46.6055V8.9394H43.3076H43.3027ZM37.9945 22.7056C37.2573 23.4612 36.0974 23.8923 34.269 23.8971C32.4407 23.8971 31.2906 23.466 30.5681 22.7104C29.8407 21.9596 29.4131 20.7147 29.4131 18.8111C29.4131 16.9027 29.8407 15.6626 30.5681 14.9118H30.573C31.3004 14.1562 32.4456 13.7299 34.2739 13.7251C36.1023 13.7251 37.2622 14.161 37.9995 14.9167C38.7367 15.6723 39.1692 16.9123 39.1692 18.816C39.1692 20.7196 38.7367 21.9596 37.9995 22.7152L37.9945 22.7056Z" fill="black"/>
<path d="M90.3471 8.9394C88.6122 8.9394 87.1279 9.95176 86.4447 11.4049C84.9456 9.59816 82.7388 8.56158 80.129 8.56642H80.0897H80.0749C77.2931 8.56642 74.929 9.60785 73.3169 11.4388C71.6999 13.2698 70.8398 15.8273 70.8398 18.8063V18.816C70.8398 21.7949 71.7098 24.3573 73.3563 26.1883C74.9978 28.0192 77.3963 29.0607 80.2322 29.0558H80.247H80.2814C82.6012 29.0558 84.577 28.2033 86.022 26.7308V28.678H91.6004V14.4371H93.65V8.9394H90.352H90.3471ZM85.039 22.7056C84.3018 23.4612 83.1419 23.8923 81.3135 23.8971C79.4852 23.8971 78.3351 23.466 77.6126 22.7104C76.8852 21.9596 76.4576 20.7147 76.4576 18.8111C76.4576 16.9027 76.8852 15.6626 77.6126 14.9118C78.34 14.1562 79.4852 13.7299 81.3135 13.7251C83.1419 13.7251 84.3018 14.161 85.039 14.9167C85.7763 15.6723 86.2088 16.9123 86.2088 18.816C86.2088 20.7196 85.7763 21.9596 85.039 22.7152V22.7056Z" fill="black"/>
<path d="M148.354 23.1792L138.264 23.1792C136.834 23.1792 135.487 24.1383 135.286 25.5285C135.045 27.2238 136.372 28.6769 138.048 28.6769H148.138C149.568 28.6769 150.915 27.7179 151.117 26.3277C151.357 24.6323 150.03 23.1792 148.354 23.1792Z" fill="url(#paint0_linear_1559_101)"/>
</g>
<defs>
<linearGradient id="paint0_linear_1559_101" x1="153.412" y1="25.9305" x2="138.067" y2="25.9305" gradientUnits="userSpaceOnUse">
<stop stop-color="#7CDDAE" stop-opacity="0"/>
<stop offset="0.41" stop-color="#7CDDAE" stop-opacity="0.44"/>
<stop offset="0.82" stop-color="#7CDDAE" stop-opacity="0.84"/>
<stop offset="1" stop-color="#7CDDAE"/>
</linearGradient>
<clipPath id="clip0_1559_101">
<rect width="150.652" height="34.4348" fill="white" transform="translate(0.493713 0.6521)"/>
</clipPath>
</defs>
</svg>
