<svg width="432" height="67" viewBox="0 0 432 67" fill="none" xmlns="http://www.w3.org/2000/svg">
<rect x="0.302917" y="0.306152" width="138.348" height="65.9816" rx="6.38532" fill="#E5EAE9"/>
<g clip-path="url(#clip0_1559_132)">
<path d="M46.8652 26.3036C41.8939 26.3036 38.1165 30.0437 38.1165 34.5114C38.1165 38.55 41.2131 41.3574 45.4289 41.3574C50.4002 41.3574 54.1496 37.5053 54.1496 33.047C54.1776 28.9804 51.081 26.3036 46.8559 26.3036H46.8652ZM45.746 37.5613C43.8433 37.5613 42.5188 36.2835 42.5188 34.3248C42.5188 32.1516 44.1604 30.081 46.5295 30.081C48.4322 30.081 49.7566 31.4055 49.7566 33.3735C49.7846 35.5746 48.115 37.5706 45.746 37.5706V37.5613Z" fill="black"/>
<path d="M76.7736 26.3036C71.8023 26.3036 68.0528 30.0437 68.0528 34.5114C68.0528 38.55 71.1494 41.3574 75.3652 41.3574C80.3365 41.3574 84.086 37.5053 84.086 33.047C84.114 28.9804 81.0174 26.3036 76.7736 26.3036ZM75.6823 37.5613C73.7796 37.5613 72.4552 36.2835 72.4552 34.3248C72.4552 32.1516 74.0967 30.081 76.4658 30.081C78.3685 30.081 79.693 31.4055 79.693 33.3735C79.693 35.5746 78.0514 37.5706 75.6823 37.5706V37.5613Z" fill="black"/>
<path d="M98.7289 31.0617C98.7289 28.3568 96.6676 26.6313 92.9182 26.6313H87.6577L85.3446 41.0509H89.775L90.5025 36.5087H90.7077L93.0487 41.0509H98.1226L94.8675 36.005C97.2925 35.1562 98.7196 33.3188 98.7196 31.071L98.7289 31.0617ZM91.6497 33.4494H90.9968L91.4911 30.4181H92.0881C93.4685 30.4181 94.196 30.8472 94.196 31.7705C94.196 32.8618 93.1513 33.4401 91.6404 33.4401L91.6497 33.4494Z" fill="black"/>
<path d="M33.0299 32.3848C31.3417 31.5081 30.9686 31.2935 30.9686 30.8179C30.9686 30.2303 31.6495 29.9411 32.5542 29.9411C33.6175 29.9411 35.2404 30.0717 36.826 31.6107C37.2177 30.3608 37.8706 29.2509 38.7007 28.2623C36.4716 26.9658 34.3823 26.3036 32.4889 26.3036C28.7115 26.3036 26.5196 28.3742 26.5196 30.8738C26.5196 33.0284 28.1052 34.1383 29.98 35.1176C31.6682 35.9944 32.0879 36.2835 32.0879 36.8151C32.0879 37.4027 31.3883 37.7199 30.4463 37.7199C28.8327 37.7199 26.958 36.6846 25.8388 35.6213L25.1859 39.6319C26.3331 40.4806 28.0026 41.3574 30.5209 41.3574C34.429 41.3574 36.5369 39.3428 36.5369 36.7685C36.5369 34.6419 35.1844 33.504 33.0206 32.3848H33.0299Z" fill="black"/>
<path d="M65.8432 32.9457H60.6387L61.0584 30.4274H66.6266C67.3541 28.9165 68.4734 27.6107 69.8538 26.6313H60.7413C58.708 26.6313 56.9918 28.0397 56.7027 29.9518L54.9306 41.0789H59.3609L60.0884 36.5366H65.3488L65.7406 34.065C65.7685 33.6639 65.7965 33.3188 65.8432 32.9457Z" fill="black"/>
<path d="M98.8349 26.6189C100.029 27.5516 100.766 28.8481 100.915 30.415H104.608L102.92 41.0385H107.351L109.039 30.415H113.152L113.749 26.6189H98.8256H98.8349Z" fill="black"/>
</g>
<rect x="146.633" y="0.306152" width="138.348" height="65.9816" rx="6.38532" fill="#E5EAE9"/>
<path d="M202.984 34.3943C202.075 33.1289 201.78 31.7299 202.083 30.2052C202.3 29.1049 202.906 28.2246 203.706 27.4701C203.931 27.2579 204.164 27.0536 204.389 26.8414C204.381 26.8257 204.373 26.81 204.366 26.8021C204.272 26.6842 204.179 26.5742 204.078 26.4563C203.302 25.5525 202.378 24.908 201.206 24.6643C200.297 24.4757 199.404 24.5464 198.519 24.8058C197.921 24.9787 197.339 25.1752 196.741 25.3481C196.322 25.4739 195.887 25.521 195.452 25.4031C195.149 25.3245 194.839 25.2538 194.544 25.1595C193.822 24.9394 193.1 24.7115 192.346 24.6329C190.832 24.4679 189.536 24.9237 188.48 26.0397C187.455 27.1243 186.904 28.4368 186.678 29.8987C186.422 31.5492 186.531 33.1839 186.958 34.7951C187.439 36.6106 188.239 38.2689 189.287 39.8172C189.707 40.4303 190.188 40.9883 190.809 41.4206C191.422 41.845 192.082 42.0807 192.828 41.9078C193.301 41.7978 193.752 41.6249 194.21 41.4599C194.808 41.2398 195.406 41.0512 196.058 41.0669C196.578 41.0826 197.083 41.2084 197.572 41.3734C198.053 41.5306 198.527 41.6878 199.008 41.8371C199.971 42.1279 200.833 41.8921 201.609 41.2712C201.834 41.0905 202.06 40.894 202.254 40.6739C203.31 39.5186 204.094 38.1825 204.692 36.7364C204.793 36.4849 204.878 36.2334 204.979 35.974C204.878 35.9347 204.793 35.9033 204.707 35.864C203.985 35.5575 203.442 35.0309 202.991 34.4021L202.984 34.3943ZM197.083 24.6643C197.642 24.4443 198.092 24.067 198.504 23.6348C199.412 22.6838 199.94 21.5442 200.041 20.2159C200.056 19.9723 200.025 19.7286 200.018 19.4614C197.16 20.0352 195.67 21.9371 195.576 24.9001C195.584 24.9001 195.592 24.9158 195.6 24.9158C196.104 24.8844 196.609 24.8451 197.083 24.6565V24.6643ZM220.585 24.35C219.483 23.3282 217.736 22.7545 215.344 22.7388C213.396 22.7231 211.866 22.8803 210.701 23.0689L210.569 41.8057L212.984 41.8214L213.038 34.2214C213.59 34.3628 214.257 34.4021 214.979 34.4021C217.34 34.4178 219.428 33.7341 220.717 32.3587C221.672 31.3841 222.177 30.0323 222.193 28.319C222.208 26.6056 221.602 25.2459 220.578 24.3421L220.585 24.35ZM215.049 32.4373C214.242 32.4373 213.574 32.3665 213.046 32.2251L213.1 24.853C213.52 24.7429 214.327 24.6643 215.383 24.6722C218.054 24.6879 219.793 25.914 219.778 28.4211C219.762 31.0383 217.969 32.4609 215.049 32.4373ZM243.56 28.429L240.835 36.3984C240.493 37.3808 240.206 38.4183 239.95 39.2356H239.895C239.678 38.4183 239.352 37.3494 239.057 36.4456L236.168 28.374L233.497 28.3583L238.381 40.9411C238.49 41.2476 238.544 41.452 238.544 41.5856C238.544 41.7192 238.459 41.9236 238.342 42.1751C237.776 43.4404 236.937 44.3835 236.269 44.918C235.539 45.531 234.732 45.9161 234.119 46.1126L234.716 48.1953C235.33 48.0853 236.525 47.6766 237.729 46.6156C239.406 45.1616 240.617 42.7802 242.403 38.1275L246.138 28.4447L243.552 28.429H243.56ZM232.884 33.6083C232.907 30.8811 231.921 28.0282 227.806 27.9967C226.114 27.981 224.499 28.4526 223.38 29.1756L223.924 30.8104C224.871 30.1973 226.183 29.8122 227.433 29.8201C230.182 29.8437 230.477 31.8714 230.469 32.9953V33.2782C225.267 33.2154 222.363 34.9916 222.34 38.2847C222.325 40.2574 223.699 42.2065 226.424 42.2222C228.342 42.2379 229.794 41.2869 230.555 40.2259H230.64L230.819 41.9471L233.039 41.9629C232.876 41.0354 232.83 39.8801 232.837 38.7012L232.876 33.6083H232.884ZM230.493 37.3573C230.493 37.6088 230.43 37.8917 230.345 38.1432C229.949 39.2907 228.831 40.4146 227.076 40.3988C225.826 40.391 224.778 39.6208 224.786 38.0174C224.801 35.3767 227.837 34.913 230.508 34.9916L230.493 37.3573Z" fill="black"/>
<rect x="292.963" y="0.306152" width="138.348" height="65.9816" rx="6.38532" fill="#E5EAE9"/>
<path d="M360.522 27.4084L360.477 33.5181L364.241 33.5481C365.14 33.5481 365.882 33.2557 366.475 32.6635C367.082 32.0638 367.389 31.3516 367.397 30.5195C367.397 29.7024 367.104 28.9977 366.505 28.3905C365.92 27.7683 365.185 27.4534 364.286 27.4459L360.522 27.4159V27.4084ZM360.463 35.6621L360.41 42.7463L358.161 42.7313L358.289 25.2419L364.256 25.2869C365.77 25.2944 367.052 25.8117 368.109 26.8312C369.181 27.8507 369.706 29.0802 369.698 30.527C369.691 32.0113 369.143 33.2407 368.056 34.2303C367.007 35.2198 365.718 35.6996 364.181 35.6921L360.463 35.6621Z" fill="black"/>
<path d="M371.91 39.1651C371.91 39.7498 372.15 40.2446 372.645 40.6344C373.139 41.0242 373.717 41.2267 374.391 41.2342C375.336 41.2342 376.183 40.8968 376.925 40.1996C377.675 39.5025 378.05 38.6853 378.057 37.7408C377.36 37.1785 376.385 36.9012 375.126 36.8862C374.211 36.8862 373.447 37.0961 372.832 37.5309C372.217 37.9657 371.91 38.5054 371.902 39.1576M374.879 30.4841C376.543 30.4991 377.847 30.9489 378.807 31.841C379.766 32.7331 380.231 33.955 380.224 35.4993L380.171 42.8759L378.02 42.8609L378.035 41.1967H377.937C377 42.5535 375.756 43.2282 374.204 43.2207C372.884 43.2132 371.782 42.8159 370.898 42.0288C370.013 41.2416 369.578 40.2596 369.586 39.0901C369.593 37.8532 370.066 36.8712 371.01 36.144C371.955 35.4168 373.207 35.057 374.774 35.072C376.108 35.0795 377.21 35.3344 378.072 35.8292V35.3194C378.08 34.5398 377.78 33.8726 377.165 33.3253C376.55 32.7781 375.831 32.5007 374.998 32.4932C373.739 32.4857 372.742 33.003 372.007 34.06L370.036 32.8006C371.138 31.2488 372.757 30.4766 374.894 30.4916" fill="black"/>
<path d="M392.607 31.004L384.968 48.1935L382.652 48.1785L385.478 42.1663L380.62 30.9215L383.072 30.9365L386.573 39.5575H386.625L390.156 30.989L392.607 31.004Z" fill="black"/>
<path d="M336.07 35.6536C335.867 35.0464 335.762 34.3942 335.77 33.727C335.777 33.0598 335.89 32.4151 336.1 31.8079L336.122 29.2216L332.779 29.1991C332.081 30.541 331.684 32.0703 331.669 33.697C331.654 35.3238 332.037 36.8531 332.711 38.2174L336.07 35.6536Z" fill="black"/>
<path d="M351.384 34.0623C351.384 33.3576 351.331 32.6679 351.226 32.0157L341.743 31.9482L341.713 35.8165L347.148 35.8539C346.908 37.1134 346.196 38.1854 345.117 38.89L345.102 41.4014L348.348 41.4239C350.259 39.6847 351.369 37.1059 351.391 34.0548" fill="black"/>
<path d="M341.654 43.8141C344.368 43.8366 346.662 42.9595 348.341 41.4377L345.117 38.9039C344.21 39.5036 343.048 39.8485 341.684 39.841C339.06 39.8185 336.849 38.0418 336.069 35.6504L332.726 35.6279L332.703 38.2142C334.337 41.5127 337.718 43.7916 341.654 43.8141Z" fill="black"/>
<path d="M341.774 27.6997C343.258 27.7072 344.585 28.232 345.619 29.2365L348.513 26.3878C346.781 24.7536 344.517 23.7415 341.804 23.719C337.868 23.6891 334.45 25.923 332.77 29.1915L336.091 31.8078C336.908 29.4314 339.142 27.6847 341.766 27.6997" fill="black"/>
<defs>
<clipPath id="clip0_1559_132">
<rect width="88.56" height="15.0538" fill="white" transform="translate(25.1967 26.3015)"/>
</clipPath>
</defs>
</svg>
