<svg width="42" height="44" viewBox="0 0 42 44" fill="none" xmlns="http://www.w3.org/2000/svg">
<g opacity="0.8">
<mask id="path-1-inside-1_1215_70" fill="white">
<path fill-rule="evenodd" clip-rule="evenodd" d="M39.2 25.5765C39.9736 25.9874 40.5705 26.6363 40.9905 27.2852C41.8083 28.6263 41.742 30.2701 40.9463 31.7193L39.3989 34.3149C38.581 35.6992 37.0558 36.5644 35.4864 36.5644C34.7127 36.5644 33.8506 36.3481 33.1433 35.9155C32.5685 35.5478 31.9054 35.418 31.198 35.418C29.0097 35.418 27.175 37.2133 27.1086 39.3547C27.1086 41.8421 25.075 43.7888 22.5329 43.7888H19.5267C16.9625 43.7888 14.9289 41.8421 14.9289 39.3547C14.8847 37.2133 13.05 35.418 10.8616 35.418C10.1321 35.418 9.469 35.5478 8.91638 35.9155C8.20902 36.3481 7.32483 36.5644 6.57327 36.5644C4.98172 36.5644 3.45649 35.6992 2.63861 34.3149L1.11338 31.7193C0.2955 30.3134 0.25129 28.6263 1.06917 27.2852C1.42285 26.6363 2.08599 25.9874 2.83755 25.5765C3.45649 25.2736 3.85438 24.7761 4.23016 24.1921C5.3354 22.332 4.67225 19.8878 2.79334 18.7847C0.604967 17.5518 -0.102387 14.8048 1.15759 12.6634L2.63861 10.1111C3.92069 7.96973 6.66169 7.21269 8.87217 8.46722C10.7953 9.50545 13.2931 8.8133 14.4205 6.97476C14.7742 6.36912 14.9731 5.72022 14.9289 5.07133C14.8847 4.22776 15.1278 3.42746 15.5478 2.77856C16.3657 1.43751 17.8467 0.572312 19.4604 0.529053H22.5772C24.2129 0.529053 25.6939 1.43751 26.5118 2.77856C26.9097 3.42746 27.175 4.22776 27.1086 5.07133C27.0644 5.72022 27.2634 6.36912 27.6171 6.97476C28.7444 8.8133 31.2422 9.50545 33.1875 8.46722C35.3758 7.21269 38.1389 7.96973 39.3989 10.1111L40.8799 12.6634C42.162 14.8048 41.4547 17.5518 39.2442 18.7847C37.3653 19.8878 36.7021 22.332 37.8295 24.1921C38.1832 24.7761 38.581 25.2736 39.2 25.5765ZM14.7735 22.18C14.7735 25.5759 17.5808 28.2796 21.0513 28.2796C24.5217 28.2796 27.2627 25.5759 27.2627 22.18C27.2627 18.7841 24.5217 16.0587 21.0513 16.0587C17.5808 16.0587 14.7735 18.7841 14.7735 22.18Z"/>
</mask>
<path d="M40.9905 27.2852L41.2605 27.1206L41.2559 27.1134L40.9905 27.2852ZM39.2 25.5765L39.3484 25.2971L39.3389 25.2925L39.2 25.5765ZM40.9463 31.7193L41.218 31.8813L41.2234 31.8715L40.9463 31.7193ZM39.3989 34.3149L39.1274 34.153L39.1267 34.1541L39.3989 34.3149ZM33.1433 35.9155L32.9729 36.1819L32.9783 36.1852L33.1433 35.9155ZM27.1086 39.3547L26.7925 39.3449V39.3547H27.1086ZM14.9289 39.3547H15.2451L15.245 39.3482L14.9289 39.3547ZM8.91638 35.9155L9.08144 36.1854L9.0915 36.1787L8.91638 35.9155ZM2.63861 34.3149L2.36606 34.4751L2.36644 34.4757L2.63861 34.3149ZM1.11338 31.7193L0.84012 31.8783L0.840823 31.8795L1.11338 31.7193ZM1.06917 27.2852L1.33906 27.4498L1.34307 27.4433L1.34674 27.4365L1.06917 27.2852ZM2.83755 25.5765L2.69862 25.2925L2.69218 25.2956L2.68588 25.2991L2.83755 25.5765ZM4.23016 24.1921L4.49618 24.3633L4.50193 24.3536L4.23016 24.1921ZM2.79334 18.7847L2.95343 18.512L2.94852 18.5092L2.79334 18.7847ZM1.15759 12.6634L1.43006 12.8237L1.43102 12.8221L1.15759 12.6634ZM2.63861 10.1111L2.36735 9.94868L2.36518 9.95243L2.63861 10.1111ZM8.87217 8.46722L8.7161 8.74222L8.72199 8.7454L8.87217 8.46722ZM14.4205 6.97476L14.69 7.14005L14.6935 7.13418L14.4205 6.97476ZM14.9289 5.07133L14.6132 5.08787L14.6135 5.09282L14.9289 5.07133ZM15.5478 2.77856L15.8133 2.95039L15.8177 2.94316L15.5478 2.77856ZM19.4604 0.529053L19.4604 0.21281L19.4519 0.213037L19.4604 0.529053ZM26.5118 2.77856L26.2419 2.94316L26.2423 2.94381L26.5118 2.77856ZM27.1086 5.07133L26.7935 5.04655L26.7932 5.04984L27.1086 5.07133ZM27.6171 6.97476L27.344 7.13421L27.3476 7.14001L27.6171 6.97476ZM33.1875 8.46722L33.3364 8.74624L33.3447 8.74148L33.1875 8.46722ZM39.3989 10.1111L39.6724 9.95242L39.6714 9.95077L39.3989 10.1111ZM40.8799 12.6634L40.6065 12.8221L40.6087 12.8258L40.8799 12.6634ZM39.2442 18.7847L39.0902 18.5085L39.0841 18.5121L39.2442 18.7847ZM37.8295 24.1921L38.0999 24.0284L38.0998 24.0283L37.8295 24.1921ZM41.2559 27.1134C40.8159 26.4338 40.1826 25.7405 39.3483 25.2973L39.0517 25.8556C39.7647 26.2344 40.325 26.8389 40.7251 27.457L41.2559 27.1134ZM41.2234 31.8715C42.0637 30.3411 42.1472 28.5748 41.2604 27.1206L40.7206 27.4498C41.4695 28.6778 41.4204 30.1992 40.6692 31.5672L41.2234 31.8715ZM39.6705 34.4768L41.2178 31.8812L40.6747 31.5575L39.1274 34.1531L39.6705 34.4768ZM35.4864 36.8806C37.1684 36.8806 38.7967 35.9556 39.6711 34.4757L39.1267 34.1541C38.3653 35.4428 36.9432 36.2483 35.4864 36.2483V36.8806ZM32.9783 36.1852C33.7393 36.6506 34.6593 36.8806 35.4864 36.8806V36.2483C34.7661 36.2483 33.9619 36.0457 33.3082 35.6458L32.9783 36.1852ZM31.198 35.7342C31.8681 35.7342 32.4655 35.8572 32.9729 36.1818L33.3136 35.6492C32.6716 35.2385 31.9427 35.1019 31.198 35.1019V35.7342ZM27.4246 39.3645C27.4856 37.3944 29.1799 35.7342 31.198 35.7342V35.1019C28.8395 35.1019 26.8643 37.0323 26.7927 39.3449L27.4246 39.3645ZM22.5329 44.1049C25.239 44.1049 27.4248 42.0271 27.4248 39.3547H26.7925C26.7925 41.6571 24.911 43.4727 22.5329 43.4727V44.1049ZM19.5267 44.1049H22.5329V43.4727H19.5267V44.1049ZM14.6128 39.3547C14.6128 42.0281 16.7995 44.1049 19.5267 44.1049V43.4727C17.1255 43.4727 15.245 41.6562 15.245 39.3547H14.6128ZM10.8616 35.7342C12.8805 35.7342 14.5722 37.3944 14.6128 39.3612L15.245 39.3482C15.1971 37.0323 13.2195 35.1019 10.8616 35.1019V35.7342ZM9.0915 36.1787C9.57316 35.8582 10.1667 35.7342 10.8616 35.7342V35.1019C10.0976 35.1019 9.36484 35.2374 8.74125 35.6523L9.0915 36.1787ZM6.57327 36.8806C7.37743 36.8806 8.31973 36.651 9.08131 36.1852L8.75144 35.6458C8.09832 36.0453 7.27223 36.2483 6.57327 36.2483V36.8806ZM2.36644 34.4757C3.24123 35.9564 4.86999 36.8806 6.57327 36.8806V36.2483C5.09346 36.2483 3.67175 35.4421 2.91079 34.1541L2.36644 34.4757ZM0.840823 31.8795L2.36606 34.4751L2.91117 34.1548L1.38593 31.5592L0.840823 31.8795ZM0.799274 27.1206C-0.0852324 28.5709 -0.0298495 30.3828 0.840122 31.8783L1.38663 31.5604C0.62085 30.244 0.587813 28.6816 1.33906 27.4498L0.799274 27.1206ZM2.68588 25.2991C1.88751 25.7356 1.17757 26.4258 0.791592 27.1339L1.34674 27.4365C1.66812 26.8469 2.28447 26.2392 2.98922 25.8538L2.68588 25.2991ZM3.96431 24.0211C3.59712 24.5917 3.23794 25.0286 2.69862 25.2925L2.97649 25.8604C3.67503 25.5186 4.11164 24.9606 4.49601 24.3632L3.96431 24.0211ZM2.63329 19.0573C4.36597 20.0746 4.97124 22.326 3.95838 24.0307L4.50193 24.3536C5.69956 22.338 4.97854 19.701 2.9534 18.5121L2.63329 19.0573ZM0.885125 12.5031C-0.463151 14.7945 0.293235 17.739 2.63817 19.0601L2.94852 18.5092C0.9167 17.3645 0.258378 14.815 1.43005 12.8237L0.885125 12.5031ZM2.36518 9.95243L0.884158 12.5048L1.43102 12.8221L2.91204 10.2698L2.36518 9.95243ZM9.02821 8.19228C6.66641 6.85187 3.73651 7.66195 2.36738 9.9487L2.90984 10.2735C4.10487 8.27751 6.65697 7.5735 8.71613 8.74216L9.02821 8.19228ZM14.151 6.80951C13.1107 8.50609 10.7966 9.14692 9.02235 8.18904L8.72199 8.7454C10.794 9.86399 13.4756 9.12051 14.69 7.14001L14.151 6.80951ZM14.6135 5.09282C14.6523 5.66204 14.4787 6.24814 14.1475 6.81534L14.6935 7.13418C15.0696 6.49011 15.2939 5.77841 15.2443 5.04984L14.6135 5.09282ZM15.2824 2.60679C14.8289 3.30751 14.5653 4.17311 14.6132 5.08787L15.2446 5.05478C15.2041 4.28241 15.4268 3.5474 15.8132 2.95033L15.2824 2.60679ZM19.4519 0.213037C17.7317 0.259154 16.152 1.18085 15.2779 2.61396L15.8177 2.94316C16.5795 1.69417 17.9618 0.885471 19.4688 0.845068L19.4519 0.213037ZM22.5772 0.212924H19.4604V0.845182H22.5772V0.212924ZM26.7817 2.61396C25.9106 1.18564 24.3309 0.212924 22.5772 0.212924V0.845182C24.0949 0.845182 25.4773 1.68938 26.2419 2.94316L26.7817 2.61396ZM27.4238 5.0961C27.4965 4.17093 27.2053 3.30478 26.7813 2.61331L26.2423 2.94381C26.6141 3.55014 26.8534 4.28459 26.7935 5.04655L27.4238 5.0961ZM27.89 6.81534C27.5588 6.24814 27.3853 5.66204 27.424 5.09282L26.7932 5.04984C26.7436 5.77841 26.9679 6.49011 27.3441 7.13418L27.89 6.81534ZM33.0386 8.18833C31.2405 9.14803 28.9262 8.50506 27.8866 6.80951L27.3476 7.14001C28.5626 9.12153 31.244 9.86288 33.3363 8.74611L33.0386 8.18833ZM39.6714 9.95077C38.3242 7.66126 35.37 6.85164 33.0302 8.19296L33.3447 8.74148C35.3817 7.57373 37.9537 8.2782 39.1265 10.2714L39.6714 9.95077ZM41.1534 12.5048L39.6724 9.95243L39.1255 10.2698L40.6065 12.8221L41.1534 12.5048ZM39.3982 19.0608C41.766 17.7401 42.524 14.7939 41.1512 12.501L40.6087 12.8258C41.8001 14.8156 41.1433 17.3634 39.0902 18.5086L39.3982 19.0608ZM38.0998 24.0283C37.0673 22.3246 37.6716 20.0746 39.4042 19.0573L39.0841 18.5121C37.059 19.701 36.3369 22.3393 37.5591 24.356L38.0998 24.0283ZM39.3389 25.2925C38.8004 25.029 38.4416 24.5927 38.0999 24.0284L37.5591 24.3559C37.9247 24.9596 38.3616 25.5182 39.061 25.8604L39.3389 25.2925ZM21.0513 27.9635C17.7459 27.9635 15.0896 25.392 15.0896 22.18H14.4574C14.4574 25.7598 17.4157 28.5957 21.0513 28.5957V27.9635ZM26.9466 22.18C26.9466 25.3963 24.3522 27.9635 21.0513 27.9635V28.5957C24.6913 28.5957 27.5788 25.7554 27.5788 22.18H26.9466ZM21.0513 16.3748C24.3507 16.3748 26.9466 18.9622 26.9466 22.18H27.5788C27.5788 18.606 24.6928 15.7426 21.0513 15.7426V16.3748ZM15.0896 22.18C15.0896 18.9665 17.7474 16.3748 21.0513 16.3748V15.7426C17.4142 15.7426 14.4574 18.6016 14.4574 22.18H15.0896Z" fill="url(#paint0_linear_1215_70)" mask="url(#path-1-inside-1_1215_70)"/>
</g>
<g opacity="0.6">
<mask id="path-3-inside-2_1215_70" fill="white">
<path fill-rule="evenodd" clip-rule="evenodd" d="M39.2 25.5765C39.9736 25.9874 40.5705 26.6363 40.9905 27.2852C41.8083 28.6263 41.742 30.2701 40.9463 31.7193L39.3989 34.3149C38.581 35.6992 37.0558 36.5644 35.4864 36.5644C34.7127 36.5644 33.8506 36.3481 33.1433 35.9155C32.5685 35.5478 31.9054 35.418 31.198 35.418C29.0097 35.418 27.175 37.2133 27.1086 39.3547C27.1086 41.8421 25.075 43.7888 22.5329 43.7888H19.5267C16.9625 43.7888 14.9289 41.8421 14.9289 39.3547C14.8847 37.2133 13.05 35.418 10.8616 35.418C10.1321 35.418 9.469 35.5478 8.91638 35.9155C8.20902 36.3481 7.32483 36.5644 6.57327 36.5644C4.98172 36.5644 3.45649 35.6992 2.63861 34.3149L1.11338 31.7193C0.2955 30.3134 0.25129 28.6263 1.06917 27.2852C1.42285 26.6363 2.08599 25.9874 2.83755 25.5765C3.45649 25.2736 3.85438 24.7761 4.23016 24.1921C5.3354 22.332 4.67225 19.8878 2.79334 18.7847C0.604967 17.5518 -0.102387 14.8048 1.15759 12.6634L2.63861 10.1111C3.92069 7.96973 6.66169 7.21269 8.87217 8.46722C10.7953 9.50545 13.2931 8.8133 14.4205 6.97476C14.7742 6.36912 14.9731 5.72022 14.9289 5.07133C14.8847 4.22776 15.1278 3.42746 15.5478 2.77856C16.3657 1.43751 17.8467 0.572312 19.4604 0.529053H22.5772C24.2129 0.529053 25.6939 1.43751 26.5118 2.77856C26.9097 3.42746 27.175 4.22776 27.1086 5.07133C27.0644 5.72022 27.2634 6.36912 27.6171 6.97476C28.7444 8.8133 31.2422 9.50545 33.1875 8.46722C35.3758 7.21269 38.1389 7.96973 39.3989 10.1111L40.8799 12.6634C42.162 14.8048 41.4547 17.5518 39.2442 18.7847C37.3653 19.8878 36.7021 22.332 37.8295 24.1921C38.1832 24.7761 38.581 25.2736 39.2 25.5765ZM14.7735 22.18C14.7735 25.5759 17.5808 28.2796 21.0513 28.2796C24.5217 28.2796 27.2627 25.5759 27.2627 22.18C27.2627 18.7841 24.5217 16.0587 21.0513 16.0587C17.5808 16.0587 14.7735 18.7841 14.7735 22.18Z"/>
</mask>
<path d="M40.9905 27.2852L41.1255 27.2029L41.1232 27.1993L40.9905 27.2852ZM39.2 25.5765L39.2742 25.4368L39.2694 25.4345L39.2 25.5765ZM40.9463 31.7193L41.0821 31.8003L41.0848 31.7954L40.9463 31.7193ZM39.3989 34.3149L39.2632 34.234L39.2628 34.2345L39.3989 34.3149ZM33.1433 35.9155L33.0581 36.0487L33.0608 36.0504L33.1433 35.9155ZM27.1086 39.3547L26.9506 39.3498V39.3547H27.1086ZM14.9289 39.3547H15.087L15.0869 39.3514L14.9289 39.3547ZM8.91638 35.9155L8.99891 36.0505L9.00394 36.0471L8.91638 35.9155ZM2.63861 34.3149L2.50233 34.395L2.50252 34.3953L2.63861 34.3149ZM1.11338 31.7193L0.976749 31.7988L0.977101 31.7994L1.11338 31.7193ZM1.06917 27.2852L1.20428 27.3676L1.20796 27.3609L1.06917 27.2852ZM2.83755 25.5765L2.76802 25.4343L2.76172 25.4378L2.83755 25.5765ZM4.23016 24.1921L4.36317 24.2777L4.36605 24.2729L4.23016 24.1921ZM2.79334 18.7847L2.87338 18.6483L2.87093 18.647L2.79334 18.7847ZM1.15759 12.6634L1.29382 12.7436L1.2943 12.7427L1.15759 12.6634ZM2.63861 10.1111L2.50298 10.0299L2.5019 10.0318L2.63861 10.1111ZM8.87217 8.46722L8.79413 8.60472L8.79708 8.60631L8.87217 8.46722ZM14.4205 6.97476L14.5553 7.0574L14.557 7.05447L14.4205 6.97476ZM14.9289 5.07133L14.771 5.0796L14.7712 5.08207L14.9289 5.07133ZM15.5478 2.77856L15.6806 2.86448L15.6828 2.86086L15.5478 2.77856ZM19.4604 0.529053V0.370931L19.4561 0.371045L19.4604 0.529053ZM26.5118 2.77856L26.3769 2.86086L26.3771 2.86119L26.5118 2.77856ZM27.1086 5.07133L26.9511 5.05894L26.9509 5.06058L27.1086 5.07133ZM27.6171 6.97476L27.4805 7.05449L27.4823 7.05738L27.6171 6.97476ZM33.1875 8.46722L33.2619 8.60673L33.2661 8.60435L33.1875 8.46722ZM39.3989 10.1111L39.5356 10.0318L39.5352 10.0309L39.3989 10.1111ZM40.8799 12.6634L40.7432 12.7428L40.7443 12.7446L40.8799 12.6634ZM39.2442 18.7847L39.1672 18.6466L39.1642 18.6484L39.2442 18.7847ZM37.8295 24.1921L37.9647 24.1103L37.9647 24.1102L37.8295 24.1921ZM41.1232 27.1993C40.6932 26.535 40.0781 25.8639 39.2741 25.4369L39.1258 25.716C39.8692 26.1109 40.4477 26.7376 40.8578 27.3711L41.1232 27.1993ZM41.0848 31.7954C41.9029 30.3056 41.9778 28.6005 41.1254 27.2029L40.8555 27.3675C41.6389 28.652 41.5812 30.2346 40.8077 31.6433L41.0848 31.7954ZM39.5347 34.3959L41.082 31.8003L40.8105 31.6384L39.2632 34.234L39.5347 34.3959ZM35.4864 36.7225C37.1121 36.7225 38.6889 35.8274 39.535 34.3953L39.2628 34.2345C38.4732 35.571 36.9995 36.4064 35.4864 36.4064V36.7225ZM33.0608 36.0504C33.795 36.4994 34.686 36.7225 35.4864 36.7225V36.4064C34.7394 36.4064 33.9063 36.1969 33.2257 35.7807L33.0608 36.0504ZM31.198 35.5761C31.8867 35.5761 32.517 35.7025 33.0581 36.0487L33.2284 35.7824C32.6201 35.3931 31.924 35.26 31.198 35.26V35.5761ZM27.2666 39.3596C27.3303 37.3039 29.0948 35.5761 31.198 35.5761V35.26C28.9246 35.26 27.0196 37.1228 26.9507 39.3498L27.2666 39.3596ZM22.5329 43.9469C25.157 43.9469 27.2667 41.9346 27.2667 39.3547H26.9506C26.9506 41.7496 24.993 43.6308 22.5329 43.6308V43.9469ZM19.5267 43.9469H22.5329V43.6308H19.5267V43.9469ZM14.7708 39.3547C14.7708 41.9351 16.881 43.9469 19.5267 43.9469V43.6308C17.044 43.6308 15.087 41.7491 15.087 39.3547H14.7708ZM10.8616 35.5761C12.9652 35.5761 14.7285 37.3039 14.7709 39.3579L15.0869 39.3514C15.0409 37.1228 13.1347 35.26 10.8616 35.26V35.5761ZM9.00394 36.0471C9.52108 35.703 10.1494 35.5761 10.8616 35.5761V35.26C10.1149 35.26 9.41692 35.3926 8.82882 35.7839L9.00394 36.0471ZM6.57327 36.7225C7.35113 36.7225 8.26438 36.4996 8.99885 36.0504L8.83391 35.7807C8.15367 36.1967 7.29853 36.4064 6.57327 36.4064V36.7225ZM2.50252 34.3953C3.34886 35.8278 4.92585 36.7225 6.57327 36.7225V36.4064C5.03759 36.4064 3.56412 35.5707 2.7747 34.2345L2.50252 34.3953ZM0.977101 31.7994L2.50233 34.395L2.77489 34.2348L1.24966 31.6393L0.977101 31.7994ZM0.934221 27.2029C0.083029 28.5986 0.132825 30.3481 0.97675 31.7988L1.25001 31.6399C0.458175 30.2787 0.419552 28.6539 1.20412 27.3675L0.934221 27.2029ZM2.76172 25.4378C1.98675 25.8615 1.30021 26.531 0.930381 27.2096L1.20796 27.3609C1.54548 26.7416 2.18523 26.1133 2.91339 25.7151L2.76172 25.4378ZM4.09723 24.1066C3.72575 24.6839 3.34722 25.1511 2.76809 25.4345L2.90702 25.7184C3.56576 25.3961 3.98301 24.8684 4.36308 24.2777L4.09723 24.1066ZM2.71332 18.921C4.51911 19.9812 5.15332 22.329 4.09427 24.1114L4.36605 24.2729C5.51748 22.335 4.8254 19.7944 2.87337 18.6484L2.71332 18.921ZM1.02136 12.5833C-0.282769 14.7997 0.449101 17.6454 2.71576 18.9224L2.87093 18.647C0.760834 17.4582 0.0779957 14.8099 1.29382 12.7436L1.02136 12.5833ZM2.5019 10.0318L1.02087 12.5841L1.2943 12.7427L2.77533 10.1904L2.5019 10.0318ZM8.95019 8.32975C6.66405 7.03228 3.8286 7.81584 2.503 10.0299L2.77423 10.1923C4.01278 8.12362 6.65933 7.39309 8.79415 8.60469L8.95019 8.32975ZM14.2857 6.89213C13.2019 8.65969 10.796 9.32619 8.94726 8.32813L8.79708 8.60631C10.7946 9.68472 13.3844 8.9669 14.5552 7.05738L14.2857 6.89213ZM14.7712 5.08207C14.8127 5.69113 14.6264 6.30863 14.284 6.89505L14.557 7.05447C14.9219 6.42961 15.1335 5.74932 15.0866 5.06058L14.7712 5.08207ZM15.4151 2.69267C14.9784 3.36749 14.725 4.20044 14.771 5.0796L15.0867 5.06305C15.0444 4.25509 15.2773 3.48743 15.6805 2.86445L15.4151 2.69267ZM19.4561 0.371045C17.7892 0.415733 16.2588 1.30918 15.4129 2.69626L15.6828 2.86086C16.4726 1.56584 17.9042 0.728892 19.4646 0.68706L19.4561 0.371045ZM22.5772 0.370988H19.4604V0.687117H22.5772V0.370988ZM26.6468 2.69626C25.8023 1.31157 24.2719 0.370988 22.5772 0.370988V0.687117C24.1539 0.687117 25.5856 1.56344 26.3769 2.86086L26.6468 2.69626ZM27.2662 5.08371C27.3357 4.19935 27.0575 3.36612 26.6466 2.69594L26.3771 2.86119C26.7619 3.4888 27.0142 4.25618 26.9511 5.05894L27.2662 5.08371ZM27.7536 6.89505C27.4111 6.30863 27.2248 5.69113 27.2663 5.08207L26.9509 5.06058C26.904 5.74932 27.1157 6.42961 27.4806 7.05447L27.7536 6.89505ZM33.113 8.32777C31.2414 9.32674 28.8353 8.65918 27.7518 6.89213L27.4823 7.05738C28.6535 8.96742 31.2431 9.68417 33.2619 8.60666L33.113 8.32777ZM39.5352 10.0309C38.2316 7.8155 35.3729 7.03216 33.1089 8.33009L33.2661 8.60435C35.3788 7.39321 38.0463 8.12397 39.2627 10.1912L39.5352 10.0309ZM41.0167 12.5841L39.5356 10.0318L39.2622 10.1904L40.7432 12.7427L41.0167 12.5841ZM39.3212 18.9227C41.6103 17.6459 42.343 14.7993 41.0156 12.5822L40.7443 12.7446C41.9811 14.8102 41.299 17.4576 39.1672 18.6466L39.3212 18.9227ZM37.9647 24.1102C36.8847 22.3283 37.5184 19.9812 39.3242 18.921L39.1642 18.6484C37.2121 19.7944 36.5195 22.3356 37.6943 24.2741L37.9647 24.1102ZM39.2694 25.4345C38.6907 25.1513 38.3124 24.6844 37.9647 24.1103L37.6943 24.274C38.0539 24.8679 38.4713 25.3959 39.1305 25.7184L39.2694 25.4345ZM21.0513 28.1215C17.6634 28.1215 14.9316 25.4839 14.9316 22.18H14.6154C14.6154 25.6678 17.4982 28.4377 21.0513 28.4377V28.1215ZM27.1047 22.18C27.1047 25.4861 24.4369 28.1215 21.0513 28.1215V28.4377C24.6065 28.4377 27.4208 25.6657 27.4208 22.18H27.1047ZM21.0513 16.2168C24.4362 16.2168 27.1047 18.8731 27.1047 22.18H27.4208C27.4208 18.695 24.6072 15.9007 21.0513 15.9007V16.2168ZM14.9316 22.18C14.9316 18.8753 17.6641 16.2168 21.0513 16.2168V15.9007C17.4975 15.9007 14.6154 18.6928 14.6154 22.18H14.9316Z" fill="url(#paint1_linear_1215_70)" mask="url(#path-3-inside-2_1215_70)"/>
</g>
<g opacity="0.4">
<mask id="path-5-inside-3_1215_70" fill="white">
<path fill-rule="evenodd" clip-rule="evenodd" d="M39.2 25.5765C39.9736 25.9874 40.5705 26.6363 40.9905 27.2852C41.8083 28.6263 41.742 30.2701 40.9463 31.7193L39.3989 34.3149C38.581 35.6992 37.0558 36.5644 35.4864 36.5644C34.7127 36.5644 33.8506 36.3481 33.1433 35.9155C32.5685 35.5478 31.9054 35.418 31.198 35.418C29.0097 35.418 27.175 37.2133 27.1086 39.3547C27.1086 41.8421 25.075 43.7888 22.5329 43.7888H19.5267C16.9625 43.7888 14.9289 41.8421 14.9289 39.3547C14.8847 37.2133 13.05 35.418 10.8616 35.418C10.1321 35.418 9.469 35.5478 8.91638 35.9155C8.20902 36.3481 7.32483 36.5644 6.57327 36.5644C4.98172 36.5644 3.45649 35.6992 2.63861 34.3149L1.11338 31.7193C0.2955 30.3134 0.25129 28.6263 1.06917 27.2852C1.42285 26.6363 2.08599 25.9874 2.83755 25.5765C3.45649 25.2736 3.85438 24.7761 4.23016 24.1921C5.3354 22.332 4.67225 19.8878 2.79334 18.7847C0.604967 17.5518 -0.102387 14.8048 1.15759 12.6634L2.63861 10.1111C3.92069 7.96973 6.66169 7.21269 8.87217 8.46722C10.7953 9.50545 13.2931 8.8133 14.4205 6.97476C14.7742 6.36912 14.9731 5.72022 14.9289 5.07133C14.8847 4.22776 15.1278 3.42746 15.5478 2.77856C16.3657 1.43751 17.8467 0.572312 19.4604 0.529053H22.5772C24.2129 0.529053 25.6939 1.43751 26.5118 2.77856C26.9097 3.42746 27.175 4.22776 27.1086 5.07133C27.0644 5.72022 27.2634 6.36912 27.6171 6.97476C28.7444 8.8133 31.2422 9.50545 33.1875 8.46722C35.3758 7.21269 38.1389 7.96973 39.3989 10.1111L40.8799 12.6634C42.162 14.8048 41.4547 17.5518 39.2442 18.7847C37.3653 19.8878 36.7021 22.332 37.8295 24.1921C38.1832 24.7761 38.581 25.2736 39.2 25.5765ZM14.7735 22.18C14.7735 25.5759 17.5808 28.2796 21.0513 28.2796C24.5217 28.2796 27.2627 25.5759 27.2627 22.18C27.2627 18.7841 24.5217 16.0587 21.0513 16.0587C17.5808 16.0587 14.7735 18.7841 14.7735 22.18Z"/>
</mask>
<path d="M40.9905 27.2852L41.058 27.244L41.0568 27.2423L40.9905 27.2852ZM39.2 25.5765L39.2371 25.5066L39.2347 25.5055L39.2 25.5765ZM40.9463 31.7193L41.0142 31.7598L41.0155 31.7574L40.9463 31.7193ZM39.3989 34.3149L39.331 34.2745L39.3309 34.2747L39.3989 34.3149ZM33.1433 35.9155L33.1007 35.9821L33.102 35.983L33.1433 35.9155ZM27.1086 39.3547L27.0296 39.3522V39.3547H27.1086ZM14.9289 39.3547H15.0079L15.0079 39.3531L14.9289 39.3547ZM8.91638 35.9155L8.95764 35.983L8.96016 35.9813L8.91638 35.9155ZM2.63861 34.3149L2.57047 34.355L2.57057 34.3551L2.63861 34.3149ZM1.11338 31.7193L1.04506 31.7591L1.04524 31.7594L1.11338 31.7193ZM1.06917 27.2852L1.13672 27.3264L1.13856 27.323L1.06917 27.2852ZM2.83755 25.5765L2.80279 25.5054L2.79964 25.5071L2.83755 25.5765ZM4.23016 24.1921L4.29666 24.2349L4.2981 24.2325L4.23016 24.1921ZM2.79334 18.7847L2.83336 18.7165L2.83214 18.7158L2.79334 18.7847ZM1.15759 12.6634L1.2257 12.7035L1.22595 12.7031L1.15759 12.6634ZM2.63861 10.1111L2.5708 10.0705L2.57025 10.0714L2.63861 10.1111ZM8.87217 8.46722L8.83315 8.53597L8.83462 8.53676L8.87217 8.46722ZM14.4205 6.97476L14.4879 7.01608L14.4887 7.01461L14.4205 6.97476ZM14.9289 5.07133L14.85 5.07546L14.85 5.0767L14.9289 5.07133ZM15.5478 2.77856L15.6142 2.82152L15.6153 2.81971L15.5478 2.77856ZM19.4604 0.529053V0.449992L19.4583 0.450049L19.4604 0.529053ZM26.5118 2.77856L26.4443 2.81971L26.4444 2.81987L26.5118 2.77856ZM27.1086 5.07133L27.0299 5.06513L27.0298 5.06596L27.1086 5.07133ZM27.6171 6.97476L27.5488 7.01462L27.5497 7.01607L27.6171 6.97476ZM33.1875 8.46722L33.2247 8.53697L33.2268 8.53578L33.1875 8.46722ZM39.3989 10.1111L39.4673 10.0714L39.467 10.071L39.3989 10.1111ZM40.8799 12.6634L40.8116 12.7031L40.8121 12.704L40.8799 12.6634ZM39.2442 18.7847L39.2057 18.7156L39.2042 18.7165L39.2442 18.7847ZM37.8295 24.1921L37.8971 24.1512L37.8971 24.1512L37.8295 24.1921ZM41.0568 27.2423C40.6318 26.5857 40.0259 25.9257 39.2371 25.5067L39.1629 25.6463C39.9214 26.0492 40.5091 26.687 40.9241 27.3282L41.0568 27.2423ZM41.0155 31.7574C41.8225 30.2879 41.8931 28.6134 41.0579 27.2441L40.923 27.3264C41.7236 28.6391 41.6616 30.2524 40.877 31.6813L41.0155 31.7574ZM39.4668 34.3554L41.0141 31.7598L40.8784 31.6789L39.331 34.2745L39.4668 34.3554ZM35.4864 36.6435C37.084 36.6435 38.635 35.7633 39.467 34.3551L39.3309 34.2747C38.5271 35.6351 37.0277 36.4854 35.4864 36.4854V36.6435ZM33.102 35.983C33.8228 36.4238 34.6994 36.6435 35.4864 36.6435V36.4854C34.726 36.4854 33.8784 36.2725 33.1845 35.8481L33.102 35.983ZM31.198 35.4971C31.8961 35.4971 32.5428 35.6252 33.1007 35.9821L33.1859 35.849C32.5943 35.4705 31.9147 35.339 31.198 35.339V35.4971ZM27.1876 39.3571C27.2526 37.2586 29.0522 35.4971 31.198 35.4971V35.339C28.9671 35.339 27.0973 37.1681 27.0297 39.3522L27.1876 39.3571ZM22.5329 43.8678C25.116 43.8678 27.1877 41.8884 27.1877 39.3547H27.0296C27.0296 41.7959 25.034 43.7098 22.5329 43.7098V43.8678ZM19.5267 43.8678H22.5329V43.7098H19.5267V43.8678ZM14.8499 39.3547C14.8499 41.8886 16.9218 43.8678 19.5267 43.8678V43.7098C17.0033 43.7098 15.0079 41.7956 15.0079 39.3547H14.8499ZM10.8616 35.4971C13.0076 35.4971 14.8066 37.2586 14.8499 39.3563L15.0079 39.3531C14.9628 37.1681 13.0924 35.339 10.8616 35.339V35.4971ZM8.96016 35.9813C9.49504 35.6254 10.1408 35.4971 10.8616 35.4971V35.339C10.1235 35.339 9.44296 35.4702 8.8726 35.8497L8.96016 35.9813ZM6.57327 36.6435C7.33798 36.6435 8.2367 36.4239 8.95761 35.983L8.87514 35.8481C8.18135 36.2724 7.31168 36.4854 6.57327 36.4854V36.6435ZM2.57057 34.3551C3.40267 35.7635 4.95379 36.6435 6.57327 36.6435V36.4854C5.00965 36.4854 3.5103 35.635 2.70665 34.2747L2.57057 34.3551ZM1.04524 31.7594L2.57047 34.355L2.70675 34.2749L1.18152 31.6793L1.04524 31.7594ZM1.00169 27.2441C0.16716 28.6124 0.214163 30.3308 1.04506 31.7591L1.18169 31.6796C0.376838 30.296 0.335421 28.6401 1.13664 27.3264L1.00169 27.2441ZM2.79964 25.5071C2.03637 25.9245 1.36153 26.5837 0.999775 27.2474L1.13856 27.323C1.48416 26.689 2.13561 26.0504 2.87547 25.6458L2.79964 25.5071ZM4.1637 24.1494C3.79006 24.73 3.40185 25.2124 2.80282 25.5055L2.87229 25.6474C3.51113 25.3349 3.91869 24.8223 4.29662 24.2349L4.1637 24.1494ZM2.75333 18.8528C4.59568 19.9345 5.24436 22.3305 4.16221 24.1518L4.2981 24.2325C5.42644 22.3335 4.74883 19.8411 2.83336 18.7165L2.75333 18.8528ZM1.08947 12.6233C-0.192578 14.8022 0.527034 17.5986 2.75455 18.8535L2.83214 18.7158C0.682901 17.505 -0.0121955 14.8073 1.2257 12.7035L1.08947 12.6233ZM2.57025 10.0714L1.08923 12.6238L1.22595 12.7031L2.70697 10.1508L2.57025 10.0714ZM8.91118 8.39848C6.66287 7.12248 3.87464 7.89279 2.5708 10.0705L2.70642 10.1517C3.96674 8.04668 6.66051 7.30289 8.83316 8.53595L8.91118 8.39848ZM14.3531 6.93344C13.2475 8.73649 10.7956 9.41582 8.90971 8.39767L8.83462 8.53676C10.795 9.59509 13.3387 8.8901 14.4879 7.01607L14.3531 6.93344ZM14.85 5.0767C14.8929 5.70568 14.7003 6.33887 14.3522 6.9349L14.4887 7.01461C14.848 6.39937 15.0533 5.73477 15.0077 5.06596L14.85 5.0767ZM15.4815 2.73562C15.0531 3.39747 14.8048 4.2141 14.85 5.07546L15.0078 5.06719C14.9645 4.24142 15.2026 3.45744 15.6142 2.8215L15.4815 2.73562ZM19.4583 0.450049C17.818 0.494023 16.3123 1.37334 15.4804 2.73741L15.6153 2.81971C16.4191 1.50167 17.8755 0.650602 19.4625 0.608057L19.4583 0.450049ZM22.5772 0.45002H19.4604V0.608085H22.5772V0.45002ZM26.5793 2.73741C25.7481 1.37454 24.2424 0.45002 22.5772 0.45002V0.608085C24.1834 0.608085 25.6398 1.50048 26.4443 2.81971L26.5793 2.73741ZM27.1874 5.07752C27.2554 4.21355 26.9836 3.39679 26.5792 2.73725L26.4444 2.81987C26.8358 3.45813 27.0946 4.24197 27.0299 5.06513L27.1874 5.07752ZM27.6853 6.9349C27.3372 6.33887 27.1446 5.70568 27.1875 5.0767L27.0298 5.06596C26.9842 5.73477 27.1895 6.39937 27.5488 7.01461L27.6853 6.9349ZM33.1503 8.3975C31.2418 9.4161 28.7899 8.73624 27.6844 6.93344L27.5497 7.01607C28.6989 8.89036 31.2427 9.59481 33.2247 8.53694L33.1503 8.3975ZM39.467 10.071C38.1853 7.89261 35.3744 7.12242 33.1482 8.39865L33.2268 8.53578C35.3773 7.30295 38.0926 8.04685 39.3308 10.1512L39.467 10.071ZM40.9483 12.6238L39.4673 10.0714L39.3306 10.1508L40.8116 12.7031L40.9483 12.6238ZM39.2827 18.8537C41.5325 17.5988 42.2525 14.8021 40.9478 12.6228L40.8121 12.704C42.0715 14.8075 41.3768 17.5047 39.2057 18.7156L39.2827 18.8537ZM37.8971 24.1512C36.7934 22.3301 37.4419 19.9345 39.2842 18.8528L39.2042 18.7165C37.2887 19.8411 36.6108 22.3338 37.7619 24.2331L37.8971 24.1512ZM39.2347 25.5055C38.6359 25.2125 38.2478 24.7303 37.8971 24.1512L37.7619 24.2331C38.1185 24.822 38.5262 25.3348 39.1652 25.6474L39.2347 25.5055ZM21.0513 28.2006C17.6221 28.2006 14.8525 25.5299 14.8525 22.18H14.6945C14.6945 25.6218 17.5395 28.3586 21.0513 28.3586V28.2006ZM27.1837 22.18C27.1837 25.531 24.4793 28.2006 21.0513 28.2006V28.3586C24.5641 28.3586 27.3418 25.6208 27.3418 22.18H27.1837ZM21.0513 16.1377C24.479 16.1377 27.1837 18.8286 27.1837 22.18H27.3418C27.3418 18.7395 24.5645 15.9797 21.0513 15.9797V16.1377ZM14.8525 22.18C14.8525 18.8297 17.6225 16.1377 21.0513 16.1377V15.9797C17.5392 15.9797 14.6945 18.7385 14.6945 22.18H14.8525Z" fill="url(#paint2_linear_1215_70)" mask="url(#path-5-inside-3_1215_70)"/>
</g>
<path fill-rule="evenodd" clip-rule="evenodd" d="M39.2 25.5765C39.9736 25.9874 40.5705 26.6363 40.9905 27.2852C41.8083 28.6263 41.742 30.2701 40.9463 31.7193L39.3989 34.3149C38.581 35.6992 37.0558 36.5644 35.4864 36.5644C34.7127 36.5644 33.8506 36.3481 33.1433 35.9155C32.5685 35.5478 31.9054 35.418 31.198 35.418C29.0097 35.418 27.175 37.2133 27.1086 39.3547C27.1086 41.8421 25.075 43.7888 22.5329 43.7888H19.5267C16.9625 43.7888 14.9289 41.8421 14.9289 39.3547C14.8847 37.2133 13.05 35.418 10.8616 35.418C10.1321 35.418 9.469 35.5478 8.91638 35.9155C8.20902 36.3481 7.32483 36.5644 6.57327 36.5644C4.98172 36.5644 3.45649 35.6992 2.63861 34.3149L1.11338 31.7193C0.2955 30.3134 0.25129 28.6263 1.06917 27.2852C1.42285 26.6363 2.08599 25.9874 2.83755 25.5765C3.45649 25.2736 3.85438 24.7761 4.23016 24.1921C5.3354 22.332 4.67225 19.8878 2.79334 18.7847C0.604967 17.5518 -0.102387 14.8048 1.15759 12.6634L2.63861 10.1111C3.92069 7.96973 6.66169 7.21269 8.87217 8.46722C10.7953 9.50545 13.2931 8.8133 14.4205 6.97476C14.7742 6.36912 14.9731 5.72022 14.9289 5.07133C14.8847 4.22776 15.1278 3.42746 15.5478 2.77856C16.3657 1.43751 17.8467 0.572312 19.4604 0.529053H22.5772C24.2129 0.529053 25.6939 1.43751 26.5118 2.77856C26.9097 3.42746 27.175 4.22776 27.1086 5.07133C27.0644 5.72022 27.2634 6.36912 27.6171 6.97476C28.7444 8.8133 31.2422 9.50545 33.1875 8.46722C35.3758 7.21269 38.1389 7.96973 39.3989 10.1111L40.8799 12.6634C42.162 14.8048 41.4547 17.5518 39.2442 18.7847C37.3653 19.8878 36.7021 22.332 37.8295 24.1921C38.1832 24.7761 38.581 25.2736 39.2 25.5765ZM14.7735 22.18C14.7735 25.5759 17.5808 28.2796 21.0513 28.2796C24.5217 28.2796 27.2627 25.5759 27.2627 22.18C27.2627 18.7841 24.5217 16.0587 21.0513 16.0587C17.5808 16.0587 14.7735 18.7841 14.7735 22.18Z" fill="#7CDDAE"/>
<defs>
<linearGradient id="paint0_linear_1215_70" x1="21.0258" y1="0.529053" x2="21.0258" y2="43.7888" gradientUnits="userSpaceOnUse">
<stop stop-color="#7CDDAE"/>
<stop offset="1" stop-color="#6FE0EF"/>
</linearGradient>
<linearGradient id="paint1_linear_1215_70" x1="21.0258" y1="0.529053" x2="21.0258" y2="43.7888" gradientUnits="userSpaceOnUse">
<stop stop-color="#7CDDAE"/>
<stop offset="1" stop-color="#6FE0EF"/>
</linearGradient>
<linearGradient id="paint2_linear_1215_70" x1="21.0258" y1="0.529053" x2="21.0258" y2="43.7888" gradientUnits="userSpaceOnUse">
<stop stop-color="#7CDDAE"/>
<stop offset="1" stop-color="#6FE0EF"/>
</linearGradient>
</defs>
</svg>
